<?xml version="1.0" encoding="UTF-8"?><svg version="1.1" width="352px" height="653px" viewBox="0 0 352.0 653.0" xmlns="http://www.w3.org/2000/svg" xmlns:xlink="http://www.w3.org/1999/xlink"><defs><filter id="i0" x="-5.24691358%" y="-1.92307692%" filterUnits="userSpaceOnUse" width="109.259259%" height="104.807692%"><feGaussianBlur stdDeviation="2.5" in="SourceAlpha" result="i1"></feGaussianBlur><feOffset dx="0" dy="5" in="i1" result="i2"></feOffset><feColorMatrix values="0 0 0 0.3215686274509804 0 0 0 0 0.4392156862745096 0 0 0 0 0.580392156862745 0 0 0 0 0.2 0" type="matrix" in="i2"></feColorMatrix></filter><filter id="i3" x="-13.3522727%" y="-6.74846626%" filterUnits="userSpaceOnUse" width="117.613636%" height="109.509202%"><feGaussianBlur stdDeviation="7" in="SourceAlpha" result="i4"></feGaussianBlur><feOffset dx="0" dy="3" in="i4" result="i5"></feOffset><feColorMatrix values="0 0 0 0.3215686274509804 0 0 0 0 0.4392156862745096 0 0 0 0 0.580392156862745 0 0 0 0 0.12 0" type="matrix" in="i5"></feColorMatrix></filter><filter id="i6" x="-11.4035088%" y="-4.82866044%" filterUnits="userSpaceOnUse" width="116.374269%" height="108.722741%"><feGaussianBlur stdDeviation="5" in="SourceAlpha" result="i7"></feGaussianBlur><feOffset dx="0" dy="8" in="i7" result="i8"></feOffset><feColorMatrix values="0 0 0 0.3215686274509804 0 0 0 0 0.4392156862745096 0 0 0 0 0.580392156862745 0 0 0 0 0.14 0" type="matrix" in="i8"></feColorMatrix></filter><clipPath id="i9"><path d="M280,0 C302.09139,-4.05812251e-15 320,17.90861 320,40 L320,580 C320,602.09139 302.09139,620 280,620 L40,620 C17.90861,620 2.705415e-15,602.09139 0,580 L0,40 C-2.705415e-15,17.90861 17.90861,4.05812251e-15 40,0 L280,0 Z"></path></clipPath><clipPath id="i10"><path d="M272,0 C289.673112,-3.24649801e-15 304,14.326888 304,32 L304,572 C304,589.673112 289.673112,604 272,604 L32,604 C14.326888,604 2.164332e-15,589.673112 0,572 L0,32 C-2.164332e-15,14.326888 14.326888,-3.06215674e-16 32,0 L272,0 Z"></path></clipPath><clipPath id="i11"><path d="M11,0 L11,1 L8,1 C4.13400675,1 1,4.13400675 1,8 L1,40 C1,43.8659932 4.13400675,47 8,47 L248,47 C251.865993,47 255,43.8659932 255,40 L255,8 C255,4.13400675 251.865993,1 248,1 L245,1 L245,0 L248,0 C252.418278,-8.11624501e-16 256,3.581722 256,8 L256,40 C256,44.418278 252.418278,48 248,48 L8,48 C3.581722,48 5.41083001e-16,44.418278 0,40 L0,8 C-5.41083001e-16,3.581722 3.581722,-1.85291076e-15 8,0 L11,0 Z"></path></clipPath><clipPath id="i12"><path d="M3.77798058,0 C4.68047149,0 5.37174113,0.129613057 5.94779916,0.297629982 L5.80378465,1.64656587 C5.32853678,1.56015716 4.824486,1.46894798 4.32043523,1.46894798 C2.06900842,1.46894798 1.85298666,2.08821036 1.85298666,4.30603378 C1.85298666,6.4038451 1.94419585,7.2823336 4.33003619,7.2823336 C4.824486,7.2823336 5.30933484,7.19112441 5.79898417,7.09511474 L5.96220061,8.48245449 C5.23732759,8.65047142 4.37804103,8.78008448 3.30753319,8.78008448 C0.456045941,8.78008448 0,6.62466735 0,4.30603378 C0,1.50735185 0.648065284,0 3.77798058,0 Z"></path></clipPath><clipPath id="i13"><path d="M3.80678348,0 C6.60546541,0 7.61356696,1.24332525 7.61356696,4.387642 C7.61356696,7.53675923 6.60546541,8.78008448 3.80678348,8.78008448 C1.00810155,8.78008448 0,7.58956455 0,4.387642 C0,1.19051993 1.00810155,0 3.80678348,0 Z M3.80678348,1.44974604 C2.26102777,1.44974604 1.83858521,2.03060456 1.83858521,4.387642 C1.83858521,6.74947992 2.26102777,7.33033843 3.80678348,7.33033843 C5.3525392,7.33033843 5.78458272,6.65347025 5.78458272,4.387642 C5.78458272,2.12661423 5.3525392,1.44974604 3.80678348,1.44974604 Z"></path></clipPath><clipPath id="i14"><path d="M3.43234576,0 C3.71557429,0 3.97960089,0.00960096717 4.22922604,0.0336033851 L4.08521153,1.48334943 C3.89319219,1.45934701 3.67717043,1.44974604 3.43234576,1.44974604 C2.88509063,1.44974604 2.24182583,1.54575571 1.8721886,1.73777506 C1.83378473,2.08340988 1.81938328,2.50105195 1.81938328,2.88509063 L1.81938328,8.66487287 L0,8.66487287 L0,2.31863357 C0,1.75697699 0.0240024179,1.26732767 0.0720072538,0.748875439 C1.02730349,0.211221278 2.31383309,0 3.43234576,0 Z"></path></clipPath><clipPath id="i15"><path d="M3.80678348,0 C6.88389346,0 7.54155971,1.62256345 7.54155971,4.17162023 C7.54155971,4.37804103 7.53675923,4.58926231 7.51755729,4.80528407 C6.53825864,4.97810148 4.49805312,5.17972179 3.31713416,5.23252711 L1.80978231,5.29973388 C1.90579198,6.94629975 2.76507854,7.33033843 4.09001201,7.33033843 C5.23252711,7.33033843 6.27903253,7.21992731 7.15752102,7.10951619 L7.3111365,8.46805304 C6.38464317,8.61686803 5.26613049,8.78008448 3.61956462,8.78008448 C0.753675923,8.78008448 0,6.92229733 0,4.387642 C0,1.2865296 0.960096717,0 3.80678348,0 Z M3.80678348,1.37293831 C2.00660214,1.37293831 1.76177748,2.51065291 1.76177748,4.05640863 L3.4803506,3.97480041 C4.10921395,3.94599751 5.09811357,3.86438929 5.68857305,3.78278106 C5.7029745,3.67236994 5.70777498,3.49475205 5.70777498,3.38434093 C5.70777498,2.08340988 5.22772662,1.37293831 3.80678348,1.37293831 Z"></path></clipPath><clipPath id="i16"><path d="M6.57666251,0 C8.2760337,0 9.69697684,0.638464317 9.69697684,2.69307129 L9.69697684,6.0534098 C9.69697684,6.61506638 9.67297442,7.1047157 9.62496959,7.62316793 C8.90969753,8.06961291 7.63756938,8.37204337 6.28383301,8.37204337 C3.96999992,8.37204337 3.06270853,7.46475197 3.06270853,5.70777498 C3.06270853,4.21482459 3.72997575,3.33153561 5.36214016,3.02910514 C6.06301077,2.89949208 7.09511474,2.84668677 7.91119695,2.80348241 C7.91119695,1.77137844 7.57036261,1.44974604 6.49505429,1.44974604 C3.56195882,1.44974604 1.83378473,2.41944373 1.83378473,5.70777498 C1.83378473,8.94330092 3.51395398,9.96580392 6.41344607,9.96580392 C9.31773864,9.96580392 10.9931074,8.94330092 10.9931074,5.70777498 C10.9931074,5.07411115 10.9259006,4.51725505 10.8010881,4.04680766 L12.5484641,3.5379564 C12.7308825,4.16681975 12.8268921,4.89169277 12.8268921,5.70777498 C12.8268921,9.75938313 10.541862,11.41555 6.41344607,11.41555 C2.26582825,11.41555 0,9.75938313 0,5.70777498 C0,1.54575571 2.37143889,0 6.57666251,0 Z M7.91119695,3.99400234 C7.3975452,4.00840379 6.52385719,4.07081008 6.06781125,4.20042314 C5.18452227,4.45004828 4.86288987,4.68047149 4.86288987,5.67897208 C4.86288987,6.74947992 5.45814984,7.00870603 6.55266009,7.00870603 C6.86949201,7.00870603 7.56076165,6.88869394 7.85839163,6.71587653 C7.8967955,6.37024172 7.91119695,5.95259964 7.91119695,5.56856096 Z"></path></clipPath><clipPath id="i17"><path d="M8.50645691,0 C11.1803263,0 11.5739659,1.45454653 11.5739659,3.18272062 L11.5739659,8.66487287 L9.74978216,8.66487287 L9.74978216,3.37954044 C9.74978216,2.09781133 9.44255121,1.44494556 8.06001194,1.44494556 C7.66637228,1.44494556 7.03750893,1.55535668 6.55746058,1.81938328 C6.66307122,2.23702535 6.6966746,2.69787177 6.6966746,3.18272062 L6.6966746,8.66487287 L4.87249084,8.66487287 L4.87249084,3.37954044 C4.87249084,2.09781133 4.56525989,1.44494556 3.18272062,1.44494556 C2.75067709,1.44494556 2.18902051,1.56495765 1.8721886,1.72817409 C1.83378473,2.07380891 1.81938328,2.49145098 1.81938328,2.87548967 L1.81938328,8.66487287 L0,8.66487287 L0,2.31863357 C0,1.75697699 0.0240024179,1.26732767 0.0720072538,0.748875439 C0.979298651,0.302430466 2.29943164,0 3.62916559,0 C4.61326472,0 5.29013291,0.201620311 5.75097933,0.537654161 C6.54785961,0.216021761 7.53675923,0 8.50645691,0 Z"></path></clipPath><clipPath id="i18"><path d="M3.68197091,0 C5.56376047,0 7.11431667,0.513651744 7.11431667,2.69307129 L7.11431667,6.4614509 C7.11431667,7.02310748 7.09031425,7.51275681 7.04230942,8.03120904 C6.08701319,8.5688632 4.81488504,8.78008448 3.22112449,8.78008448 C0.907291397,8.78008448 0,7.87279308 0,6.11581609 C0,4.62286569 0.648065284,3.68677139 2.29943164,3.43714625 C3.24032642,3.29313174 4.27243039,3.25472787 5.32853678,3.21152352 C5.32853678,2.02580407 4.81008455,1.43054411 3.5091535,1.43054411 C2.4866505,1.43054411 1.41134217,1.53615475 0.537654161,1.64656587 L0.38883917,0.312031433 C1.31053202,0.158415958 2.42904469,0 3.68197091,0 Z M5.32853678,4.40204345 C4.57486086,4.43084635 3.70117284,4.4452478 3.00510272,4.60846424 C2.11701326,4.81488504 1.80018134,5.0885126 1.80018134,6.08701319 C1.80018134,7.15752102 2.39544131,7.41674714 3.48995157,7.41674714 C4.04680766,7.41674714 4.7380773,7.37354279 5.27573146,7.12391764 C5.31413533,6.77828282 5.32853678,6.36064075 5.32853678,5.97660206 Z"></path></clipPath><clipPath id="i19"><path d="M2.02580407,3.41794431 L2.02580407,11.9676056 L0.192019343,11.9676056 L0.192019343,3.41794431 L2.02580407,3.41794431 Z M1.10411122,0 C1.95379682,0 2.21302293,0.273627564 2.21302293,1.10891171 C2.21302293,1.94419585 1.96819827,2.21782342 1.10411122,2.21782342 C0.244824663,2.21782342 0,1.94419585 0,1.10891171 C0,0.273627564 0.259226114,0 1.10411122,0 Z"></path></clipPath><clipPath id="i20"><path d="M1.82898425,0 L1.82898425,9.55776282 C1.82898425,10.3450421 2.00660214,10.8874968 2.45304711,11.4779563 L0.864087045,12.2316322 C0.302430466,11.5931679 0,10.8250905 0,9.63937104 L0,0 L1.82898425,0 Z"></path></clipPath><clipPath id="i21"><path d="M1.10411122,0 C1.95379682,0 2.21302293,0.273627564 2.21302293,1.10891171 C2.21302293,1.94419585 1.96819827,2.21782342 1.10411122,2.21782342 C0.244824663,2.21782342 0,1.94419585 0,1.10891171 C0,0.273627564 0.259226114,0 1.10411122,0 Z"></path></clipPath><clipPath id="i22"><path d="M3.80678348,0 C6.60546541,0 7.61356696,1.24332525 7.61356696,4.387642 C7.61356696,7.53675923 6.60546541,8.78008448 3.80678348,8.78008448 C1.00810155,8.78008448 0,7.58956455 0,4.387642 C0,1.19051993 1.00810155,0 3.80678348,0 Z M3.80678348,1.44974604 C2.26102777,1.44974604 1.83858521,2.03060456 1.83858521,4.387642 C1.83858521,6.74947992 2.26102777,7.33033843 3.80678348,7.33033843 C5.3525392,7.33033843 5.78458272,6.65347025 5.78458272,4.387642 C5.78458272,2.12661423 5.3525392,1.44974604 3.80678348,1.44974604 Z"></path></clipPath><clipPath id="i23"><path d="M237,0 L237,16 L0,16 L0,0 L237,0 Z"></path></clipPath><clipPath id="i24"><path d="M860.706333,0 L860.706333,1 L0,1 L0,0 L860.706333,0 Z"></path></clipPath><clipPath id="i25"><path d="M2.8658887,0 C3.45274782,0 4.4680501,0.0288029015 5.08011175,0.057605803 L5.08011175,1.17011787 L2.82988507,1.17011787 C1.6597672,1.17011787 1.46174725,1.40414145 1.46174725,2.4698488 L1.46174725,3.57155979 L4.91809543,3.57155979 L4.91809543,4.71287476 L1.46174725,4.71287476 L1.46174725,5.96220061 C1.46174725,7.02790797 1.6597672,7.26193154 2.82988507,7.26193154 L5.08011175,7.26193154 L5.08011175,8.37444361 C4.4680501,8.40324651 3.45274782,8.43204942 2.8658887,8.43204942 C1.37893891,8.43204942 0,8.35284144 0,6.45184994 L0,1.98019948 C0,0.0792079791 1.37893891,0 2.8658887,0 Z"></path></clipPath><clipPath id="i26"><path d="M6.37984268,0 C8.3852447,0 8.68047444,1.09090989 8.68047444,2.38704046 L8.68047444,6.49865465 L7.31233662,6.49865465 L7.31233662,2.53465533 C7.31233662,1.57335849 7.08191341,1.08370917 6.04500895,1.08370917 C5.74977921,1.08370917 5.2781317,1.16651751 4.91809543,1.36453746 C4.99730341,1.67776901 5.02250595,2.02340383 5.02250595,2.38704046 L5.02250595,6.49865465 L3.65436813,6.49865465 L3.65436813,2.53465533 C3.65436813,1.57335849 3.42394492,1.08370917 2.38704046,1.08370917 C2.06300782,1.08370917 1.64176539,1.17371824 1.40414145,1.29613057 C1.37533855,1.55535668 1.36453746,1.86858824 1.36453746,2.15661725 L1.36453746,6.49865465 L0,6.49865465 L0,1.73897518 C0,1.31773274 0.0180018134,0.95049575 0.0540054403,0.561656579 C0.734473988,0.226822849 1.72457373,0 2.72187419,0 C3.45994854,0 3.96759968,0.151215233 4.3132345,0.403240621 C4.91089471,0.162016321 5.65256942,0 6.37984268,0 Z"></path></clipPath><clipPath id="i27"><path d="M2.76147818,0 C4.17282036,0 5.3357375,0.385238808 5.3357375,2.01980347 L5.3357375,4.84608818 C5.3357375,5.26733061 5.31773569,5.63456761 5.28173206,6.02340678 C4.56525989,6.4266474 3.61116378,6.58506336 2.41584336,6.58506336 C0.680468548,6.58506336 0,5.90459481 0,4.58686206 C0,3.46714927 0.486048963,2.76507854 1.72457373,2.57785968 C2.43024481,2.4698488 3.20432279,2.4410459 3.99640258,2.40864264 C3.99640258,1.51935305 3.60756341,1.07290808 2.63186513,1.07290808 C1.86498787,1.07290808 1.05850663,1.15211606 0.403240621,1.2349244 L0.291629378,0.234023575 C0.982899014,0.118811969 1.82178352,0 2.76147818,0 Z M3.99640258,3.30153259 C3.43114564,3.32313476 2.77587963,3.33393585 2.25382704,3.45634818 C1.58775995,3.61116378 1.35013601,3.81638445 1.35013601,4.56525989 C1.35013601,5.36814077 1.79658098,5.56256035 2.61746367,5.56256035 C3.03510575,5.56256035 3.55355797,5.53015709 3.95679859,5.34293823 C3.9856015,5.08371212 3.99640258,4.77048056 3.99640258,4.48245155 Z"></path></clipPath><clipPath id="i28"><path d="M1.51935305,2.56345823 L1.51935305,8.97570418 L0.144014508,8.97570418 L0.144014508,2.56345823 L1.51935305,2.56345823 Z M0.828083418,0 C1.46534761,0 1.6597672,0.205220673 1.6597672,0.831683781 C1.6597672,1.45814689 1.4761487,1.66336756 0.828083418,1.66336756 C0.183618497,1.66336756 0,1.45814689 0,0.831683781 C0,0.205220673 0.194419585,0 0.828083418,0 Z"></path></clipPath><clipPath id="i29"><path d="M1.37173818,0 L1.37173818,7.16832211 C1.37173818,7.75878159 1.5049516,8.16562258 1.83978533,8.60846719 L0.648065284,9.17372413 C0.226822849,8.69487589 0,8.11881786 0,7.22952828 L0,0 L1.37173818,0 Z"></path></clipPath><clipPath id="i30"><path d="M4.14281733,0 C7.32553795,0 8.05041097,1.73777506 8.05041097,4.5028536 C8.05041097,9.5049575 6.96550168,11.0795161 2.05460697,11.0795161 L1.91337746,11.079152 C1.75827846,11.0781506 1.49871098,11.0743956 0.854486078,11.0603142 L0.700870603,9.57696475 C2.65466742,9.4761546 6.00540496,9.86979425 6.03420787,6.79268427 C5.45814984,6.87429249 4.67567101,6.9607012 3.91239412,6.9607012 C1.48814991,6.9607012 0,6.30303495 0,3.55715834 C0,0.700870603 1.65136635,0 4.14281733,0 Z M4.18602169,1.50255136 C2.41464324,1.50255136 1.87698908,2.04500601 1.87698908,3.58116075 C1.87698908,5.19892372 2.73147516,5.54935902 4.20042314,5.54935902 C4.80528407,5.54935902 5.59736386,5.45814984 6.1398185,5.37654161 C6.17342189,5.0309068 6.17822237,4.67567101 6.17822237,4.28683184 C6.17822237,2.87068918 5.95740013,1.50255136 4.18602169,1.50255136 Z"></path></clipPath><clipPath id="i31"><path d="M4.14281733,0 C7.32553795,0 8.05041097,1.73777506 8.05041097,4.5028536 C8.05041097,9.5049575 6.96550168,11.0795161 2.05460697,11.0795161 L1.91337746,11.079152 C1.75827846,11.0781506 1.49871098,11.0743956 0.854486078,11.0603142 L0.700870603,9.57696475 C2.65466742,9.4761546 6.00540496,9.86979425 6.03420787,6.79268427 C5.45814984,6.87429249 4.67567101,6.9607012 3.91239412,6.9607012 C1.48814991,6.9607012 0,6.30303495 0,3.55715834 C0,0.700870603 1.65136635,0 4.14281733,0 Z M4.18602169,1.50255136 C2.41464324,1.50255136 1.87698908,2.04500601 1.87698908,3.58116075 C1.87698908,5.19892372 2.73147516,5.54935902 4.20042314,5.54935902 C4.80528407,5.54935902 5.59736386,5.45814984 6.1398185,5.37654161 C6.17342189,5.0309068 6.17822237,4.67567101 6.17822237,4.28683184 C6.17822237,2.87068918 5.95740013,1.50255136 4.18602169,1.50255136 Z"></path></clipPath><clipPath id="i32"><path d="M6.41824655,0 C7.14311957,0 7.54636019,0.340834334 7.54636019,0.873688012 C7.54636019,1.06570736 7.49355488,1.27692863 7.38794424,1.51215233 L3.16831917,10.8490929 L1.00330107,10.8490929 L5.53975806,1.60336152 L0,1.60336152 L0,0 Z"></path></clipPath><clipPath id="i33"><path d="M7.17192248,0 L7.17192248,1.608162 L2.25622728,1.608162 L2.08340988,4.13801685 C2.33303502,4.1236154 2.62586452,4.11401443 2.82748483,4.11401443 C5.52055612,4.11401443 7.44555004,4.51725505 7.44555004,7.45995149 C7.44555004,9.98020537 6.01020545,10.9643045 3.38914141,10.9643045 C2.19862148,10.9643045 1.04650542,10.8346914 0,10.6138692 L0.196819827,9.16412316 C1.05610639,9.28893574 1.97299875,9.39934686 2.88509063,9.39934686 C4.77648117,9.39934686 5.4677508,9.14492123 5.4677508,7.2535307 C5.4677508,5.71737595 3.84518735,5.56856096 2.43384518,5.56856096 C1.65616684,5.56856096 1.01290204,5.58296241 0.249625146,5.62136628 L0.638464317,0 L7.17192248,0 Z"></path></clipPath><clipPath id="i34"><path d="M4.02280524,0 C5.87099142,0 7.89199501,0.489649326 7.89199501,2.67386936 C7.89199501,3.88359122 7.65677132,4.58446182 6.29343398,5.31413533 C7.41194665,5.92859723 8.04081,6.62946783 8.04081,7.99760565 C8.04081,10.532261 6.22622721,11.0795161 4.02280524,11.0795161 C1.6657678,11.0795161 0,10.3690445 0,7.99280517 C0,6.65347025 0.595259964,6.00060448 1.75697699,5.34293823 C0.638464317,4.74767826 0.163216442,4.01800476 0.163216442,2.67386936 C0.163216442,0.494449809 2.14101568,0 4.02280524,0 Z M3.57155979,6.07261173 C2.48185001,6.27423204 1.8433857,6.83588862 1.8433857,7.94960082 C1.8433857,9.33214009 2.78428048,9.6201691 4.02280524,9.6201691 C5.22772662,9.6201691 6.19262382,9.33214009 6.19262382,7.94960082 C6.19262382,6.73027799 5.7605803,6.28383301 3.57155979,6.07261173 Z M4.02280524,1.41614266 C2.88509063,1.41614266 1.94419585,1.60336152 1.94419585,2.93789595 C1.94419585,3.86438929 2.30423212,4.48365167 4.49325264,4.60366376 C5.59736386,4.33963716 6.13501802,3.96039896 6.13501802,2.93789595 C6.13501802,1.61776297 5.19892372,1.41614266 4.02280524,1.41614266 Z"></path></clipPath><clipPath id="i35"><path d="M4.00360331,0 C7.32553795,0 8.00240614,1.82418376 8.00240614,5.53975806 C8.00240614,9.25533235 7.32553795,11.0795161 4.00360331,11.0795161 C0.681668669,11.0795161 0,9.25533235 0,5.53975806 C0,1.82418376 0.681668669,0 4.00360331,0 Z M4.00360331,1.49295039 C1.96339779,1.49295039 1.90579198,3.11551385 1.90579198,5.53975806 C1.90579198,7.96400227 1.96339779,9.58176523 4.00360331,9.58176523 C6.04380883,9.58176523 6.10141464,7.96400227 6.10141464,5.53975806 L6.10120238,5.32160355 C6.09610281,3.01866662 5.98198442,1.49295039 4.00360331,1.49295039 Z"></path></clipPath><clipPath id="i36"><path d="M3.64356704,0 C5.8181861,0 7.46475197,0.57605803 7.46475197,2.69307129 C7.46475197,4.67087053 6.36064075,5.89499384 4.30603378,6.72067702 C2.6018621,7.40234569 2.32823454,8.00240614 2.14581616,9.34654154 L7.45995149,9.34654154 L7.45995149,10.9643045 L0,10.9643045 C0.595259964,7.6327689 0.89769043,6.40864559 3.37473996,5.35733968 C4.85808939,4.72847633 5.55415951,4.19562265 5.55415951,3.02430466 C5.55415951,1.81458279 4.87729132,1.55535668 2.76987903,1.55535668 C2.05460697,1.55535668 1.08010881,1.66096732 0.345634818,1.77617893 L0.172817409,0.350435302 C1.17611848,0.163216442 2.37623937,0 3.64356704,0 Z"></path></clipPath><clipPath id="i37"><path d="M4.4452478,0 L4.4452478,10.8490929 L2.56825872,10.8490929 L2.56825872,1.87698908 C1.88659005,2.05460697 0.89769043,2.24182583 0.0816082209,2.34263599 L0,0.864087045 C1.30093105,0.667267218 2.24662632,0.316831917 2.92829499,0 L4.4452478,0 Z"></path></clipPath><clipPath id="i38"><path d="M859.765156,0 L859.765156,1 L0,1 L0,0 L859.765156,0 Z"></path></clipPath><clipPath id="i39"><path d="M3.44194673,0 C4.27363051,0 5.0081045,0.0972097926 5.5481589,0.230423212 L5.41854585,1.34293528 C4.89649326,1.26012694 4.33843704,1.2061215 3.76957973,1.2061215 C1.51575269,1.2061215 1.49775088,2.50945279 1.49775088,4.28083124 L1.4978713,4.44613478 C1.50105941,6.13915281 1.58618479,7.35554097 3.76957973,7.35554097 C4.33843704,7.35554097 4.89649326,7.30153553 5.41854585,7.21872719 L5.5481589,8.33123926 C5.0081045,8.46445268 4.27363051,8.56166247 3.44194673,8.56166247 C0.680468548,8.56166247 0,7.25833118 0,4.28083124 C0,1.29973093 0.684068911,0 3.44194673,0 Z"></path></clipPath><clipPath id="i40"><path d="M2.85508761,0 C5.1629201,0 5.65616978,1.21692259 5.65616978,3.12871518 C5.65616978,3.28353077 5.65256942,3.44194673 5.63816797,3.60396305 C4.90369398,3.73357611 3.37353984,3.88479134 2.48785062,3.92439533 L1.35733673,3.97480041 C1.42934399,5.20972481 2.07380891,5.49775383 3.06750901,5.49775383 C3.92439533,5.49775383 4.7092744,5.41494548 5.36814077,5.33213714 L5.48335237,6.35103978 C4.78848238,6.46265103 3.94959787,6.58506336 2.71467347,6.58506336 C0.565256942,6.58506336 0,5.191723 0,3.2907315 C0,0.9648972 0.720072538,0 2.85508761,0 Z M2.85508761,1.02970373 C1.5049516,1.02970373 1.32133311,1.88298969 1.32133311,3.04230647 L2.61026295,2.98110031 C3.08191046,2.95949813 3.82358517,2.89829196 4.26642979,2.8370858 C4.27723087,2.75427746 4.28083124,2.62106404 4.28083124,2.5382557 C4.28083124,1.56255741 3.92079497,1.02970373 2.85508761,1.02970373 Z"></path></clipPath><clipPath id="i41"><path d="M1.36813782,0 L1.36813782,3.96399932 C1.36813782,4.98650232 1.54455559,5.41854585 2.85148725,5.41854585 C3.25832823,5.41854585 3.73357611,5.34653859 4.01080403,5.20252408 C4.03960694,4.94329797 4.05040802,4.63006642 4.05040802,4.3420374 L4.05040802,0 L5.41494548,0 L5.41494548,4.75967947 C5.41494548,5.18092191 5.39694367,5.5481589 5.36094004,5.93699807 C4.63366678,6.29343398 3.68677139,6.49865465 2.47704953,6.49865465 C0.226822849,6.49865465 0,5.44374838 0,4.11161419 L0,0 L1.36813782,0 Z"></path></clipPath><clipPath id="i42"><path d="M2.57425932,0 C2.78668072,0 2.98470067,0.00720072538 3.17191953,0.0252025388 L3.06390865,1.11251207 C2.91989414,1.09451026 2.75787782,1.08730953 2.57425932,1.08730953 C2.16381798,1.08730953 1.68136938,1.15931679 1.40414145,1.30333129 C1.37533855,1.56255741 1.36453746,1.87578896 1.36453746,2.16381798 L1.36453746,6.49865465 L0,6.49865465 L0,1.73897518 C0,1.31773274 0.0180018134,0.95049575 0.0540054403,0.561656579 C0.770477615,0.158415958 1.73537482,0 2.57425932,0 Z"></path></clipPath><clipPath id="i43"><path d="M2.67650962,0 C5.92763713,0 6.49847463,1.50081119 6.49847463,4.4948728 C6.49847463,7.48893441 5.92763713,8.9897456 2.67650962,8.9897456 C1.74653594,8.9897456 0.774978069,8.9103576 0,8.78182465 L0,0.200360184 C0.774978069,0.0756076165 1.74653594,0 2.67650962,0 Z M2.41566335,0.812781877 C1.97335879,0.812781877 1.42520357,0.865707208 0.967777491,0.922412921 L0.967777491,8.06355229 C1.42520357,8.12403839 1.97335879,8.17696372 2.41566335,8.17696372 C5.50801486,8.17696372 5.52313638,6.58542339 5.52313638,4.4948728 L5.52305494,4.33506387 C5.52033776,2.32375113 5.42872379,0.812781877 2.41566335,0.812781877 Z"></path></clipPath><clipPath id="i44"><path d="M2.94491666,0 C5.2244863,0 5.84068837,1.19081996 5.84068837,3.03186542 C5.84068837,3.22088446 5.83312761,3.4703896 5.82178647,3.67074978 C5.05058878,3.79928273 3.45526807,3.95049796 2.51395325,3.98830177 L0.91863254,4.05256824 C1.03204396,5.43240724 1.44788586,6.13933846 3.14527684,6.13933846 C4.0223252,6.13933846 4.83132669,6.04482894 5.52313638,5.95031941 L5.60630476,6.69127406 C4.83510707,6.80846586 4.060129,6.91431652 2.78614067,6.91431652 C0.582178647,6.91431652 0,5.45130915 0,3.45526807 C0,1.01314206 0.73339388,0 2.94491666,0 Z M2.94491666,0.748515403 C1.25130605,0.748515403 0.895950255,1.61800299 0.895950255,3.35697817 L2.67650962,3.27380979 C3.26624903,3.24734713 4.27939109,3.16795913 4.89937355,3.08857113 C4.91071469,2.95247742 4.91449507,2.75589762 4.91449507,2.61602353 C4.91449507,1.47434852 4.4154848,0.748515403 2.94491666,0.748515403 Z"></path></clipPath><clipPath id="i45"><path d="M2.92979514,0 C3.52331493,0 4.01854481,0.0793879973 4.43816709,0.192799422 L4.36255947,0.895950255 C4.06390938,0.843024923 3.6064833,0.78253883 3.23978637,0.78253883 C1.13411425,0.78253883 0.929973682,1.51971309 0.929973682,3.38344084 C0.929973682,5.13375716 1.0849693,6.12043655 3.22844522,6.12043655 C3.57245988,6.12043655 4.03744672,6.04482894 4.36255947,5.97678208 L4.44950823,6.71773672 C3.91269415,6.82736777 3.38344084,6.91431652 2.68785076,6.91431652 C0.419622271,6.91431652 0,5.31899582 0,3.38344084 C0,1.17947882 0.499010269,0 2.92979514,0 Z"></path></clipPath><clipPath id="i46"><path d="M0.91863254,0 L0.91863254,7.52673822 C0.91863254,8.25257134 1.09631044,8.77048351 1.459227,9.23168997 L0.680468548,9.63241034 C0.238163992,9.12961969 0,8.52475876 0,7.59100469 L0,0 L0.91863254,0 Z"></path></clipPath><clipPath id="i47"><path d="M2.90711285,0 C4.33987718,0 5.47399143,0.36669694 5.47399143,2.04518603 L5.47399143,5.2244863 C5.47399143,5.6176459 5.45886991,6.00324475 5.43618762,6.37372207 C4.64230765,6.76688167 3.69721244,6.91431652 2.62358429,6.91431652 C0.820342639,6.91431652 0,6.36238092 0,4.90315393 C0,3.73501625 0.491449507,2.99784199 1.69361061,2.81638371 C2.51395325,2.69163115 3.54221683,2.65382734 4.57048041,2.61980391 L4.57048041,2.32115383 C4.57048041,1.22106301 4.19622271,0.767417307 2.73699572,0.767417307 C1.95823727,0.767417307 1.20594148,0.858146447 0.487669126,0.960216729 L0.404500748,0.234383611 C1.17191806,0.113411425 1.9506765,0 2.90711285,0 Z M4.57048041,3.30783322 C3.79928273,3.32295474 2.72187419,3.34563703 2.01494298,3.4892915 C1.24752567,3.64428711 0.911071778,3.95049796 0.911071778,4.88047164 C0.911071778,5.91629599 1.45544662,6.16580112 2.72187419,6.16580112 C3.30783322,6.16580112 3.96561948,6.09019351 4.54401775,5.86337066 C4.56291965,5.54203829 4.57048041,5.12241601 4.57048041,4.80486403 Z"></path></clipPath><clipPath id="i48"><path d="M2.5630982,0 C2.78614067,0 2.99406161,0.00756076165 3.19064141,0.0302430466 L3.1150338,0.809001496 C2.94869704,0.790099592 2.76723876,0.78253883 2.5630982,0.78253883 C2.04518603,0.78253883 1.3987409,0.880828732 0.941314825,1.08874968 C0.922412921,1.40630167 0.914852159,1.82970432 0.914852159,2.14725631 L0.914852159,6.82358739 L0,6.82358739 L0,1.68983023 C0,1.29667062 0.0113411425,0.911071778 0.0378038082,0.540594458 C0.778758449,0.151215233 1.71629289,0 2.5630982,0 Z"></path></clipPath><clipPath id="i49"><path d="M2.9562578,0 C5.12997678,0 5.91251561,0.971557871 5.91251561,3.45526807 C5.91251561,5.92763713 5.12997678,6.91431652 2.9562578,6.91431652 C0.786319211,6.91431652 0,5.97678208 0,3.45526807 C0,0.937534444 0.786319211,0 2.9562578,0 Z M2.9562578,0.774978069 C1.44032509,0.774978069 0.926193302,1.31935291 0.926193302,3.45526807 C0.926193302,5.58740286 1.44032509,6.13933846 2.9562578,6.13933846 C4.4948728,6.13933846 4.99010269,5.50423448 4.99010269,3.45526807 C4.99010269,1.41008205 4.50621394,0.774978069 2.9562578,0.774978069 Z"></path></clipPath><clipPath id="i50"><path d="M0.914852159,0 L0.914852159,2.78992105 C1.51215233,2.62358429 2.13969555,2.51395325 2.87308943,2.51017287 C5.17156097,2.49883172 5.47021105,3.49307188 5.47021105,4.91827545 L5.47021105,9.33376025 L4.55535889,9.33376025 L4.55535889,5.10729449 C4.55535889,3.83330615 4.30963414,3.28893132 2.59712163,3.28893132 C2.07164869,3.28893132 1.43654471,3.39478198 0.914852159,3.58380102 L0.914852159,9.33376025 L0,9.33376025 L0,0 L0.914852159,0 Z"></path></clipPath><clipPath id="i51"><path d="M0.914852159,0 L0.914852159,2.76345838 C1.50837195,2.60846277 2.13591516,2.51017287 2.77479952,2.51017287 C4.78596212,2.51017287 5.598744,3.3910016 5.598744,5.96544094 C5.598744,8.58902523 4.70279374,9.42448939 2.5630982,9.42448939 C1.71629289,9.42448939 0.774978069,9.27327416 0.0340234274,8.88389493 C0.0113411425,8.51341761 0,8.12781877 0,7.73465916 L0,0 L0.914852159,0 Z M2.47992982,3.27002941 C1.96579803,3.27002941 1.33069405,3.3910016 0.914852159,3.53465607 L0.914852159,7.30369575 C0.914852159,7.62124774 0.922412921,8.04087001 0.941314825,8.36220238 C1.3987409,8.57012333 2.04140564,8.66463285 2.5630982,8.66463285 C4.2378069,8.66463285 4.67633108,7.77246297 4.67633108,5.96544094 C4.67633108,4.07903091 4.35121833,3.27002941 2.47992982,3.27002941 Z"></path></clipPath><clipPath id="i52"><path d="M3.07344961,0 C5.36814077,0 5.60252438,1.0849693 5.60252438,2.44968677 L5.60252438,6.82358739 L4.68389184,6.82358739 L4.68389184,2.61602353 C4.68389184,1.34581557 4.45706899,0.771197688 2.76723876,0.771197688 C2.2077424,0.771197688 1.3609371,0.911071778 0.941314825,1.10009082 C0.922412921,1.41764281 0.914852159,1.83726508 0.914852159,2.15481707 L0.914852159,6.82358739 L0,6.82358739 L0,1.71251251 C0,1.31935291 0.0113411425,0.933754063 0.0340234274,0.563276743 C0.797660354,0.23060323 1.86372775,0 3.07344961,0 Z"></path></clipPath><clipPath id="i53"><path d="M2.34761649,0 C3.1944218,0 3.82196501,0.0756076165 4.54023737,0.223042469 L4.44950823,0.933754063 C3.94671758,0.846805304 3.37966046,0.771197688 2.76345838,0.771197688 C1.99226069,0.771197688 0.937534444,0.790099592 0.937534444,1.71629289 C0.937534444,2.61602353 1.62934413,2.71431343 2.59712163,3.01296352 C3.95049796,3.43258579 4.71413489,3.77660044 4.71413489,5.02034573 C4.71413489,6.5060354 3.61026369,6.91431652 2.14347593,6.91431652 C1.42142319,6.91431652 0.710711595,6.84626967 0,6.69127406 L0.0907291397,5.96922132 C0.64266474,6.05995046 1.26264719,6.12799731 1.82214356,6.12799731 L2.0457484,6.12720488 C2.81432169,6.11928057 3.77660044,6.03211311 3.77660044,5.07327106 C3.77660044,4.218905 3.17930027,4.06768977 2.1283544,3.75391816 C2.08233238,3.74011155 2.03632464,3.72643357 1.99041695,3.71278543 L1.71685745,3.63046404 C0.813567967,3.35198292 0.0189019041,3.00638894 0.0189019041,1.80324165 C0.0189019041,0.396939986 0.990459776,0 2.34761649,0 Z"></path></clipPath><clipPath id="i54"><path d="M1.01314206,2.69163115 L1.01314206,9.42448939 L0.0945095206,9.42448939 L0.0945095206,2.69163115 L1.01314206,2.69163115 Z M0.5519356,0 C0.979118633,0 1.10765158,0.177677899 1.10765158,0.672907786 C1.10765158,1.16813767 0.990459776,1.33825481 0.5519356,1.33825481 C0.113411425,1.33825481 0,1.16813767 0,0.672907786 C0,0.177677899 0.124752567,0 0.5519356,0 Z"></path></clipPath><clipPath id="i55"><path d="M3.0356458,0 C3.88623149,0 4.82376593,0.151215233 5.56472057,0.540594458 C5.58740286,0.911071778 5.60252438,1.29667062 5.60252438,1.68983023 L5.60252438,7.34906032 C5.60252438,9.0275494 4.46841013,9.39424634 3.0356458,9.39424634 C2.07920945,9.39424634 1.24752567,9.27705454 0.480108364,9.15230197 L0.563276743,8.42268847 C1.2815491,8.53231952 2.07920945,8.62682904 2.85418752,8.62682904 C4.31341452,8.62682904 4.68767222,8.17318334 4.68767222,7.06931214 L4.68767222,6.50981578 C4.09037205,6.66481139 3.46660921,6.76310129 2.82772486,6.76310129 C0.831683781,6.76310129 0,5.92385675 0,3.38344084 C0,0.8279034 0.914852159,0 3.0356458,0 Z M3.0356458,0.759856545 C1.379839,0.759856545 0.926193302,1.63312452 0.926193302,3.38344084 C0.926193302,5.22826668 1.26642758,6.00324475 3.11881418,6.00324475 C3.63672635,6.00324475 4.26804995,5.88227256 4.68767222,5.73861809 L4.68767222,2.12079364 C4.68767222,1.80324165 4.67633108,1.38361938 4.66120955,1.06228701 C4.20378347,0.854366066 3.55733835,0.759856545 3.0356458,0.759856545 Z"></path></clipPath><clipPath id="i56"><path d="M5.60252438,0 L5.60252438,7.73465916 C5.60252438,8.12781877 5.58740286,8.51341761 5.56472057,8.88389493 C4.82376593,9.27327416 3.88623149,9.42448939 3.0356458,9.42448939 C0.899730636,9.42448939 0,8.58902523 0,5.96544094 C0,3.3910016 0.816562258,2.51017287 2.82394447,2.51017287 C3.46660921,2.51017287 4.09037205,2.60846277 4.68767222,2.76345838 L4.68767222,0 L5.60252438,0 Z M3.11881418,3.27002941 C1.24752567,3.27002941 0.926193302,4.07903091 0.926193302,5.96544094 C0.926193302,7.77246297 1.36471748,8.66463285 3.0356458,8.66463285 C3.55733835,8.66463285 4.20378347,8.57012333 4.66120955,8.36220238 C4.67633108,8.04087001 4.68767222,7.62124774 4.68767222,7.30369575 L4.68767222,3.53465607 C4.26804995,3.3910016 3.63672635,3.27002941 3.11881418,3.27002941 Z"></path></clipPath><clipPath id="i57"><path d="M7.02016719,0 C9.03889055,0 9.33754063,1.11899272 9.33754063,2.44968677 L9.33754063,6.82358739 L8.42268847,6.82358739 L8.42268847,2.61224315 C8.42268847,1.33447443 8.10513648,0.774978069 6.73285825,0.774978069 C6.24518912,0.774978069 5.53825791,0.914852159 4.96364002,1.22106301 C5.08839259,1.58397956 5.1261964,2.00360184 5.1261964,2.44968677 L5.1261964,6.82358739 L4.20756386,6.82358739 L4.20756386,2.61224315 C4.20756386,1.33447443 3.89379225,0.774978069 2.51773363,0.774978069 C2.09433098,0.774978069 1.35715672,0.914852159 0.941314825,1.10009082 C0.922412921,1.41764281 0.914852159,1.83726508 0.914852159,2.15481707 L0.914852159,6.82358739 L0,6.82358739 L0,1.71251251 C0,1.31935291 0.0113411425,0.933754063 0.0378038082,0.563276743 C0.759856545,0.253285515 1.86372775,0 2.80504257,0 C3.65940864,0 4.20378347,0.204140564 4.54779813,0.544374838 C5.22070592,0.215481707 6.09775427,0 7.02016719,0 Z"></path></clipPath><clipPath id="i58"><path d="M2.14725631,0 L2.14725631,1.90153155 L3.64806749,1.90153155 L3.64806749,2.62736467 L2.14725631,2.62736467 L2.14725631,6.83870891 C2.14725631,7.79892564 2.47614944,7.97282316 3.2927117,7.97282316 C3.41746426,7.97282316 3.53843645,7.96526239 3.65940864,7.95392125 L3.73501625,8.6532917 C3.5081934,8.69109551 3.22844522,8.72511894 3.00540275,8.72511894 C1.76165746,8.72511894 1.23240415,8.18830486 1.23240415,6.96346148 L1.23240415,2.62736467 L0,2.62736467 L0,1.90153155 L1.23240415,1.90153155 L1.23240415,0.147434852 L2.14725631,0 Z"></path></clipPath><clipPath id="i59"><path d="M0.5519356,0 C0.979118633,0 1.10765158,0.177677899 1.10765158,0.672907786 C1.10765158,1.16813767 0.990459776,1.33825481 0.5519356,1.33825481 C0.113411425,1.33825481 0,1.16813767 0,0.672907786 C0,0.177677899 0.124752567,0 0.5519356,0 Z"></path></clipPath><clipPath id="i60"><path d="M236,0 C247.045695,-2.02906125e-15 256,8.954305 256,20 C256,31.045695 247.045695,40 236,40 L20,40 C8.954305,40 1.3527075e-15,31.045695 0,20 C-1.3527075e-15,8.954305 8.954305,2.02906125e-15 20,0 L236,0 Z"></path></clipPath><clipPath id="i61"><path d="M14,0 C15.1045695,0 16,0.8954305 16,2 L16,14 C16,15.1045695 15.1045695,16 14,16 L2,16 C0.8954305,16 0,15.1045695 0,14 L0,2 C0,0.8954305 0.8954305,0 2,0 L14,0 Z"></path></clipPath><clipPath id="i62"><path d="M9.49257783,0.18280443 C9.71378466,-0.0514145653 10.0829802,-0.0619630104 10.3171992,0.159243818 C10.5514182,0.380450647 10.5619667,0.749646223 10.3407598,0.983865218 L3.72964873,7.98386522 C3.49851691,8.22859303 3.10879139,8.22744227 2.87910882,7.9813538 L0.156886595,5.06468714 C-0.0629332179,4.82916591 -0.050204706,4.46003906 0.185316522,4.24021925 C0.420837749,4.02039944 0.789964595,4.03312795 1.00978441,4.26864918 L3.30807414,6.73110246 Z"></path></clipPath><clipPath id="i63"><path d="M2.19802142,0 L2.19802142,5.26553043 L7.35014043,5.26553043 L7.35014043,0 L9.55896294,0 L9.55896294,12.5832676 L7.35014043,12.5832676 L7.35014043,7.03690887 L2.19802142,7.03690887 L2.19802142,12.5832676 L0,12.5832676 L0,0 L2.19802142,0 Z"></path></clipPath><clipPath id="i64"><path d="M4.28263142,0 C7.43114859,0 8.56526284,1.3987409 8.56526284,4.93609725 C8.56526284,8.47885413 7.43114859,9.87759504 4.28263142,9.87759504 C1.13411425,9.87759504 0,8.53826012 0,4.93609725 C0,1.33933492 1.13411425,0 4.28263142,0 Z M4.28263142,1.6309643 C2.54365624,1.6309643 2.06840836,2.28443013 2.06840836,4.93609725 C2.06840836,7.59316491 2.54365624,8.24663074 4.28263142,8.24663074 C6.0216066,8.24663074 6.50765556,7.48515403 6.50765556,4.93609725 C6.50765556,2.39244101 6.0216066,1.6309643 4.28263142,1.6309643 Z"></path></clipPath><clipPath id="i65"><path d="M2.05760728,0 L2.05760728,10.7524832 C2.05760728,11.6381724 2.25742741,12.2484339 2.759678,12.9127008 L0.972097926,13.7605862 C0.340234274,13.0423138 0,12.1782268 0,10.8442924 L0,0 L2.05760728,0 Z"></path></clipPath><clipPath id="i66"><path d="M4.14221727,0 C6.25923053,0 8.00360626,0.577858211 8.00360626,3.0297052 L8.00360626,7.26913227 C8.00360626,7.90099592 7.97660354,8.45185141 7.9225981,9.03511017 C6.84788983,9.6399711 5.41674566,9.87759504 3.62376505,9.87759504 C1.02070282,9.87759504 0,8.85689221 0,6.8802931 C0,5.2007239 0.729073444,4.14761782 2.58686059,3.86678953 C3.64536722,3.70477321 4.80648419,3.66156885 5.99460388,3.61296396 C5.99460388,2.27902958 5.41134512,1.60936212 3.94779769,1.60936212 C2.79748181,1.60936212 1.58775995,1.72817409 0.604860932,1.8523866 L0.437444067,0.351035362 C1.47434852,0.178217953 2.73267528,0 4.14221727,0 Z M5.99460388,4.95229888 C5.14671846,4.98470214 4.16381945,5.00090377 3.38074056,5.18452227 C2.38163992,5.41674566 2.02520401,5.72457667 2.02520401,6.84788983 C2.02520401,8.05221115 2.69487147,8.34384053 3.92619551,8.34384053 C4.55265862,8.34384053 5.33033696,8.29523563 5.93519789,8.01440734 C5.97840224,7.62556817 5.99460388,7.15572084 5.99460388,6.72367732 Z"></path></clipPath><clipPath id="i67"><path d="M3.42934546,0 L1.72817409,4.51485481 L0,4.51485481 L1.09631044,0 L3.42934546,0 Z"></path></clipPath><clipPath id="i68"><path d="M2.33303502,0 L5.44914893,10.2610337 L8.5976661,0 L10.8388919,0 L7.18272356,11.2007283 C6.8316882,12.2862377 6.25923053,12.7128807 5.42754675,12.7128807 C4.59046243,12.7128807 4.0234053,12.2862377 3.6669694,11.2007283 L0,0 L2.33303502,0 Z"></path></clipPath><clipPath id="i69"><path d="M2.27902958,3.84518735 L2.27902958,13.4635563 L0.216021761,13.4635563 L0.216021761,3.84518735 L2.27902958,3.84518735 Z M1.24212513,0 C2.19802142,0 2.4896508,0.30783101 2.4896508,1.24752567 C2.4896508,2.18722033 2.21422305,2.49505134 1.24212513,2.49505134 C0.275427746,2.49505134 0,2.18722033 0,1.24752567 C0,0.30783101 0.291629378,0 1.24212513,0 Z"></path></clipPath><clipPath id="i70"><path d="M8.34924107,0 L8.34924107,10.8550935 C8.34924107,11.4869572 8.32223835,12.0378126 8.26823291,12.6210714 C7.19352465,13.2259323 5.74617885,13.4635563 4.48785209,13.4635563 C1.32853383,13.4635563 0,12.2916382 0,8.52205848 C0,4.81188473 1.26912785,3.58596124 4.20162326,3.58596124 C4.87129072,3.58596124 5.64896906,3.68857157 6.30243489,3.8505879 L6.30243489,0 L8.34924107,0 Z M4.68227168,5.17372118 C2.11701326,5.17372118 2.06840836,6.58326318 2.06840836,8.52205848 L2.06883473,8.68755991 C2.07829178,10.3914536 2.26434685,11.8865974 4.48785209,11.8865974 C5.10351411,11.8865974 5.82718701,11.7785865 6.2430289,11.5625648 C6.28623325,11.1737212 6.30243489,10.7038783 6.30243489,10.2718347 L6.30243489,5.44374838 C5.82718701,5.28173206 5.17912173,5.17372118 4.68227168,5.17372118 Z"></path></clipPath><clipPath id="i71"><path d="M3.86138898,0 C4.18002108,0 4.477051,0.0108010881 4.75787929,0.0378038082 L4.59586297,1.66876811 C4.37984121,1.64176539 4.13681673,1.6309643 3.86138898,1.6309643 C3.24572696,1.6309643 2.52205406,1.73897518 2.10621217,1.95499694 C2.06300782,2.34383611 2.04680619,2.81368344 2.04680619,3.24572696 L2.04680619,9.74798198 L0,9.74798198 L0,2.60846277 C0,1.97659912 0.0270027202,1.42574362 0.0810081605,0.842484869 C1.15571642,0.237623937 2.60306222,0 3.86138898,0 Z"></path></clipPath><clipPath id="i72"><path d="M4.28263142,0 C7.74438014,0 8.48425467,1.82538388 8.48425467,4.69307276 C8.48425467,4.92529616 8.47885413,5.1629201 8.45725195,5.40594458 C7.35554097,5.60036416 5.06030976,5.82718701 3.73177593,5.886593 L2.0360051,5.96220061 C2.14401598,7.81458721 3.11071336,8.24663074 4.60126352,8.24663074 C5.886593,8.24663074 7.06391159,8.12241822 8.05221115,7.99820571 L8.22502856,9.52655967 C7.18272356,9.69397654 5.9243968,9.87759504 4.0720102,9.87759504 C0.847885413,9.87759504 0,7.78758449 0,4.93609725 C0,1.4473458 1.08010881,0 4.28263142,0 Z M4.28263142,1.54455559 C2.25742741,1.54455559 1.98199966,2.82448453 1.98199966,4.56345971 L3.91539442,4.47165046 C4.62286569,4.43924719 5.73537776,4.34743795 6.39964468,4.2556287 C6.41584631,4.13141618 6.42124685,3.93159606 6.42124685,3.80738354 C6.42124685,2.34383611 5.88119245,1.54455559 4.28263142,1.54455559 Z"></path></clipPath><clipPath id="i73"><path d="M9.56976403,0 C12.5778671,0 13.0207117,1.63636484 13.0207117,3.58056069 L13.0207117,9.74798198 L10.9685049,9.74798198 L10.9685049,3.801983 C10.9685049,2.36003774 10.6228701,1.62556375 9.06751343,1.62556375 C8.62466882,1.62556375 7.91719755,1.74977627 7.37714315,2.04680619 C7.49595512,2.51665352 7.53375893,3.03510575 7.53375893,3.58056069 L7.53375893,9.74798198 L5.48155219,9.74798198 L5.48155219,3.801983 C5.48155219,2.36003774 5.13591737,1.62556375 3.58056069,1.62556375 C3.09451173,1.62556375 2.46264808,1.76057735 2.10621217,1.94419585 C2.06300782,2.33303502 2.04680619,2.80288235 2.04680619,3.23492588 L2.04680619,9.74798198 L0,9.74798198 L0,2.60846277 C0,1.97659912 0.0270027202,1.42574362 0.0810081605,0.842484869 C1.10171098,0.340234274 2.58686059,0 4.08281129,0 C5.18992282,0 5.95139952,0.226822849 6.46985175,0.604860932 C7.36634206,0.243024481 8.47885413,0 9.56976403,0 Z"></path></clipPath><clipPath id="i74"><path d="M3.47795036,0 C4.80648419,0 5.74617885,0.113411425 6.89649473,0.372637538 L6.70207514,1.87938932 C5.95139952,1.73897518 5.14671846,1.62016321 4.29883305,1.62016321 L4.08343093,1.62080948 C3.29026869,1.62759534 2.13321489,1.70563269 2.13321489,2.60306222 C2.13321489,3.61296396 3.2997324,3.79118191 4.09901292,4.06120911 C5.74077831,4.61746515 7.06931214,4.92529616 7.06931214,7.04230942 C7.06931214,9.26193302 5.42754675,9.87759504 3.32133458,9.87759504 C2.28983067,9.87759504 0.999100646,9.74798198 0,9.49955695 L0.194419585,7.9604019 C0.934294118,8.0954155 1.99820129,8.22502856 2.75427746,8.22502856 C3.51575417,8.22502856 4.98470214,8.25203128 4.98470214,7.11791703 C4.98470214,6.17359334 4.25860451,5.97123826 3.48659438,5.75924722 L3.22849024,5.68719565 L3.09991227,5.64896906 L2.78188491,5.55226413 C1.35972984,5.11678108 0.0864087045,4.64223316 0.0864087045,2.71647365 C0.0864087045,0.604860932 1.57155831,0 3.47795036,0 Z"></path></clipPath><clipPath id="i75"><path d="M3.68317103,0 L3.68317103,2.71647365 L5.68137232,2.71647365 L5.68137232,4.23942707 L3.68317103,4.23942707 L3.68317103,9.66697382 C3.68317103,10.5958674 4.07741074,10.8820962 4.96850051,10.8820962 C5.21692554,10.8820962 5.45454947,10.8712951 5.69757395,10.8550935 L5.85418973,12.3240415 C5.40594458,12.3996491 4.844288,12.4644556 4.40144339,12.4644556 C2.45184699,12.4644556 1.62556375,11.6165702 1.62556375,9.83979123 L1.62556375,4.23942707 L0,4.23942707 L0,2.71647365 L1.62556375,2.71647365 L1.62556375,0.33483373 L3.68317103,0 Z"></path></clipPath><clipPath id="i76"><path d="M2.05220673,0 L2.05220673,5.94599898 C2.05220673,7.47975348 2.31683339,8.12781877 4.27723087,8.12781877 C4.88749235,8.12781877 5.60036416,8.01980789 6.01620605,7.80378613 C6.0594104,7.41494696 6.07561204,6.94509963 6.07561204,6.5130561 L6.07561204,0 L8.12241822,0 L8.12241822,7.13951921 C8.12241822,7.77138286 8.0954155,8.32223835 8.04141006,8.90549711 C6.95050017,9.44015097 5.53015709,9.74798198 3.71557429,9.74798198 C0.340234274,9.74798198 0,8.16562258 0,6.16742129 L0,0 L2.05220673,0 Z"></path></clipPath><clipPath id="i77"><path d="M59.3734336,0 L59.3734336,1.8 L0,1.8 L0,0 L59.3734336,0 Z"></path></clipPath><clipPath id="i78"><path d="M59.3734336,0 L59.3734336,1.8 L0,1.8 L0,0 L59.3734336,0 Z"></path></clipPath><clipPath id="i79"><path d="M14.4,0 C22.3529004,0 28.8,6.4470996 28.8,14.4 C28.8,22.3529004 22.3529004,28.8 14.4,28.8 C6.4470996,28.8 0,22.3529004 0,14.4 C0,6.4470996 6.4470996,0 14.4,0 Z"></path></clipPath><clipPath id="i80"><path d="M4.81620517,0 C5.31143506,0 5.70081428,0.332673512 5.70081428,1.01692244 L5.70081428,5.36436039 L6.74797977,5.36436039 L6.74797977,6.71017596 L5.70081428,6.71017596 L5.70081428,8.6343898 L4.00720367,8.6343898 L4.00720367,6.71017596 L1.13411425,6.71017596 C0.253285515,6.71017596 0,6.34347902 0,5.81044532 C0,5.56472057 0.0491449507,5.19802363 0.612421693,4.47597089 L3.4703896,0.797660354 C3.96939986,0.158775995 4.32097528,0 4.81620517,0 Z M4.01476443,2.29091078 L1.71629289,5.36436039 L4.01476443,5.36436039 L4.01476443,2.29091078 Z"></path></clipPath><clipPath id="i81"><path d="M2.69919191,0 C4.34365757,0 5.84068837,0.347795036 5.84068837,2.21152278 C5.84068837,3.06210847 5.46265029,3.7463574 4.65364879,4.13573662 C5.519356,4.47219051 5.9730017,5.01656535 5.9730017,5.99946437 C5.9730017,8.09379534 4.71791527,8.72511894 2.65382734,8.72511894 C1.62556375,8.72511894 0.793879973,8.58524485 0,8.43402962 L0.189019041,7.08443366 C0.892169874,7.1751628 1.67848909,7.2734527 2.33627535,7.2734527 C3.58380102,7.2734527 4.16597967,7.08443366 4.16597967,6.06373084 C4.16597967,5.37948191 3.85220806,5.03546726 3.24734713,4.95985964 C2.69541153,4.8880324 2.15481707,4.86535012 1.47434852,4.86535012 L1.31935291,4.86535012 L1.31935291,3.59136178 C1.98469993,3.57624026 2.64626658,3.51197378 3.24734713,3.42502503 C3.8446473,3.33807627 4.07147015,2.98272047 4.07147015,2.39298106 C4.07147015,1.51593271 3.43258579,1.42520357 2.55931782,1.42520357 C1.80702203,1.42520357 1.03204396,1.51593271 0.264626658,1.61422261 L0.0869487589,0.287308943 C0.843024923,0.13987409 1.72763404,0 2.69919191,0 Z"></path></clipPath><clipPath id="i82"><path d="M2.94869704,0 C4.6725507,0 6.00324475,0.449865318 6.00324475,2.18127973 C6.00324475,3.75769854 5.17156097,4.72925641 3.5081934,5.38326229 C2.29847154,5.85959028 2.08677021,6.27543217 1.96579803,7.14113937 L5.99946437,7.14113937 L5.99946437,8.6343898 L0,8.6343898 C0.480108364,5.92763713 0.691809691,4.9485185 2.68407038,4.10171319 C3.75013778,3.64806749 4.24914804,3.27380979 4.24914804,2.4837102 C4.24914804,1.62934413 3.77282006,1.44788586 2.21530316,1.44788586 C1.67848909,1.44788586 0.895950255,1.53105423 0.302430466,1.62934413 L0.13987409,0.291089323 C0.948875587,0.13609371 1.92043346,0 2.94869704,0 Z"></path></clipPath><clipPath id="i83"><path d="M3.68209092,0 L3.68209092,8.54366066 L1.95823727,8.54366066 L1.95823727,1.73141442 C1.49325042,1.84860622 0.722052737,1.98469993 0.0756076165,2.05652717 L0,0.676688167 C1.03582435,0.521692554 1.78055937,0.249505134 2.31737344,0 L3.68209092,0 Z"></path></clipPath><clipPath id="i84"><path d="M274,0 C290.568542,-3.04359188e-15 304,13.4314575 304,30 C304,46.5685425 290.568542,60 274,60 L30,60 C13.4314575,60 2.02906125e-15,46.5685425 0,30 C-2.02906125e-15,13.4314575 13.4314575,3.04359188e-15 30,0 L274,0 Z"></path></clipPath><clipPath id="i85"><path d="M304,0 L304,48 L0,48 L0,0 L304,0 Z"></path></clipPath><clipPath id="i86"><path d="M15,10 C15.5522848,10 16,10.4477153 16,11 C16,11.5522848 15.5522848,12 15,12 L1,12 C0.447715252,12 0,11.5522848 0,11 C0,10.4477153 0.447715252,10 1,10 L15,10 Z M15,5.00000002 C15.5522848,5.00000002 16,5.44771527 16,6.00000002 C16,6.55228478 15.5522848,7.00000002 15,7.00000002 L1,7.00000002 C0.447715252,7.00000002 0,6.55228478 0,6.00000002 C0,5.44771527 0.447715252,5.00000002 1,5.00000002 L15,5.00000002 Z M15,0 C15.5522848,0 16,0.447715252 16,1 C16,1.55228476 15.5522848,2 15,2 L1,2 C0.447715252,2 0,1.55228476 0,1 C0,0.447715252 0.447715252,0 1,0 L15,0 Z"></path></clipPath><clipPath id="i87"><path d="M43.7636111,0 C45.2376066,0 46.2796894,0.208402507 47.6140579,0.640627437 C49.6716942,1.30695474 49.9216265,2.42559958 49.7852575,3.09613231 C49.6460959,3.78255223 49.1606595,5.43201602 49.1606595,5.43201602 C47.8663173,4.27131685 45.611807,3.94469499 44.3584221,3.94469499 C39.5561847,3.94469499 37.4594528,8.78608148 37.4594528,12.0289366 C37.4594528,15.173665 39.2787924,17.1843287 42.3999209,17.1843287 C43.6849546,17.1843287 45.0891366,16.9679826 46.9829439,15.5736483 L46.2405938,18.9230411 C46.2405938,18.9230411 46.0344113,20.0342096 44.8042976,20.4659673 C43.8050338,20.8421198 42.7508501,21.0131407 41.153052,21.0131407 C36.7022092,21.0131407 32.3588791,18.8132326 32.3588791,12.2948134 C32.3588791,6.1974046 36.2507486,0 43.7636111,0 Z M58.836344,0.420402994 C64.2608523,0.441897423 66.7476088,2.50115717 66.7476088,6.09072681 C66.7476088,9.37984171 64.1384459,14.2193591 56.6358227,14.2193591 C55.8674089,14.2193591 55.2065078,14.1319796 54.729449,14.1002052 C54.729449,14.1002052 54.4387946,15.4176738 54.1391558,16.7707936 L54.0492763,17.1765172 C53.9447597,17.6481184 53.8425929,18.1083845 53.7548526,18.5023577 C53.2968761,20.5513375 51.9550608,20.8307651 51.243894,20.8307651 L48.4639208,20.8307651 L52.8719447,0.908233078 C54.6950076,0.485353552 56.6139478,0.401712187 58.836344,0.420402994 Z M23.223458,0.317416643 C27.9070124,0.317416643 31.0104548,1.97575857 31.0104548,5.0793672 C31.0104548,7.98532054 28.1839393,9.5646938 26.0443885,9.92262277 C27.7399255,10.0483185 29.8315377,11.3468623 29.8315377,14.3215044 C29.8315377,17.31437 27.299635,21.2628031 18.5426961,20.7768421 C17.5164377,20.7193679 16.8857892,20.6352593 15.9600623,20.4095678 C12.6616075,19.6039939 13.8219078,15.7420058 13.8219078,15.7420058 L17.178075,0.797303134 C19.0248746,0.498717479 21.0960082,0.317416643 23.223458,0.317416643 Z M21.0341069,11.6085336 L19.5093802,11.6085336 L18.4035345,16.562065 C18.4035345,16.562065 18.2438943,17.3129682 18.9424947,17.3751151 C19.2957509,17.3863296 19.6713475,17.3863296 20.0660265,17.3863296 C22.5848972,17.3863296 24.8892079,16.4676764 24.9408699,14.2112286 C24.988343,12.2113122 23.1950672,11.6085336 21.0341069,11.6085336 Z M59.2189219,3.83381177 C58.3290326,3.83381177 57.6611502,3.87586609 57.2743834,3.93287305 L56.048924,9.48778113 C56.048924,9.48778113 55.6537796,10.6685729 57.0644775,10.6685729 C57.2385459,10.6760492 57.4275077,10.6811892 57.6355519,10.6811892 C60.78926,10.6568912 62.408933,8.59202416 62.408933,6.45426302 C62.408933,4.35107987 60.9614666,3.83381177 59.2189219,3.83381177 Z M4.84645259,1.88978085 C6.70349146,2.72853085 6.89245331,6.57836999 5.7284297,9.42591455 C4.04918251,7.59795355 2.27778152,6.49285954 0.96994211,5.86297932 L0.865185511,5.81055744 C0.670384053,5.71278115 0.249583232,5.50014401 0,5.36346748 C0.350256873,4.5731059 0.780384115,3.94579999 0.992317701,3.6582814 L1.07355481,3.55035096 C1.1053415,3.50909273 1.12306637,3.48737765 1.12306637,3.48737765 C1.21335848,3.36915829 3.14626135,1.08887974 4.84645259,1.88978085 Z M73.8348418,1.88978085 C75.6918807,2.72853085 75.8808425,6.57836999 74.7168189,9.42591455 C73.0375717,7.59795355 71.2661707,6.49285954 69.9583313,5.86297932 L69.9456019,5.85663115 L69.8535747,5.81055744 C69.7669963,5.76710131 69.635776,5.70095662 69.4947862,5.62887587 L69.2803332,5.51839675 C69.1738022,5.46302524 69.0715836,5.40902632 68.9883892,5.36346748 C69.3386461,4.5731059 69.7687733,3.94579999 69.9807069,3.6582814 L70.061944,3.55035096 C70.0937307,3.50909273 70.1114556,3.48737765 70.1114556,3.48737765 C70.2017477,3.36915829 72.1346506,1.08887974 73.8348418,1.88978085 Z M23.2830322,3.67708935 C22.4745919,3.67708935 21.6256599,3.73175996 21.2686802,3.78783238 L20.4220753,7.63813879 C20.4220753,7.63813879 20.2117039,8.46240341 20.9289212,8.46240341 L21.9165494,8.46240341 C24.4572951,8.46240341 26.2170605,7.47459422 26.2612757,5.73448001 C26.2971133,4.29902597 25.0516406,3.67708935 23.2830322,3.67708935 Z"></path></clipPath><clipPath id="i88"><path d="M7.269,0.085 L7.36181618,0.134910969 C8.13178078,0.550052013 9.53172803,1.4021221 10.8088495,2.54475348 C12.2423532,3.76479596 13.48131,5.36472911 13.4547808,5.34416922 C13.6060434,5.55023538 15.4016464,7.79406685 13.7479975,10.447227 C11.937501,13.3503767 6.99842913,16.6595843 5.59890134,17.1558252 C2.87710601,18.2992354 1.03449526,16.1787632 0.877182192,15.9563426 C0.369405397,15.299828 0.246068228,15.1610487 0.000324737984,14.6820968 C-0.0476138596,14.7615327 5.22516645,12.2990188 7.11431953,9.11317061 C9.0713637,6.49580741 9.31954605,1.47107169 7.38189825,0.155789696 L7.269,0.085 Z M76.256,0.085 L76.3502054,0.134910969 C77.12017,0.550052013 78.5201172,1.4021221 79.7972387,2.54475348 C81.2307424,3.76479596 82.4701646,5.36472911 82.44317,5.34416922 C82.5944326,5.55023538 84.3900356,7.79406685 82.7363867,10.447227 C80.9263556,13.3503767 75.9868183,16.6595843 74.5872905,17.1558252 C71.8654952,18.2992354 70.0228845,16.1787632 69.8655714,15.9563426 C69.3577946,15.299828 69.2344574,15.1610487 68.9887139,14.6820968 C68.9407753,14.7615327 74.2140211,12.2990188 76.1027087,9.11317061 C78.0597529,6.49580741 78.3079352,1.47107169 76.3702874,0.155789696 L76.256,0.085 Z"></path></clipPath></defs><g transform="translate(16.0 13.0)"><path d="M280,3 C290.217268,3 299.467268,7.14136606 306.162951,13.8370491 C312.858634,20.5327321 317,29.7827321 317,40 L317,580 C317,590.217268 312.858634,599.467268 306.162951,606.162951 C299.467268,612.858634 290.217268,617 280,617 L40,617 C29.7827321,617 20.5327321,612.858634 13.8370491,606.162951 C7.14136606,599.467268 3,590.217268 3,580 L3,40 C3,29.7827321 7.14136606,20.5327321 13.8370491,13.8370491 C20.5327321,7.14136606 29.7827321,3 40,3 Z" stroke="none" fill="#000000" filter="url(#i0)"></path><path d="M280,-2 C291.59798,-2 302.09798,2.70101013 309.698485,10.3015152 C317.29899,17.9020203 322,28.4020203 322,40 L322,580 C322,591.59798 317.29899,602.09798 309.698485,609.698485 C302.09798,617.29899 291.59798,622 280,622 L40,622 C28.4020203,622 17.9020203,617.29899 10.3015152,609.698485 C2.70101013,602.09798 -2,591.59798 -2,580 L-2,40 C-2,28.4020203 2.70101013,17.9020203 10.3015152,10.3015152 C17.9020203,2.70101013 28.4020203,-2 40,-2 Z" stroke="none" fill="#000000" filter="url(#i3)"></path><path d="M280,-1 C291.321837,-1 301.571837,3.58908131 308.991378,11.008622 C316.410919,18.4281626 321,28.6781626 321,40 L321,580 C321,591.321837 316.410919,601.571837 308.991378,608.991378 C301.571837,616.410919 291.321837,621 280,621 L40,621 C28.6781626,621 18.4281626,616.410919 11.008622,608.991378 C3.58908131,601.571837 -1,591.321837 -1,580 L-1,40 C-1,28.6781626 3.58908131,18.4281626 11.008622,11.008622 C18.4281626,3.58908131 28.6781626,-1 40,-1 Z" stroke="none" fill="#000000" filter="url(#i6)"></path><g clip-path="url(#i9)"><polygon points="0,0 320,0 320,620 0,620 0,0" stroke="none" fill="#FFFFFF"></polygon></g><g clip-path="url(#i9)"><polygon points="0,0 320,0 320,620 0,620 0,0" stroke="none" fill="#FFFFFF"></polygon><path d="M40,0 L280,0 C302.09139,-4.05812251e-15 320,17.90861 320,40 L320,580 C320,602.09139 302.09139,620 280,620 L40,620 C17.90861,620 2.705415e-15,602.09139 0,580 L0,40 C-2.705415e-15,17.90861 17.90861,4.05812251e-15 40,0 Z" stroke="#F2F3F8" stroke-width="16" fill="none" stroke-miterlimit="5"></path></g><g transform="translate(8.0 8.0)"><g clip-path="url(#i10)"><polygon points="0,0 304,0 304,604 0,604 0,0" stroke="none" fill="#FFFFFF"></polygon><g transform="translate(-8.0 -8.0)"><g transform="translate(8.0 8.0)"><g clip-path="url(#i10)"><polygon points="0,0 304,0 304,604 0,604 0,0" stroke="none" fill="#FFFFFF"></polygon></g></g><g transform="translate(32.0 229.0)"><g transform="translate(0.0 8.0)"><g clip-path="url(#i11)"><polygon points="0,0 256,0 256,48 0,48 0,0" stroke="none" fill="#BFC3CC"></polygon></g></g><g transform="translate(16.0 61.0)"></g><g transform="translate(16.868887528777122 26.03239442408085)"><g transform="translate(0.0 3.3027327060699463)"><g clip-path="url(#i12)"><polygon points="0,0 5.96220061,0 5.96220061,8.78008448 0,8.78008448 0,0" stroke="none" fill="#202E44"></polygon></g></g><g transform="translate(7.565556548582663 3.3027327060699463)"><g clip-path="url(#i13)"><polygon points="0,0 7.61356696,0 7.61356696,8.78008448 0,8.78008448 0,0" stroke="none" fill="#202E44"></polygon></g></g><g transform="translate(17.19051925701638 3.3027327060699463)"><g clip-path="url(#i14)"><polygon points="0,0 4.22922604,0 4.22922604,8.66487287 0,8.66487287 0,0" stroke="none" fill="#202E44"></polygon></g></g><g transform="translate(22.86468667375811 3.3027327060699463)"><g clip-path="url(#i14)"><polygon points="0,0 4.22922604,0 4.22922604,8.66487287 0,8.66487287 0,0" stroke="none" fill="#202E44"></polygon></g></g><g transform="translate(28.236423624682175 3.3027327060699463)"><g clip-path="url(#i15)"><polygon points="0,0 7.54155971,0 7.54155971,8.78008448 0,8.78008448 0,0" stroke="none" fill="#202E44"></polygon></g></g><g transform="translate(37.45814580750857 3.3027327060699463)"><g clip-path="url(#i13)"><polygon points="0,0 7.61356696,0 7.61356696,8.78008448 0,8.78008448 0,0" stroke="none" fill="#202E44"></polygon></g></g><g transform="translate(46.74707466503401 1.9825997203588495)"><g clip-path="url(#i16)"><polygon points="0,0 12.8268921,0 12.8268921,11.41555 0,11.41555 0,0" stroke="none" fill="#202E44"></polygon></g></g><g transform="translate(61.47014723042183 3.3027327060699463)"><g clip-path="url(#i17)"><polygon points="0,0 11.5739659,0 11.5739659,8.66487287 0,8.66487287 0,0" stroke="none" fill="#202E44"></polygon></g></g><g transform="translate(74.94029393038386 3.3027327060699463)"><g clip-path="url(#i18)"><polygon points="0,0 7.11431667,0 7.11431667,8.78008448 0,8.78008448 0,0" stroke="none" fill="#202E44"></polygon></g></g><g transform="translate(84.11881195545243 0.0)"><g clip-path="url(#i19)"><polygon points="0,0 2.21302293,0 2.21302293,11.9676056 0,11.9676056 0,0" stroke="none" fill="#202E44"></polygon></g></g><g transform="translate(88.28562864419337 0.1152116060256958)"><g clip-path="url(#i20)"><polygon points="0,0 2.45304711,0 2.45304711,12.2316322 0,12.2316322 0,0" stroke="none" fill="#202E44"></polygon></g></g><g transform="translate(92.23642368126457 9.864993765950203)"><g clip-path="url(#i21)"><polygon points="0,0 2.21302293,0 2.21302293,2.21782342 0,2.21782342 0,0" stroke="none" fill="#202E44"></polygon></g></g><g transform="translate(96.24002400240033 3.3027327060699463)"><g clip-path="url(#i12)"><polygon points="0,0 5.96220061,0 5.96220061,8.78008448 0,8.78008448 0,0" stroke="none" fill="#202E44"></polygon></g></g><g transform="translate(103.805580550983 3.3027327060699463)"><g clip-path="url(#i22)"><polygon points="0,0 7.61356696,0 7.61356696,8.78008448 0,8.78008448 0,0" stroke="none" fill="#202E44"></polygon></g></g><g transform="translate(113.4449447101697 3.3027327060699463)"><g clip-path="url(#i17)"><polygon points="0,0 11.5739659,0 11.5739659,8.66487287 0,8.66487287 0,0" stroke="none" fill="#202E44"></polygon></g></g></g><g transform="translate(11.0 0.0)"><g clip-path="url(#i23)"><g transform="translate(-11.0 0.0)"><g transform="translate(16.90009067207575 2.0242958180606365)"><g transform="translate(33.0960793279246 5.975704181939363)"><g clip-path="url(#i24)"><polygon points="0,0 198.00383,0 198.00383,1 0,1 0,0" stroke="none" fill="#BFC3CC"></polygon></g></g><g transform="translate(0.0 0.56525694206357)"><g clip-path="url(#i25)"><polygon points="0,0 5.08011175,0 5.08011175,8.43204942 0,8.43204942 0,0" stroke="none" fill="#606C7F"></polygon></g></g><g transform="translate(6.664266405424314 2.4770495295524597)"><g clip-path="url(#i26)"><polygon points="0,0 8.68047444,0 8.68047444,6.49865465 0,6.49865465 0,0" stroke="none" fill="#606C7F"></polygon></g></g><g transform="translate(16.76687643039577 2.4770495295524597)"><g clip-path="url(#i27)"><polygon points="0,0 5.3357375,0 5.3357375,6.58506336 0,6.58506336 0,0" stroke="none" fill="#606C7F"></polygon></g></g><g transform="translate(23.65076494919731 0.0)"><g clip-path="url(#i28)"><polygon points="0,0 1.6597672,0 1.6597672,8.97570418 0,8.97570418 0,0" stroke="none" fill="#606C7F"></polygon></g></g><g transform="translate(26.77587746575296 0.08640870451927185)"><g clip-path="url(#i29)"><polygon points="0,0 1.83978533,0 1.83978533,9.17372413 0,9.17372413 0,0" stroke="none" fill="#606C7F"></polygon></g></g></g></g></g></g></g><g transform="translate(32.0 313.0)"><g transform="translate(0.0 8.0)"><g clip-path="url(#i11)"><polygon points="0,0 256,0 256,48 0,48 0,0" stroke="none" fill="#BFC3CC"></polygon></g></g><g transform="translate(16.0 61.0)"></g><g transform="translate(16.705671086907394 27.035695493221276)"><g clip-path="url(#i30)"><polygon points="0,0 8.05041097,0 8.05041097,11.0795161 0,11.0795161 0,0" stroke="none" fill="#202E44"></polygon></g><g transform="translate(9.687368736873623 0.0)"><g clip-path="url(#i31)"><polygon points="0,0 8.05041097,0 8.05041097,11.0795161 0,11.0795161 0,0" stroke="none" fill="#202E44"></polygon></g></g><g transform="translate(19.14431426169608 0.1152116060256958)"><g clip-path="url(#i32)"><polygon points="0,0 7.54636019,0 7.54636019,10.8490929 0,10.8490929 0,0" stroke="none" fill="#202E44"></polygon></g></g><g transform="translate(27.74677474112286 0.1152116060256958)"><g clip-path="url(#i33)"><polygon points="0,0 7.44555004,0 7.44555004,10.9643045 0,10.9643045 0,0" stroke="none" fill="#202E44"></polygon></g></g><g transform="translate(36.84368446745611 0.0)"><g clip-path="url(#i34)"><polygon points="0,0 8.04081,0 8.04081,11.0795161 0,11.0795161 0,0" stroke="none" fill="#202E44"></polygon></g></g><g transform="translate(46.69426962498096 0.0)"><g clip-path="url(#i35)"><polygon points="0,0 8.00240614,0 8.00240614,11.0795161 0,11.0795161 0,0" stroke="none" fill="#202E44"></polygon></g></g><g transform="translate(56.41044107239554 0.0)"><g clip-path="url(#i36)"><polygon points="0,0 7.46475197,0 7.46475197,10.9643045 0,10.9643045 0,0" stroke="none" fill="#202E44"></polygon></g></g><g transform="translate(64.94569420874427 0.1152116060256958)"><g clip-path="url(#i37)"><polygon points="0,0 4.4452478,0 4.4452478,10.8490929 0,10.8490929 0,0" stroke="none" fill="#202E44"></polygon></g></g></g><g transform="translate(11.0 0.0)"><g clip-path="url(#i23)"><g transform="translate(-11.0 0.0)"><g transform="translate(16.694869998842478 2.1107045225799084)"><g transform="translate(41.30130000115787 5.889295477420092)"><g clip-path="url(#i38)"><polygon points="0,0 190.00383,0 190.00383,1 0,1 0,0" stroke="none" fill="#BFC3CC"></polygon></g></g><g transform="translate(0.0 0.4140417091548443)"><g clip-path="url(#i39)"><polygon points="0,0 5.5481589,0 5.5481589,8.56166247 0,8.56166247 0,0" stroke="none" fill="#606C7F"></polygon></g></g><g transform="translate(6.639063861301565 2.390640825033188)"><g clip-path="url(#i40)"><polygon points="0,0 5.65616978,0 5.65616978,6.58506336 0,6.58506336 0,0" stroke="none" fill="#606C7F"></polygon></g></g><g transform="translate(13.64536456562882 0.0)"><g clip-path="url(#i29)"><polygon points="0,0 1.83978533,0 1.83978533,9.17372413 0,9.17372413 0,0" stroke="none" fill="#606C7F"></polygon></g></g><g transform="translate(16.74527462558785 2.4770495295524597)"><g clip-path="url(#i41)"><polygon points="0,0 5.41494548,0 5.41494548,6.49865465 0,6.49865465 0,0" stroke="none" fill="#606C7F"></polygon></g></g><g transform="translate(23.76237626679904 0.0)"><g clip-path="url(#i29)"><polygon points="0,0 1.83978533,0 1.83978533,9.17372413 0,9.17372413 0,0" stroke="none" fill="#606C7F"></polygon></g></g><g transform="translate(26.58505839975851 2.390640825033188)"><g clip-path="url(#i27)"><polygon points="0,0 5.3357375,0 5.3357375,6.58506336 0,6.58506336 0,0" stroke="none" fill="#606C7F"></polygon></g></g><g transform="translate(33.60216033802726 2.390640825033188)"><g clip-path="url(#i42)"><polygon points="0,0 3.17191953,0 3.17191953,6.49865465 0,6.49865465 0,0" stroke="none" fill="#606C7F"></polygon></g></g></g></g></g></g></g><g transform="translate(65.979118633084 406.5755106089637)"><g transform="translate(0.0869487589225173 0.5254729343578219)"><g clip-path="url(#i43)"><polygon points="0,0 6.49847463,0 6.49847463,8.9897456 0,8.9897456 0,0" stroke="none" fill="#202E44"></polygon></g></g><g transform="translate(8.233663210381337 2.6009020060300827)"><g clip-path="url(#i44)"><polygon points="0,0 5.84068837,0 5.84068837,6.91431652 0,6.91431652 0,0" stroke="none" fill="#202E44"></polygon></g></g><g transform="translate(15.556255477962168 2.6009020060300827)"><g clip-path="url(#i45)"><polygon points="0,0 4.44950823,0 4.44950823,6.91431652 0,6.91431652 0,0" stroke="none" fill="#202E44"></polygon></g></g><g transform="translate(21.31755167162805 0.09072913974523544)"><g clip-path="url(#i46)"><polygon points="0,0 1.459227,0 1.459227,9.63241034 0,9.63241034 0,0" stroke="none" fill="#202E44"></polygon></g></g><g transform="translate(23.85040474251809 2.6009020060300827)"><g clip-path="url(#i47)"><polygon points="0,0 5.47399143,0 5.47399143,6.91431652 0,6.91431652 0,0" stroke="none" fill="#202E44"></polygon></g></g><g transform="translate(31.282628262826165 2.6009020060300827)"><g clip-path="url(#i48)"><polygon points="0,0 3.19064141,0 3.19064141,6.82358739 0,6.82358739 0,0" stroke="none" fill="#202E44"></polygon></g></g><g transform="translate(35.52421228756612 2.6009020060300827)"><g clip-path="url(#i49)"><polygon points="0,0 5.91251561,0 5.91251561,6.91431652 0,6.91431652 0,0" stroke="none" fill="#202E44"></polygon></g></g><g transform="translate(46.82754277098502 0.09072913974523544)"><g clip-path="url(#i50)"><polygon points="0,0 5.47021105,0 5.47021105,9.33376025 0,9.33376025 0,0" stroke="none" fill="#202E44"></polygon></g></g><g transform="translate(53.72673237528147 2.6009020060300827)"><g clip-path="url(#i47)"><polygon points="0,0 5.47399143,0 5.47399143,6.91431652 0,6.91431652 0,0" stroke="none" fill="#202E44"></polygon></g></g><g transform="translate(61.16651665723498 0.09072913974523544)"><g clip-path="url(#i51)"><polygon points="0,0 5.598744,0 5.598744,9.42448939 0,9.42448939 0,0" stroke="none" fill="#202E44"></polygon></g></g><g transform="translate(68.22070191425178 2.6009020060300827)"><g clip-path="url(#i44)"><polygon points="0,0 5.84068837,0 5.84068837,6.91431652 0,6.91431652 0,0" stroke="none" fill="#202E44"></polygon></g></g><g transform="translate(75.74365436543667 2.6009020060300827)"><g clip-path="url(#i48)"><polygon points="0,0 3.19064141,0 3.19064141,6.82358739 0,6.82358739 0,0" stroke="none" fill="#202E44"></polygon></g></g><g transform="translate(83.55769562197656 2.6009020060300827)"><g clip-path="url(#i45)"><polygon points="0,0 4.44950823,0 4.44950823,6.91431652 0,6.91431652 0,0" stroke="none" fill="#202E44"></polygon></g></g><g transform="translate(89.25094496083352 2.6009020060300827)"><g clip-path="url(#i49)"><polygon points="0,0 5.91251561,0 5.91251561,6.91431652 0,6.91431652 0,0" stroke="none" fill="#202E44"></polygon></g></g><g transform="translate(96.94401440422507 2.6009020060300827)"><g clip-path="url(#i52)"><polygon points="0,0 5.60252438,0 5.60252438,6.82358739 0,6.82358739 0,0" stroke="none" fill="#202E44"></polygon></g></g><g transform="translate(104.1834381015469 2.6009020060300827)"><g clip-path="url(#i53)"><polygon points="0,0 4.71413489,0 4.71413489,6.91431652 0,6.91431652 0,0" stroke="none" fill="#202E44"></polygon></g></g><g transform="translate(110.334113319439 0.0)"><g clip-path="url(#i54)"><polygon points="0,0 1.10765158,0 1.10765158,9.42448939 0,9.42448939 0,0" stroke="none" fill="#202E44"></polygon></g></g><g transform="translate(113.0030601055169 2.6009020060300827)"><g clip-path="url(#i55)"><polygon points="0,0 5.60252438,0 5.60252438,9.39424634 0,9.39424634 0,0" stroke="none" fill="#202E44"></polygon></g></g><g transform="translate(120.5978397867634 2.6009020060300827)"><g clip-path="url(#i52)"><polygon points="0,0 5.60252438,0 5.60252438,6.82358739 0,6.82358739 0,0" stroke="none" fill="#202E44"></polygon></g></g><g transform="translate(127.76165586763068 2.6009020060300827)"><g clip-path="url(#i47)"><polygon points="0,0 5.47399143,0 5.47399143,6.91431652 0,6.91431652 0,0" stroke="none" fill="#202E44"></polygon></g></g><g transform="translate(134.8763273988304 0.09072913974523544)"><g clip-path="url(#i56)"><polygon points="0,0 5.60252438,0 5.60252438,9.42448939 0,9.42448939 0,0" stroke="none" fill="#202E44"></polygon></g></g><g transform="translate(142.2934292092584 2.6009020060300827)"><g clip-path="url(#i49)"><polygon points="0,0 5.91251561,0 5.91251561,6.91431652 0,6.91431652 0,0" stroke="none" fill="#202E44"></polygon></g></g><g transform="translate(153.5816381693862 2.6009020060300827)"><g clip-path="url(#i57)"><polygon points="0,0 9.33754063,0 9.33754063,6.82358739 0,6.82358739 0,0" stroke="none" fill="#202E44"></polygon></g></g><g transform="translate(164.7980197100781 0.0)"><g clip-path="url(#i54)"><polygon points="0,0 1.10765158,0 1.10765158,9.42448939 0,9.42448939 0,0" stroke="none" fill="#202E44"></polygon></g></g><g transform="translate(167.4102607838149 2.6009020060300827)"><g clip-path="url(#i53)"><polygon points="0,0 4.71413489,0 4.71413489,6.91431652 0,6.91431652 0,0" stroke="none" fill="#202E44"></polygon></g></g><g transform="translate(176.9594957156621 0.09072913974523544)"><g clip-path="url(#i56)"><polygon points="0,0 5.60252438,0 5.60252438,9.42448939 0,9.42448939 0,0" stroke="none" fill="#202E44"></polygon></g></g><g transform="translate(184.1535550575497 2.6009020060300827)"><g clip-path="url(#i47)"><polygon points="0,0 5.47399143,0 5.47399143,6.91431652 0,6.91431652 0,0" stroke="none" fill="#202E44"></polygon></g></g><g transform="translate(190.9317726955276 0.790099591948092)"><g clip-path="url(#i58)"><polygon points="0,0 3.73501625,0 3.73501625,8.72511894 0,8.72511894 0,0" stroke="none" fill="#202E44"></polygon></g></g><g transform="translate(195.8349233586732 2.6009020060300827)"><g clip-path="url(#i49)"><polygon points="0,0 5.91251561,0 5.91251561,6.91431652 0,6.91431652 0,0" stroke="none" fill="#202E44"></polygon></g></g><g transform="translate(203.1953192896656 2.6009020060300827)"><g clip-path="url(#i53)"><polygon points="0,0 4.71413489,0 4.71413489,6.91431652 0,6.91431652 0,0" stroke="none" fill="#202E44"></polygon></g></g><g transform="translate(0.0 20.60090200603008)"><g clip-path="url(#i48)"><polygon points="0,0 3.19064141,0 3.19064141,6.82358739 0,6.82358739 0,0" stroke="none" fill="#202E44"></polygon></g></g><g transform="translate(4.211340978158205 20.60090200603008)"><g clip-path="url(#i44)"><polygon points="0,0 5.84068837,0 5.84068837,6.91431652 0,6.91431652 0,0" stroke="none" fill="#202E44"></polygon></g></g><g transform="translate(11.32979268131203 20.60090200603008)"><g clip-path="url(#i47)"><polygon points="0,0 5.47399143,0 5.47399143,6.91431652 0,6.91431652 0,0" stroke="none" fill="#202E44"></polygon></g></g><g transform="translate(18.64860477693856 18.09072913974524)"><g clip-path="url(#i46)"><polygon points="0,0 1.459227,0 1.459227,9.63241034 0,9.63241034 0,0" stroke="none" fill="#202E44"></polygon></g></g><g transform="translate(21.37425726978745 20.60090200603008)"><g clip-path="url(#i44)"><polygon points="0,0 5.84068837,0 5.84068837,6.91431652 0,6.91431652 0,0" stroke="none" fill="#202E44"></polygon></g></g><g transform="translate(28.56831658939564 20.60090200603008)"><g clip-path="url(#i53)"><polygon points="0,0 4.71413489,0 4.71413489,6.91431652 0,6.91431652 0,0" stroke="none" fill="#202E44"></polygon></g></g><g transform="translate(34.69630952235138 26.17696371953934)"><g clip-path="url(#i59)"><polygon points="0,0 1.10765158,0 1.10765158,1.33825481 0,1.33825481 0,0" stroke="none" fill="#202E44"></polygon></g></g></g><g transform="translate(32.0 540.0)"><g clip-path="url(#i60)"><polygon points="0,0 256,0 256,40 0,40 0,0" stroke="none" fill="#FF7700"></polygon></g><g transform="translate(92.0 12.0)"><text transform="translate(0.2220222022202165 13.0)" font-family="Flexo-Demi, Flexo" font-size="16.0" font-weight="500" fill="#FFFFFF" text-anchor="center">Continuar</text></g></g><g transform="translate(33.0 403.0)"><g clip-path="url(#i61)"><polygon points="0,0 16,0 16,16 0,16 0,0" stroke="none" fill="#FF7700"></polygon></g><g transform="translate(1.0000000000009095 0.9999999999990905)"><g transform="translate(1.749997832309039 2.9166651761567355)"><g clip-path="url(#i62)"><polygon points="0,2.77555756e-17 10.5000037,2.77555756e-17 10.5000037,8.16666818 0,8.16666818 0,2.77555756e-17" stroke="none" fill="#FFFFFF"></polygon></g></g></g></g><g transform="translate(72.16291653431456 158.6660567838699)"><g transform="translate(68.23042384595101 0.7506756205111742)"><g clip-path="url(#i63)"><polygon points="0,0 9.55896294,0 9.55896294,12.5832676 0,12.5832676 0,0" stroke="none" fill="#002A8D"></polygon></g></g><g transform="translate(80.17101757116711 3.585961237549782)"><g clip-path="url(#i64)"><polygon points="0,0 8.56526284,0 8.56526284,9.87759504 0,9.87759504 0,0" stroke="none" fill="#002A8D"></polygon></g></g><g transform="translate(90.81008157701922 0.0)"><g clip-path="url(#i65)"><polygon points="0,0 2.759678,0 2.759678,13.7605862 0,13.7605862 0,0" stroke="none" fill="#002A8D"></polygon></g></g><g transform="translate(95.04410477645843 3.585961237549782)"><g clip-path="url(#i66)"><polygon points="0,0 8.00360626,0 8.00360626,9.87759504 0,9.87759504 0,0" stroke="none" fill="#002A8D"></polygon></g></g><g transform="translate(104.7542755349609 11.1791261471808)"><g clip-path="url(#i67)"><polygon points="0,0 3.42934546,0 3.42934546,4.51485481 0,4.51485481 0,0" stroke="none" fill="#002A8D"></polygon></g></g><g transform="translate(0.0 22.75067562051117)"><g clip-path="url(#i68)"><polygon points="0,0 10.8388919,0 10.8388919,12.7128807 0,12.7128807 0,0" stroke="none" fill="#002A8D"></polygon></g></g><g transform="translate(11.99459982596341 25.58596123754978)"><g clip-path="url(#i66)"><polygon points="0,0 8.00360626,0 8.00360626,9.87759504 0,9.87759504 0,0" stroke="none" fill="#002A8D"></polygon></g></g><g transform="translate(22.33123369223063 22.0)"><g clip-path="url(#i65)"><polygon points="0,0 2.759678,0 2.759678,13.7605862 0,13.7605862 0,0" stroke="none" fill="#002A8D"></polygon></g></g><g transform="translate(26.82988354926033 21.87038694322109)"><g clip-path="url(#i69)"><polygon points="0,0 2.4896508,0 2.4896508,13.4635563 0,13.4635563 0,0" stroke="none" fill="#002A8D"></polygon></g></g><g transform="translate(31.204320770211552 22.0)"><g clip-path="url(#i70)"><polygon points="0,0 8.34924107,0 8.34924107,13.4635563 0,13.4635563 0,0" stroke="none" fill="#002A8D"></polygon></g></g><g transform="translate(41.69216958293896 25.58596123754978)"><g clip-path="url(#i66)"><polygon points="0,0 8.00360626,0 8.00360626,9.87759504 0,9.87759504 0,0" stroke="none" fill="#002A8D"></polygon></g></g><g transform="translate(52.21782249034231 25.58596123754978)"><g clip-path="url(#i71)"><polygon points="0,0 4.75787929,0 4.75787929,9.74798198 0,9.74798198 0,0" stroke="none" fill="#002A8D"></polygon></g></g><g transform="translate(58.261026560132 25.58596123754978)"><g clip-path="url(#i72)"><polygon points="0,0 8.48425467,0 8.48425467,9.87759504 0,9.87759504 0,0" stroke="none" fill="#002A8D"></polygon></g></g><g transform="translate(68.97569828985638 25.58596123754978)"><g clip-path="url(#i73)"><polygon points="0,0 13.0207117,0 13.0207117,9.74798198 0,9.74798198 0,0" stroke="none" fill="#002A8D"></polygon></g></g><g transform="translate(84.27002747215738 25.58596123754978)"><g clip-path="url(#i64)"><polygon points="0,0 8.56526284,0 8.56526284,9.87759504 0,9.87759504 0,0" stroke="none" fill="#002A8D"></polygon></g></g><g transform="translate(94.70387080477599 25.58596123754978)"><g clip-path="url(#i74)"><polygon points="0,0 7.06931214,0 7.06931214,9.87759504 0,9.87759504 0,0" stroke="none" fill="#002A8D"></polygon></g></g><g transform="translate(107.7245725089656 22.99910064600408)"><g clip-path="url(#i75)"><polygon points="0,0 5.85418973,0 5.85418973,12.4644556 0,12.4644556 0,0" stroke="none" fill="#002A8D"></polygon></g></g><g transform="translate(115.3069313654273 25.71557429432869)"><g clip-path="url(#i76)"><polygon points="0,0 8.12241822,0 8.12241822,9.74798198 0,9.74798198 0,0" stroke="none" fill="#002A8D"></polygon></g></g><g transform="translate(130.2448248206165 22.0)"><g clip-path="url(#i70)"><polygon points="0,0 8.34924107,0 8.34924107,13.4635563 0,13.4635563 0,0" stroke="none" fill="#002A8D"></polygon></g></g><g transform="translate(140.7326736333441 25.58596123754978)"><g clip-path="url(#i66)"><polygon points="0,0 8.00360626,0 8.00360626,9.87759504 0,9.87759504 0,0" stroke="none" fill="#002A8D"></polygon></g></g><g transform="translate(150.3672367753923 22.99910064600408)"><g clip-path="url(#i75)"><polygon points="0,0 5.85418973,0 5.85418973,12.4644556 0,12.4644556 0,0" stroke="none" fill="#002A8D"></polygon></g></g><g transform="translate(157.6741678861988 25.58596123754978)"><g clip-path="url(#i64)"><polygon points="0,0 8.56526284,0 8.56526284,9.87759504 0,9.87759504 0,0" stroke="none" fill="#002A8D"></polygon></g></g><g transform="translate(168.1080112188174 25.58596123754978)"><g clip-path="url(#i74)"><polygon points="0,0 7.06931214,0 7.06931214,9.87759504 0,9.87759504 0,0" stroke="none" fill="#002A8D"></polygon></g></g></g><g transform="translate(55.96340852130312 100.0)"><g transform="translate(134.2997493734335 13.5)"><g clip-path="url(#i77)"><polygon points="0,0 59.3734336,0 59.3734336,1.8 0,1.8 0,0" stroke="none" fill="#868F9E"></polygon></g></g><g transform="translate(74.34987468671693 13.5)"><g clip-path="url(#i77)"><polygon points="0,0 59.3734336,0 59.3734336,1.8 0,1.8 0,0" stroke="none" fill="#868F9E"></polygon></g></g><g transform="translate(14.400000000000091 13.5)"><g clip-path="url(#i78)"><polygon points="0,0 59.3734336,0 59.3734336,1.8 0,1.8 0,0" stroke="none" fill="#868F9E"></polygon></g></g><g transform="translate(179.2731829573934 0.0)"><g clip-path="url(#i79)"><polygon points="0,0 28.8,0 28.8,28.8 0,28.8 0,0" stroke="none" fill="#FFFFFF"></polygon></g><g clip-path="url(#i79)"><path d="M14.4,28.8 C22.3529004,28.8 28.8,22.3529004 28.8,14.4 C28.8,6.4470996 22.3529004,0 14.4,0 C6.4470996,0 0,6.4470996 0,14.4 C0,22.3529004 6.4470996,28.8 14.4,28.8 Z" stroke="#868F9E" stroke-width="3.6" fill="none" stroke-miterlimit="5"></path></g><g transform="translate(11.421197370354399 10.36561020091176)"><g clip-path="url(#i80)"><polygon points="0,0 6.74797977,0 6.74797977,8.6343898 0,8.6343898 0,0" stroke="none" fill="#868F9E"></polygon></g></g></g><g transform="translate(119.6115288220551 0.0)"><g clip-path="url(#i79)"><polygon points="0,0 28.8,0 28.8,28.8 0,28.8 0,0" stroke="none" fill="#FFFFFF"></polygon></g><g clip-path="url(#i79)"><path d="M14.4,28.8 C22.3529004,28.8 28.8,22.3529004 28.8,14.4 C28.8,6.4470996 22.3529004,0 14.4,0 C6.4470996,0 0,6.4470996 0,14.4 C0,22.3529004 6.4470996,28.8 14.4,28.8 Z" stroke="#868F9E" stroke-width="3.6" fill="none" stroke-miterlimit="5"></path></g><g transform="translate(11.36057642799946 10.36561020091176)"><g clip-path="url(#i81)"><polygon points="0,0 5.9730017,0 5.9730017,8.72511894 0,8.72511894 0,0" stroke="none" fill="#868F9E"></polygon></g></g></g><g transform="translate(59.661654135338274 0.0)"><g clip-path="url(#i79)"><polygon points="0,0 28.8,0 28.8,28.8 0,28.8 0,0" stroke="none" fill="#FFFFFF"></polygon></g><g clip-path="url(#i79)"><path d="M14.4,28.8 C22.3529004,28.8 28.8,22.3529004 28.8,14.4 C28.8,6.4470996 22.3529004,0 14.4,0 C6.4470996,0 0,6.4470996 0,14.4 C0,22.3529004 6.4470996,28.8 14.4,28.8 Z" stroke="#868F9E" stroke-width="3.6" fill="none" stroke-miterlimit="5"></path></g><g transform="translate(11.317102088919459 10.36561020091176)"><g clip-path="url(#i82)"><polygon points="0,0 6.00324475,0 6.00324475,8.6343898 0,8.6343898 0,0" stroke="none" fill="#868F9E"></polygon></g></g></g><g clip-path="url(#i79)"><polygon points="0,0 28.8,0 28.8,28.8 0,28.8 0,0" stroke="none" fill="#FFFFFF"></polygon></g><g clip-path="url(#i79)"><path d="M14.4,28.8 C22.3529004,28.8 28.8,22.3529004 28.8,14.4 C28.8,6.4470996 22.3529004,0 14.4,0 C6.4470996,0 0,6.4470996 0,14.4 C0,22.3529004 6.4470996,28.8 14.4,28.8 Z" stroke="#002A8D" stroke-width="3.6" fill="none" stroke-miterlimit="5"></path></g><g transform="translate(12.18280842564377 10.456339340657)"><g clip-path="url(#i83)"><polygon points="0,0 3.68209092,0 3.68209092,8.54366066 0,8.54366066 0,0" stroke="none" fill="#002A8D"></polygon></g></g></g><g transform="translate(8.0 8.0)"><g clip-path="url(#i84)"><polygon points="0,0 304,0 304,60 0,60 0,0" stroke="none" fill="#002A8D"></polygon></g><g transform="translate(0.0 12.000000000000227)"><g clip-path="url(#i85)"><polygon points="0,0 304,0 304,48 0,48 0,0" stroke="none" fill="#002A8D"></polygon></g><g transform="translate(264.0 12.0)"><g transform="translate(3.999999966667019 5.999999974999822)"><g clip-path="url(#i86)"><polygon points="0,0 16,0 16,12 0,12 0,0" stroke="none" fill="#FFFFFF"></polygon></g></g></g><g transform="translate(16.0 13.0)"><g transform="translate(2.4989214121352177 0.460814206128088)"><g clip-path="url(#i87)"><polygon points="0,0 75.4445423,0 75.4445423,21.0131407 0,21.0131407 0,0" stroke="none" fill="#FFFFFF"></polygon></g></g><g transform="translate(0.24101452567076365 2.350688509749311)"><g clip-path="url(#i88)"><polygon points="0,0 83.4316126,0 83.4316126,17.4921667 0,17.4921667 0,0" stroke="none" fill="#FF7700"></polygon></g></g></g></g></g></g></g></g></g></svg>