<svg xmlns="http://www.w3.org/2000/svg" width="100" height="100" viewBox="0 0 100 100">
    <g fill="none" fill-rule="evenodd">
        <g>
            <g>
                <g transform="translate(-550 -120) translate(420 120) translate(130)">
                    <circle cx="50" cy="50" r="44" fill="#DCEDFF"/>
                    <path fill="#FFC8E9" d="M40.415 42.909c11.11-3.382 26.232-2.602 31.802 11.849-4.924 12.63-7.718 24.97-8.381 37.02C59.486 93.22 54.832 94 49.998 94c-6.835 0-13.307-1.559-19.078-4.34 2.523-11.246 3.095-23.424-2.562-35.785-1.68-3.67 3.601-8.392 12.057-10.966z"/>
                    <path fill="#FF9FD1" d="M35.527 52.209H71.527V56.209H35.527z" transform="rotate(25 53.527 54.209)"/>
                    <path fill="#003CE5" d="M26.374 11.532c4.616 2.665 7.198 7.5 7.203 12.471L84.11 53.18c3.444 1.989 4.624 6.392 2.636 9.836-.119.205-.246.403-.382.592-.096.212-.203.421-.322.627-1.988 3.443-6.392 4.623-9.835 2.635L25.764 37.746c-4.336 2.589-9.909 2.815-14.593.11C6.847 35.36 4.308 30.96 4 26.327l.003.003.8-1.386 8.99 5.19.083.046c1.47.79 3.302.313 4.202-1.085l4.078-7.065c.867-1.502.379-3.414-1.085-4.32l-.086-.051L12 12.47l.006-.003.798-1.38.174-.085c4.133-1.965 9.132-1.932 13.396.53z"/>
                    <path fill="#005CFF" d="M26.374 11.532c4.616 2.665 7.198 7.5 7.203 12.471L84.11 53.18c3.444 1.989 4.624 6.392 2.636 9.836-1.988 3.444-6.392 4.623-9.836 2.635L26.377 36.474c-4.309 2.483-9.787 2.664-14.403 0-4.323-2.497-6.863-6.897-7.17-11.53l8.985 5.187c1.501.867 3.414.378 4.32-1.086l.05-.086 4.8-8.314c.868-1.501.38-3.413-1.085-4.32l-.085-.05-8.986-5.188c4.167-2.05 9.247-2.052 13.571.445zm3.871 22.095l-.8 1.386 47.112 27.2.8-1.386-47.112-27.2z"/>
                    <path fill="#FFC8E9" d="M47.769 26.42c2.027.418 3.439 2.167 3.511 4.146.506-2.264 2.7-3.762 5.016-3.376 2.397.4 4.016 2.667 3.616 5.064l-.093.534-.108.57-.123.603-.138.638-.153.674-.255 1.065c.687-2.193 2.967-3.505 5.232-2.957 2.362.571 3.814 2.95 3.242 5.311l-.307 1.248-.307 1.204-.307 1.162-.153.565-.284 1.013c.937-1.757 2.987-2.71 4.997-2.182 2.35.616 3.757 3.02 3.14 5.371-.858 3.276-2.007 6.458-3.445 9.544-1.027 2.202-3.645 3.156-5.847 2.129-2.203-1.027-3.156-3.645-2.13-5.847l.056-.117c-1.156 1.862-3.546 2.612-5.585 1.668-1.781-.824-2.75-2.688-2.52-4.536-1.095 1.365-2.951 1.996-4.726 1.448-2.322-.716-3.624-3.179-2.908-5.5l.498-1.628.616-2.05.426-1.447.52-1.808.352-1.266.218-.8.204-.765.19-.73.14-.56-.05.184-.696 2.35-1.265 4.116-.696 2.218c-.73 2.318-3.2 3.605-5.519 2.875-2.317-.73-3.604-3.201-2.874-5.52l.883-2.82.943-3.072.507-1.692.574-1.993.221-.818.15-.609.04-.184c.49-2.38 2.817-3.912 5.197-3.422z"/>
                    <path fill="#FFC8E9" d="M43.976 35.66c2.429-.071 4.455 1.841 4.525 4.27.07 2.43-1.842 4.455-4.27 4.525-7.098-.148-8.58 1.853-4.445 6.002 4.711 4.729 9.296 11.511 6.829 17.503-.78 1.895-2.266 3.711-4.676 5.358-2.774 1.896-6.268-5.565-12.21-16.403-3.32-6.058-3.939-11.328-.99-15.462 2.751-3.858 7.892-5.581 15.237-5.794z"/>
                    <path fill="#002FC4" d="M51.177 31.327l.069.004c.14.024.24.142.248.278l-.004.069-.041.234-.07.371-.08.395-.09.42-.1.444-.112.47-.253 1.014-.192.733-.21.778-.23.824-.184.649-.262.905-.28.953-.378 1.257-.407 1.333-.713 2.287c-.05.158-.219.246-.377.196-.158-.05-.245-.218-.196-.376l.514-1.644c-.833 1.08-2.128 1.792-3.605 1.834l-.6-.007-.57.002-.54.012-.259.01-.495.027c-4.247.286-5.027 1.763-2.55 4.606l.295.327.322.34.171.174c6.11 6.132 9.095 12.483 6.894 17.829-.063.153-.238.226-.391.163-.154-.063-.227-.239-.164-.392 2.044-4.965-.708-10.984-6.453-16.862l-.31-.315c-.546-.547-.997-1.062-1.353-1.543l-.224-.316c-1.646-2.435-.74-3.958 2.598-4.47l.44-.059.465-.049.492-.037.256-.015.53-.021.276-.006.57-.004c.195 0 .394.002.597.007 2.264-.066 4.046-1.954 3.98-4.217-.065-2.264-1.953-4.045-4.217-3.98-1.096.032-2.134.097-3.117.197-.165.016-.312-.104-.329-.269-.017-.164.104-.312.268-.328.998-.101 2.05-.168 3.161-.2 2.54-.073 4.668 1.883 4.826 4.4l.298-1.012.26-.903.184-.645.228-.82.21-.775.19-.728.13-.515.121-.49.11-.464.099-.438.089-.413.078-.388.068-.362.04-.231c.025-.14.143-.24.279-.248zm14.978 12.32l.069.012c.136.04.223.167.216.303l-.011.069-.173.598-.173.586-.173.572-.173.559-.174.546-.173.533-.174.52-.262.755-.262.726-.175.467-.264.68-.264.648-.176.416c-.119.273-.237.538-.356.795-.07.15-.248.215-.398.146-.15-.07-.216-.248-.146-.398l.174-.384.174-.396.261-.62.174-.43.26-.669.26-.698.259-.729.173-.502.344-1.044.172-.542.172-.555.172-.568.172-.582.172-.597c.04-.136.167-.223.303-.216zm-6.874-8.134l.069.01c.137.035.228.16.226.296l-.01.068-.171.674-.376 1.425-.204.751-.215.777-.303 1.076-.24.838-.337 1.158-.265.899-.466 1.556-.612 2.003-.71 1.94c-.05.158-.218.247-.376.198-.158-.049-.247-.217-.198-.375l.723-1.977.598-1.962.466-1.554.264-.897.336-1.155.24-.836.302-1.073.214-.774.203-.749.375-1.419.171-.672c.035-.138.16-.229.296-.226z"/>
                </g>
            </g>
        </g>
    </g>
</svg>
