<?xml version="1.0" encoding="UTF-8"?><svg version="1.1" width="352px" height="653px" viewBox="0 0 352.0 653.0" xmlns="http://www.w3.org/2000/svg" xmlns:xlink="http://www.w3.org/1999/xlink"><defs><filter id="i0" x="-5.24691358%" y="-1.92307692%" filterUnits="userSpaceOnUse" width="109.259259%" height="104.807692%"><feGaussianBlur stdDeviation="2.5" in="SourceAlpha" result="i1"></feGaussianBlur><feOffset dx="0" dy="5" in="i1" result="i2"></feOffset><feColorMatrix values="0 0 0 0.3215686274509804 0 0 0 0 0.4392156862745096 0 0 0 0 0.580392156862745 0 0 0 0 0.2 0" type="matrix" in="i2"></feColorMatrix></filter><filter id="i3" x="-13.3522727%" y="-6.74846626%" filterUnits="userSpaceOnUse" width="117.613636%" height="109.509202%"><feGaussianBlur stdDeviation="7" in="SourceAlpha" result="i4"></feGaussianBlur><feOffset dx="0" dy="3" in="i4" result="i5"></feOffset><feColorMatrix values="0 0 0 0.3215686274509804 0 0 0 0 0.4392156862745096 0 0 0 0 0.580392156862745 0 0 0 0 0.12 0" type="matrix" in="i5"></feColorMatrix></filter><filter id="i6" x="-11.4035088%" y="-4.82866044%" filterUnits="userSpaceOnUse" width="116.374269%" height="108.722741%"><feGaussianBlur stdDeviation="5" in="SourceAlpha" result="i7"></feGaussianBlur><feOffset dx="0" dy="8" in="i7" result="i8"></feOffset><feColorMatrix values="0 0 0 0.3215686274509804 0 0 0 0 0.4392156862745096 0 0 0 0 0.580392156862745 0 0 0 0 0.14 0" type="matrix" in="i8"></feColorMatrix></filter><clipPath id="i9"><path d="M280,0 C302.09139,-4.05812251e-15 320,17.90861 320,40 L320,580 C320,602.09139 302.09139,620 280,620 L40,620 C17.90861,620 2.705415e-15,602.09139 0,580 L0,40 C-2.705415e-15,17.90861 17.90861,4.05812251e-15 40,0 L280,0 Z"></path></clipPath><clipPath id="i10"><path d="M272,0 C289.673112,-3.24649801e-15 304,14.326888 304,32 L304,572 C304,589.673112 289.673112,604 272,604 L32,604 C14.326888,604 2.164332e-15,589.673112 0,572 L0,32 C-2.164332e-15,14.326888 14.326888,-3.06215674e-16 32,0 L272,0 Z"></path></clipPath><clipPath id="i11"><path d="M259,0 L259,0.904255319 L0,0.904255319 L0,0 L259,0 Z"></path></clipPath><clipPath id="i12"><path d="M259,0 L259,0.904255319 L0,0.904255319 L0,0 L259,0 Z"></path></clipPath><clipPath id="i13"><path d="M9.99828441,0 C10.381607,0 10.731198,0.219119777 10.8982844,0.564110108 L13.4482844,5.97411013 L19.1382845,6.84411013 C19.5209518,6.92136302 19.8311753,7.20089158 19.9477366,7.57347149 C20.0642979,7.9460514 19.9686951,8.35254235 19.6982845,8.63411014 L15.5782844,12.8341102 L16.5782844,18.7641102 C16.6728282,19.1508009 16.5290131,19.5567392 16.2121181,19.7976662 C15.8952232,20.0385932 15.4656103,20.0686173 15.1182844,19.8741102 L9.99828441,17.0541102 L4.90828439,19.8541102 C4.56095858,20.0486173 4.13134564,20.0185932 3.81445068,19.7776662 C3.49755573,19.5367392 3.35374065,19.1308009 3.44828439,18.7441102 L4.44828439,12.8141102 L0.298284374,8.61411014 C0.0278737482,8.33254235 -0.0677290545,7.9260514 0.0488322582,7.55347149 C0.165393571,7.18089158 0.475617001,6.90136302 0.858284377,6.82411013 L6.5482844,5.97411013 L9.09828441,0.564110108 C9.26537085,0.219119777 9.61496183,0 9.99828441,0 Z"></path></clipPath><clipPath id="i14"><path d="M3.53465607,0 C4.29451261,0 4.98632231,0.0793879973 5.54203829,0.192799422 L5.45130915,0.967777491 C4.97120078,0.895950255 4.42304556,0.8279034 3.91269415,0.8279034 C1.20972186,0.8279034 0.990459776,2.12457402 0.990459776,4.4948728 C0.990459776,6.87273234 1.25130605,8.1618422 3.91269415,8.1618422 C4.43060632,8.1618422 4.9485185,8.1013561 5.45508953,8.02574849 L5.54203829,8.78938541 C4.98632231,8.90657722 4.30585376,8.9897456 3.53465607,8.9897456 C0.68802931,8.9897456 0,7.62124774 0,4.4948728 C0,1.36471748 0.691809691,0 3.53465607,0 Z"></path></clipPath><clipPath id="i15"><path d="M2.90711285,0 C4.33987718,0 5.47399143,0.36669694 5.47399143,2.04518603 L5.47399143,5.2244863 C5.47399143,5.6176459 5.45886991,6.00324475 5.43618762,6.37372207 C4.64230765,6.76688167 3.69721244,6.91431652 2.62358429,6.91431652 C0.820342639,6.91431652 0,6.36238092 0,4.90315393 C0,3.73501625 0.491449507,2.99784199 1.69361061,2.81638371 C2.51395325,2.69163115 3.54221683,2.65382734 4.57048041,2.61980391 L4.57048041,2.32115383 C4.57048041,1.22106301 4.19622271,0.767417307 2.73699572,0.767417307 C1.95823727,0.767417307 1.20594148,0.858146447 0.487669126,0.960216729 L0.404500748,0.234383611 C1.17191806,0.113411425 1.9506765,0 2.90711285,0 Z M4.57048041,3.30783322 C3.79928273,3.32295474 2.72187419,3.34563703 2.01494298,3.4892915 C1.24752567,3.64428711 0.911071778,3.95049796 0.911071778,4.88047164 C0.911071778,5.91629599 1.45544662,6.16580112 2.72187419,6.16580112 C3.30783322,6.16580112 3.96561948,6.09019351 4.54401775,5.86337066 C4.56291965,5.54203829 4.57048041,5.12241601 4.57048041,4.80486403 Z"></path></clipPath><clipPath id="i16"><path d="M0.91863254,0 L0.91863254,7.52673822 C0.91863254,8.25257134 1.09631044,8.77048351 1.459227,9.23168997 L0.680468548,9.63241034 C0.238163992,9.12961969 0,8.52475876 0,7.59100469 L0,0 L0.91863254,0 Z"></path></clipPath><clipPath id="i17"><path d="M1.01314206,2.69163115 L1.01314206,9.42448939 L0.0945095206,9.42448939 L0.0945095206,2.69163115 L1.01314206,2.69163115 Z M0.5519356,0 C0.979118633,0 1.10765158,0.177677899 1.10765158,0.672907786 C1.10765158,1.16813767 0.990459776,1.33825481 0.5519356,1.33825481 C0.113411425,1.33825481 0,1.16813767 0,0.672907786 C0,0.177677899 0.124752567,0 0.5519356,0 Z"></path></clipPath><clipPath id="i18"><path d="M3.13771608,0 C3.30027246,0 3.53465607,0.0151215233 3.71233397,0.0453645699 L3.64050673,0.725833118 L3.32295474,0.725833118 C2.57443934,0.725833118 2.11323288,1.05850663 2.11323288,1.9317746 L2.11323288,2.69163115 L6.02970741,2.69163115 L6.02970741,9.42448939 L5.11107487,9.42448939 L5.11107487,3.41746426 L2.11323288,3.41746426 L2.11323288,9.42448939 L1.19460034,9.42448939 L1.19460034,3.41746426 L0,3.41746426 L0,2.69163115 L1.19460034,2.69163115 L1.19460034,1.96957841 C1.19460034,0.691809691 1.84482584,0 3.13771608,0 Z M5.56850095,0 C5.99568398,0 6.12421693,0.177677899 6.12421693,0.672907786 C6.12421693,1.16813767 6.00702513,1.33825481 5.56850095,1.33825481 C5.12997678,1.33825481 5.01656535,1.16813767 5.01656535,0.672907786 C5.01656535,0.177677899 5.14131792,0 5.56850095,0 Z"></path></clipPath><clipPath id="i19"><path d="M2.92979514,0 C3.52331493,0 4.01854481,0.0793879973 4.43816709,0.192799422 L4.36255947,0.895950255 C4.06390938,0.843024923 3.6064833,0.78253883 3.23978637,0.78253883 C1.13411425,0.78253883 0.929973682,1.51971309 0.929973682,3.38344084 C0.929973682,5.13375716 1.0849693,6.12043655 3.22844522,6.12043655 C3.57245988,6.12043655 4.03744672,6.04482894 4.36255947,5.97678208 L4.44950823,6.71773672 C3.91269415,6.82736777 3.38344084,6.91431652 2.68785076,6.91431652 C0.419622271,6.91431652 0,5.31899582 0,3.38344084 C0,1.17947882 0.499010269,0 2.92979514,0 Z"></path></clipPath><clipPath id="i20"><path d="M2.14725631,0 L2.14725631,1.90153155 L3.64806749,1.90153155 L3.64806749,2.62736467 L2.14725631,2.62736467 L2.14725631,6.83870891 C2.14725631,7.79892564 2.47614944,7.97282316 3.2927117,7.97282316 C3.41746426,7.97282316 3.53843645,7.96526239 3.65940864,7.95392125 L3.73501625,8.6532917 C3.5081934,8.69109551 3.22844522,8.72511894 3.00540275,8.72511894 C1.76165746,8.72511894 1.23240415,8.18830486 1.23240415,6.96346148 L1.23240415,2.62736467 L0,2.62736467 L0,1.90153155 L1.23240415,1.90153155 L1.23240415,0.147434852 L2.14725631,0 Z"></path></clipPath><clipPath id="i21"><path d="M0.91863254,0 L0.91863254,4.20756386 C0.91863254,5.47777181 1.14545539,6.0523897 2.83150524,6.0523897 C3.38344084,6.0523897 4.218905,5.91251561 4.63852727,5.72349657 C4.65742917,5.40594458 4.66498994,4.98632231 4.66498994,4.66877032 L4.66498994,0 L5.57984209,0 L5.57984209,5.11107487 C5.57984209,5.50423448 5.56850095,5.88983332 5.54581867,6.26031064 C4.78218174,6.59298415 3.72367511,6.82358739 2.52151401,6.82358739 C0.23060323,6.82358739 0,5.73861809 0,4.37390061 L0,0 L0.91863254,0 Z"></path></clipPath><clipPath id="i22"><path d="M2.94491666,0 C5.2244863,0 5.84068837,1.19081996 5.84068837,3.03186542 C5.84068837,3.22088446 5.83312761,3.4703896 5.82178647,3.67074978 C5.05058878,3.79928273 3.45526807,3.95049796 2.51395325,3.98830177 L0.91863254,4.05256824 C1.03204396,5.43240724 1.44788586,6.13933846 3.14527684,6.13933846 C4.0223252,6.13933846 4.83132669,6.04482894 5.52313638,5.95031941 L5.60630476,6.69127406 C4.83510707,6.80846586 4.060129,6.91431652 2.78614067,6.91431652 C0.582178647,6.91431652 0,5.45130915 0,3.45526807 C0,1.01314206 0.73339388,0 2.94491666,0 Z M2.94491666,0.748515403 C1.25130605,0.748515403 0.895950255,1.61800299 0.895950255,3.35697817 L2.67650962,3.27380979 C3.26624903,3.24734713 4.27939109,3.16795913 4.89937355,3.08857113 C4.91071469,2.95247742 4.91449507,2.75589762 4.91449507,2.61602353 C4.91449507,1.47434852 4.4154848,0.748515403 2.94491666,0.748515403 Z"></path></clipPath><clipPath id="i23"><path d="M1.25886681,0 L2.94113628,2.51017287 L4.61584498,0 L5.62142628,0 L3.43258579,3.20954332 L5.83690799,6.73285825 L4.75193869,6.73285825 L2.88065019,3.9429372 L1.0244832,6.73285825 L0,6.73285825 L2.38920068,3.2322256 L0.189019041,0 L1.25886681,0 Z"></path></clipPath><clipPath id="i24"><path d="M2.5630982,0 C4.70279374,0 5.598744,0.835464162 5.598744,3.45904845 C5.598744,6.03348779 4.78218174,6.91431652 2.77479952,6.91431652 C2.13591516,6.91431652 1.50837195,6.81602662 0.911071778,6.66103101 L0.911071778,9.3035172 L0,9.3035172 L0,1.68983023 C0,1.29667062 0.0113411425,0.911071778 0.0340234274,0.540594458 C0.774978069,0.151215233 1.71251251,0 2.5630982,0 Z M2.5630982,0.759856545 C2.04140564,0.759856545 1.3987409,0.854366066 0.937534444,1.06228701 C0.922412921,1.38361938 0.911071778,1.80324165 0.911071778,2.12079364 L0.911071778,5.88983332 C1.33069405,6.03348779 1.96201765,6.15445998 2.47992982,6.15445998 C4.35121833,6.15445998 4.67633108,5.34545848 4.67633108,3.45904845 C4.67633108,1.65202642 4.23402652,0.759856545 2.5630982,0.759856545 Z"></path></clipPath><clipPath id="i25"><path d="M2.5630982,0 C2.78614067,0 2.99406161,0.00756076165 3.19064141,0.0302430466 L3.1150338,0.809001496 C2.94869704,0.790099592 2.76723876,0.78253883 2.5630982,0.78253883 C2.04518603,0.78253883 1.3987409,0.880828732 0.941314825,1.08874968 C0.922412921,1.40630167 0.914852159,1.82970432 0.914852159,2.14725631 L0.914852159,6.82358739 L0,6.82358739 L0,1.68983023 C0,1.29667062 0.0113411425,0.911071778 0.0378038082,0.540594458 C0.778758449,0.151215233 1.71629289,0 2.5630982,0 Z"></path></clipPath><clipPath id="i26"><path d="M3.07344961,0 C5.36814077,0 5.60252438,1.0849693 5.60252438,2.44968677 L5.60252438,6.82358739 L4.68389184,6.82358739 L4.68389184,2.61602353 C4.68389184,1.34581557 4.45706899,0.771197688 2.76723876,0.771197688 C2.2077424,0.771197688 1.3609371,0.911071778 0.941314825,1.10009082 C0.922412921,1.41764281 0.914852159,1.83726508 0.914852159,2.15481707 L0.914852159,6.82358739 L0,6.82358739 L0,1.71251251 C0,1.31935291 0.0113411425,0.933754063 0.0340234274,0.563276743 C0.797660354,0.23060323 1.86372775,0 3.07344961,0 Z"></path></clipPath><clipPath id="i27"><path d="M7.83672945,0 C8.22988905,0 8.43781,0.207920945 8.46427266,0.680468548 L8.94060065,8.89901646 L7.9841643,8.89901646 L7.56454203,1.52349347 L5.02412611,7.22430775 C4.88425202,7.53807936 4.72547603,7.7081965 4.45706899,7.7081965 C4.18866195,7.7081965 4.02610558,7.53807936 3.88623149,7.22430775 L1.34959595,1.52727385 L0.91863254,8.89901646 L0,8.89901646 L0.499010269,0.676688167 C0.529253315,0.204140564 0.725833118,0 1.11899272,0 C1.40630167,0 1.65202642,0.18523866 1.84482584,0.612421693 L4.46084937,6.43042778 L7.10333557,0.623762836 C7.29613499,0.200360184 7.54564012,0 7.83672945,0 Z"></path></clipPath><clipPath id="i28"><path d="M2.90711285,0 C4.33987718,0 5.47399143,0.36669694 5.47399143,2.04518603 L5.47399143,5.2244863 C5.47399143,5.6176459 5.45886991,6.00324475 5.43618762,6.37372207 C4.64230765,6.76688167 3.69721244,6.91431652 2.62358429,6.91431652 C0.820342639,6.91431652 0,6.36238092 0,4.90315393 C0,3.73501625 0.491449507,2.99784199 1.69361061,2.81638371 C2.51395325,2.69163115 3.54221683,2.65382734 4.57048041,2.61980391 L4.57048041,2.32115383 C4.57048041,1.22106301 4.19622271,0.767417307 2.73699572,0.767417307 C1.95823727,0.767417307 1.20594148,0.858146447 0.487669126,0.960216729 L0.404500748,0.234383611 C1.17191806,0.113411425 1.9506765,0 2.90711285,0 Z M4.57048041,3.30783322 C3.79928273,3.32295474 2.72187419,3.34563703 2.01494298,3.4892915 C1.24752567,3.64428711 0.911071778,3.95049796 0.911071778,4.88047164 C0.911071778,5.91629599 1.45544662,6.16580112 2.72187419,6.16580112 C3.30783322,6.16580112 3.96561948,6.09019351 4.54401775,5.86337066 C4.56291965,5.54203829 4.57048041,5.12241601 4.57048041,4.80486403 Z"></path></clipPath><clipPath id="i29"><path d="M2.94491666,0 C5.2244863,0 5.84068837,1.19081996 5.84068837,3.03186542 C5.84068837,3.22088446 5.83312761,3.4703896 5.82178647,3.67074978 C5.05058878,3.79928273 3.45526807,3.95049796 2.51395325,3.98830177 L0.91863254,4.05256824 C1.03204396,5.43240724 1.44788586,6.13933846 3.14527684,6.13933846 C4.0223252,6.13933846 4.83132669,6.04482894 5.52313638,5.95031941 L5.60630476,6.69127406 C4.83510707,6.80846586 4.060129,6.91431652 2.78614067,6.91431652 C0.582178647,6.91431652 0,5.45130915 0,3.45526807 C0,1.01314206 0.73339388,0 2.94491666,0 Z M2.94491666,0.748515403 C1.25130605,0.748515403 0.895950255,1.61800299 0.895950255,3.35697817 L2.67650962,3.27380979 C3.26624903,3.24734713 4.27939109,3.16795913 4.89937355,3.08857113 C4.91071469,2.95247742 4.91449507,2.75589762 4.91449507,2.61602353 C4.91449507,1.47434852 4.4154848,0.748515403 2.94491666,0.748515403 Z"></path></clipPath><clipPath id="i30"><path d="M2.34761649,0 C3.1944218,0 3.82196501,0.0756076165 4.54023737,0.223042469 L4.44950823,0.933754063 C3.94671758,0.846805304 3.37966046,0.771197688 2.76345838,0.771197688 C1.99226069,0.771197688 0.937534444,0.790099592 0.937534444,1.71629289 C0.937534444,2.61602353 1.62934413,2.71431343 2.59712163,3.01296352 C3.95049796,3.43258579 4.71413489,3.77660044 4.71413489,5.02034573 C4.71413489,6.5060354 3.61026369,6.91431652 2.14347593,6.91431652 C1.42142319,6.91431652 0.710711595,6.84626967 0,6.69127406 L0.0907291397,5.96922132 C0.64266474,6.05995046 1.26264719,6.12799731 1.82214356,6.12799731 L2.0457484,6.12720488 C2.81432169,6.11928057 3.77660044,6.03211311 3.77660044,5.07327106 C3.77660044,4.218905 3.17930027,4.06768977 2.1283544,3.75391816 C2.08233238,3.74011155 2.03632464,3.72643357 1.99041695,3.71278543 L1.71685745,3.63046404 C0.813567967,3.35198292 0.0189019041,3.00638894 0.0189019041,1.80324165 C0.0189019041,0.396939986 0.990459776,0 2.34761649,0 Z"></path></clipPath><clipPath id="i31"><path d="M3.0545477,0 C5.59496362,0 6.11665617,1.43654471 6.11665617,4.36255947 C6.11665617,7.28857423 5.59496362,8.72511894 3.0545477,8.72511894 C0.514131792,8.72511894 0,7.28857423 0,4.36255947 C0,1.43654471 0.514131792,0 3.0545477,0 Z M3.0545477,0.790099592 C1.02826358,0.790099592 0.948875587,2.24176583 0.948875587,4.36255947 C0.948875587,6.47957273 1.02826358,7.93501935 3.0545477,7.93501935 C5.08083183,7.93501935 5.16778058,6.47957273 5.16778058,4.36255947 L5.16746932,4.16571928 C5.16045241,2.15245433 5.01751045,0.790099592 3.0545477,0.790099592 Z"></path></clipPath><clipPath id="i32"><path d="M2.68785076,0 C4.41170442,0 5.598744,0.495229888 5.598744,2.0111626 C5.598744,3.59136178 4.66877032,4.49109242 3.12637494,5.12241601 C1.62556375,5.73861809 1.300451,6.46067083 1.11143196,7.80270602 L5.59496362,7.80270602 L5.59496362,8.6343898 L0,8.6343898 C0.438524175,6.15445998 0.73339388,5.2244863 2.59334124,4.43816709 C3.78038082,3.93537644 4.64986841,3.32673512 4.64986841,2.23798545 C4.64986841,1.14545539 3.98830177,0.816562258 2.25688735,0.816562258 C1.54617576,0.816562258 0.725833118,0.914852159 0.219262088,0.994240156 L0.128532948,0.245724753 C0.87326797,0.113411425 1.76543784,0 2.68785076,0 Z"></path></clipPath><clipPath id="i33"><path d="M3.4099035,0 C6.06751122,0 6.81602662,1.30423138 6.81602662,4.4948728 C6.81602662,7.68551421 6.06751122,8.9897456 3.4099035,8.9897456 C0.752295784,8.9897456 0,7.68551421 0,4.4948728 C0,1.30423138 0.752295784,0 3.4099035,0 Z M3.4099035,0.820342639 C1.07362815,0.820342639 0.986679395,2.33627535 0.986679395,4.4948728 L0.986979094,4.68866789 C0.994014514,6.73684344 1.14442438,8.16940296 3.4099035,8.16940296 C5.73861809,8.16940296 5.83312761,6.64590949 5.83312761,4.4948728 C5.83312761,2.33627535 5.73861809,0.820342639 3.4099035,0.820342639 Z"></path></clipPath><clipPath id="i34"><path d="M0.914852159,0 L0.914852159,2.76345838 C1.50837195,2.60846277 2.13591516,2.51017287 2.77479952,2.51017287 C4.78596212,2.51017287 5.598744,3.3910016 5.598744,5.96544094 C5.598744,8.58902523 4.70279374,9.42448939 2.5630982,9.42448939 C1.71629289,9.42448939 0.774978069,9.27327416 0.0340234274,8.88389493 C0.0113411425,8.51341761 0,8.12781877 0,7.73465916 L0,0 L0.914852159,0 Z M2.47992982,3.27002941 C1.96579803,3.27002941 1.33069405,3.3910016 0.914852159,3.53465607 L0.914852159,7.30369575 C0.914852159,7.62124774 0.922412921,8.04087001 0.941314825,8.36220238 C1.3987409,8.57012333 2.04140564,8.66463285 2.5630982,8.66463285 C4.2378069,8.66463285 4.67633108,7.77246297 4.67633108,5.96544094 C4.67633108,4.07903091 4.35121833,3.27002941 2.47992982,3.27002941 Z"></path></clipPath><clipPath id="i35"><path d="M3.23600598,0.101169823 L3.23600598,0.898830177 L0,0.898830177 L0,0.101169823 L3.23600598,0.101169823 Z"></path></clipPath><clipPath id="i36"><path d="M5.36814077,0 L5.36814077,0.8279034 L1.30423138,0.8279034 L1.1227731,3.42502503 C1.31557253,3.41368388 1.85994736,3.39478198 2.02250374,3.39478198 C4.10927395,3.39478198 5.60630476,3.70099283 5.60630476,5.93519789 C5.60630476,7.88965478 4.50621394,8.6343898 2.49505134,8.6343898 C1.60288147,8.6343898 0.771197688,8.54744104 0,8.39622581 L0.105850663,7.62502812 C0.73717426,7.73087878 1.45544662,7.8064864 2.15103669,7.8064864 C3.92025491,7.8064864 4.62718613,7.43600908 4.62718613,5.82556685 C4.62718613,4.36633985 3.3910016,4.17354043 1.74275556,4.17354043 C1.17569844,4.17354043 0.722052737,4.18488157 0.18523866,4.21512462 L0.472547603,0 L5.36814077,0 Z"></path></clipPath><clipPath id="i37"><path d="M0.5519356,4.75949946 C0.979118633,4.75949946 1.1038712,4.93717735 1.1038712,5.43240724 C1.1038712,5.92763713 0.990459776,6.09775427 0.5519356,6.09775427 C0.113411425,6.09775427 0,5.92763713 0,5.43240724 C0,4.93717735 0.124752567,4.75949946 0.5519356,4.75949946 Z M0.5519356,0 C0.979118633,0 1.1038712,0.177677899 1.1038712,0.672907786 C1.1038712,1.16813767 0.990459776,1.33825481 0.5519356,1.33825481 C0.113411425,1.33825481 0,1.16813767 0,0.672907786 C0,0.177677899 0.124752567,0 0.5519356,0 Z"></path></clipPath><clipPath id="i38"><path d="M3.10369266,0 L3.10369266,8.54366066 L2.16615821,8.54366066 L2.16615821,1.00936168 C1.47056814,1.20972186 0.676688167,1.37605862 0.0453645699,1.47056814 L0,0.68802931 C0.926193302,0.540594458 1.79568089,0.245724753 2.34761649,0 L3.10369266,0 Z"></path></clipPath><clipPath id="i39"><path d="M4.89405077,0.000725833118 C4.99267334,0.00181458279 5.15417121,0.00453645699 5.46265029,0.0113411425 L5.54203829,0.786319211 C5.49027615,0.788160935 5.43827292,0.789831163 5.38607315,0.79138623 L4.91217136,0.803793634 C3.05793787,0.851783676 1.12665042,0.965741901 1.02826358,3.56111874 C1.70495175,3.47416998 2.57065896,3.38722122 3.18308065,3.38722122 C5.02790649,3.38722122 6.15445998,3.89001187 6.15445998,6.00324475 C6.15445998,8.18830486 4.89937355,8.72511894 2.97894009,8.72511894 C0.548155219,8.72511894 0,7.3717426 0,5.22070592 C0,1.24752567 0.865707208,0 4.75571907,0 Z M2.93357552,4.15085814 C2.41566335,4.15085814 1.5764188,4.25292843 0.967777491,4.3360968 C0.937534444,4.74437793 0.937534444,5.0657103 0.937534444,5.4021642 C0.937534444,6.68371329 1.17191806,7.93123897 2.94491666,7.93123897 C4.65364879,7.93123897 5.21692554,7.39442489 5.21692554,5.98434284 C5.21692554,4.44572785 4.42682594,4.15085814 2.93357552,4.15085814 Z"></path></clipPath><clipPath id="i40"><path d="M7.02016719,0 C9.03889055,0 9.33754063,1.11899272 9.33754063,2.44968677 L9.33754063,6.82358739 L8.42268847,6.82358739 L8.42268847,2.61224315 C8.42268847,1.33447443 8.10513648,0.774978069 6.73285825,0.774978069 C6.24518912,0.774978069 5.53825791,0.914852159 4.96364002,1.22106301 C5.08839259,1.58397956 5.1261964,2.00360184 5.1261964,2.44968677 L5.1261964,6.82358739 L4.20756386,6.82358739 L4.20756386,2.61224315 C4.20756386,1.33447443 3.89379225,0.774978069 2.51773363,0.774978069 C2.09433098,0.774978069 1.35715672,0.914852159 0.941314825,1.10009082 C0.922412921,1.41764281 0.914852159,1.83726508 0.914852159,2.15481707 L0.914852159,6.82358739 L0,6.82358739 L0,1.71251251 C0,1.31935291 0.0113411425,0.933754063 0.0378038082,0.563276743 C0.759856545,0.253285515 1.86372775,0 2.80504257,0 C3.65940864,0 4.20378347,0.204140564 4.54779813,0.544374838 C5.22070592,0.215481707 6.09775427,0 7.02016719,0 Z"></path></clipPath><clipPath id="i41"><path d="M0.5519356,0 C0.979118633,0 1.10765158,0.177677899 1.10765158,0.672907786 C1.10765158,1.16813767 0.990459776,1.33825481 0.5519356,1.33825481 C0.113411425,1.33825481 0,1.16813767 0,0.672907786 C0,0.177677899 0.124752567,0 0.5519356,0 Z"></path></clipPath><clipPath id="i42"><path d="M6.86949201,0 C8.67543393,0 10.5245802,0.207380891 11.9589647,0.457966134 L11.7602247,2.23798545 C10.5332211,2.05652717 9.10747746,1.89235063 7.7508608,1.89235063 C4.82160571,1.89235063 2.22070371,2.2811898 2.22070371,4.97714138 C2.22070371,7.62988861 3.36993948,8.08785474 6.8435694,9.08155484 C10.1098184,10.0147689 12.4428535,11.3281812 12.4428535,14.8795789 C12.4428535,19.0271967 9.8851558,20.5479899 5.29685359,20.5479899 C3.14527684,20.5479899 1.71953322,20.3838134 0.146894798,20.0727421 L0.362916559,18.2581593 C1.95283672,18.4914628 3.74149691,18.6383576 5.21044488,18.6383576 C8.08785474,18.6383576 10.135741,17.9816514 10.135741,14.9832694 C10.135741,12.4774169 8.42484869,11.7947882 5.67705189,10.9652646 C2.10837239,9.89379667 0,8.96058266 0,5.36598055 C0,1.32205318 2.46264808,0 6.86949201,0 Z"></path></clipPath><clipPath id="i43"><path d="M10.1530228,0 L1.97875933,23.1575328 L0,23.1575328 L8.16562258,0 L10.1530228,0 Z"></path></clipPath><clipPath id="i44"><path d="M11.5182803,0 C12.5983891,0 13.1168413,0.440684393 13.1168413,1.12331316 C13.1168413,1.39118014 13.0390735,1.68496974 12.8835378,2.02196369 L4.85616919,19.5283672 L2.41944373,19.5283672 L10.8270107,1.87506889 L0,1.87506889 L0,0 Z"></path></clipPath><clipPath id="i45"><path d="M4.38956219,0 L1.80594192,7.2237677 L0,7.2237677 L1.91827324,0 L4.38956219,0 Z"></path></clipPath><clipPath id="i46"><path d="M6.98182333,0 C12.7884883,0 13.9809284,3.28353077 13.9809284,9.9715645 C13.9809284,16.6595982 12.7884883,19.943129 6.98182333,19.943129 C1.17515838,19.943129 0,16.6595982 0,9.9715645 L0.000995300263,9.63999934 C0.0404584756,3.17499184 1.27193613,0 6.98182333,0 Z M6.98182333,1.80594192 C2.35031676,1.80594192 2.16885848,5.12403618 2.16885848,9.9715645 C2.16885848,14.810452 2.35031676,18.1371871 6.98182333,18.1371871 C11.6133299,18.1371871 11.8120699,14.810452 11.8120699,9.9715645 C11.8120699,5.12403618 11.6133299,1.80594192 6.98182333,1.80594192 Z"></path></clipPath><clipPath id="i47"><path d="M1.69793104,3.03726596 L1.97875933,10.1703045 L0.0172817409,10.1703045 L0.298110031,3.03726596 L1.69793104,3.03726596 Z M0.998020537,0 C1.77137844,0 1.99172064,0.246264808 1.99172064,0.998020537 C1.99172064,1.74977627 1.75841714,1.99604107 0.998020537,1.99604107 C0.233303502,1.99604107 0,1.74977627 0,0.998020537 C0,0.246264808 0.220342197,0 0.998020537,0 Z"></path></clipPath><clipPath id="i48"><path d="M1.75841714,0 L1.75841714,7.12871812 C1.75841714,8.40756695 1.99604107,8.68839524 3.40018252,8.68839524 L5.92763713,8.68839524 L5.92763713,10.0320506 C5.18452227,10.0622936 4.09145216,10.0925367 3.43906644,10.0925367 C1.65472669,10.0925367 0,9.99748711 0,7.71629731 L0,0 L1.75841714,0 Z"></path></clipPath><clipPath id="i49"><path d="M1.82322367,3.07614988 L1.82322367,10.770845 L0.172817409,10.770845 L0.172817409,3.07614988 L1.82322367,3.07614988 Z M0.993700102,0 C1.75841714,0 1.99172064,0.246264808 1.99172064,0.998020537 C1.99172064,1.74977627 1.77137844,1.99604107 0.993700102,1.99604107 C0.220342197,1.99604107 0,1.74977627 0,0.998020537 C0,0.246264808 0.233303502,0 0.993700102,0 Z"></path></clipPath><clipPath id="i50"><path d="M2.78236029,0 C3.84518735,0 4.59694308,0.0907291397 5.51719578,0.298110031 L5.36166012,1.50351146 C4.76111962,1.39118014 4.11737477,1.29613057 3.43906644,1.29613057 C2.81692377,1.29613057 1.70657191,1.29613057 1.70657191,2.08244978 C1.70657191,2.89037117 2.63978592,3.03294553 3.27921034,3.24896729 C4.59262265,3.69397212 5.65544971,3.94023693 5.65544971,5.63384753 C5.65544971,7.40954641 4.3420374,7.90207603 2.65706766,7.90207603 C1.83186454,7.90207603 0.799280517,7.79838558 0,7.59964556 L0.155535668,6.36832152 C0.747435294,6.4763324 1.59856103,6.58002285 2.20342197,6.58002285 C2.81260333,6.58002285 3.98776171,6.60162503 3.98776171,5.69433363 C3.98776171,4.81296484 3.19712207,4.73951744 2.47992982,4.51917525 L2.18510719,4.42940918 C1.06378102,4.08426295 0.0691269636,3.69552747 0.0691269636,2.17317892 C0.0691269636,0.483888745 1.25724665,0 2.78236029,0 Z"></path></clipPath><clipPath id="i51"><path d="M2.94653682,0 L2.94653682,2.17317892 L4.54509786,2.17317892 L4.54509786,3.39154165 L2.94653682,3.39154165 L2.94653682,7.73357905 C2.94653682,8.47669391 3.2619286,8.70567698 3.97480041,8.70567698 C4.17354043,8.70567698 4.36363958,8.69703611 4.55805916,8.6840748 L4.68335178,9.85923319 C4.32475566,9.91971928 3.8754304,9.9715645 3.52115471,9.9715645 C1.96147759,9.9715645 1.300451,9.29325617 1.300451,7.87183298 L1.300451,3.39154165 L0,3.39154165 L0,2.17317892 L1.300451,2.17317892 L1.300451,0.267866984 L2.94653682,0 Z"></path></clipPath><clipPath id="i52"><path d="M3.42610513,0 C5.94491887,0 6.85221027,1.11899272 6.85221027,3.9488778 C6.85221027,6.7830833 5.94491887,7.90207603 3.42610513,7.90207603 C0.907291397,7.90207603 0,6.83060809 0,3.9488778 C0,1.07146794 0.907291397,0 3.42610513,0 Z M3.42610513,1.30477144 C2.03492499,1.30477144 1.65472669,1.8275441 1.65472669,3.9488778 C1.65472669,6.07453193 2.03492499,6.59730459 3.42610513,6.59730459 C4.81728528,6.59730459 5.20612445,5.98812322 5.20612445,3.9488778 C5.20612445,1.91395281 4.81728528,1.30477144 3.42610513,1.30477144 Z"></path></clipPath><clipPath id="i53"><path d="M0.993700102,8.17426345 C1.75841714,8.17426345 1.99172064,8.42052826 1.99172064,9.17228398 C1.99172064,9.92403971 1.77137844,10.1703045 0.993700102,10.1703045 C0.220342197,10.1703045 0,9.92403971 0,9.17228398 C0,8.42052826 0.233303502,8.17426345 0.993700102,8.17426345 Z M1.9744389,0 L1.69361061,7.13303856 L0.293789595,7.13303856 L0.0129613057,0 L1.9744389,0 Z"></path></clipPath><clipPath id="i54"><path d="M6.87813288,0 L6.87813288,1.39550058 L4.31611479,1.39550058 L4.31611479,10.0666141 L2.55337722,10.0666141 L2.55337722,1.39550058 L0,1.39550058 L0,0 L6.87813288,0 Z"></path></clipPath><clipPath id="i55"><path d="M3.42610513,0 C6.19550411,0 6.78740374,1.46030711 6.78740374,3.75445821 C6.78740374,3.94023693 6.7830833,4.13033608 6.76580156,4.32475566 C5.88443278,4.48029133 4.04824781,4.66174961 2.98542074,4.7092744 L1.62880408,4.76976049 C1.71521278,6.25166977 2.48857069,6.59730459 3.68101081,6.59730459 C4.7092744,6.59730459 5.65112928,6.49793458 6.44176892,6.39856457 L6.58002285,7.62124774 C5.74617885,7.75518123 4.73951744,7.90207603 3.25760816,7.90207603 C0.67830833,7.90207603 0,6.2300676 0,3.9488778 C0,1.15787664 0.864087045,0 3.42610513,0 Z M3.42610513,1.23564447 C1.80594192,1.23564447 1.58559973,2.25958762 1.58559973,3.65076777 L3.13231554,3.57732037 C3.69829255,3.55139776 4.58830221,3.47795036 5.11971574,3.40450296 C5.13267705,3.30513295 5.13699748,3.14527684 5.13699748,3.04590683 C5.13699748,1.87506889 4.70495396,1.23564447 3.42610513,1.23564447 Z"></path></clipPath><clipPath id="i56"><path d="M6.67939286,0 L6.67939286,8.6840748 C6.67939286,9.18956573 6.65779068,9.63025012 6.61458633,10.0968571 C5.75481972,10.5807459 4.59694308,10.770845 3.59028167,10.770845 C1.06282707,10.770845 0,9.83331057 0,6.81764679 C0,3.84950779 1.01530228,2.86876899 3.36129861,2.86876899 C3.89703257,2.86876899 4.51917525,2.95085726 5.04194791,3.08047032 L5.04194791,0 L6.67939286,0 Z M3.74581734,4.13897695 C1.69361061,4.13897695 1.65472669,5.26661054 1.65472669,6.81764679 C1.65472669,8.23474954 1.7540967,9.50927793 3.59028167,9.50927793 C4.08281129,9.50927793 4.66174961,9.42286923 4.99442312,9.25005182 C5.0289866,8.93898048 5.04194791,8.56310262 5.04194791,8.2174678 L5.04194791,4.35499871 C4.66174961,4.22538565 4.14329738,4.13897695 3.74581734,4.13897695 Z"></path></clipPath><clipPath id="i57"><path d="M3.08911119,0 C5.61656579,0 6.67939286,0.937534444 6.67939286,3.95319823 C6.67939286,6.92133723 5.66409058,7.90207603 3.31809425,7.90207603 C2.78236029,7.90207603 2.16021761,7.81998776 1.63744495,7.6903747 L1.63744495,10.6325911 L0,10.6325911 L0,2.08677021 C0,1.58127929 0.0216021761,1.1405949 0.0648065284,0.673987895 C0.924573138,0.19009915 2.08244978,0 3.08911119,0 Z M3.08911119,1.26156709 C2.59658157,1.26156709 2.01764325,1.34797579 1.68496974,1.5207932 C1.65040626,1.83186454 1.63744495,2.2077424 1.63744495,2.55337722 L1.63744495,6.41584631 C2.01764325,6.54545937 2.53609548,6.63186807 2.93357552,6.63186807 C4.98578225,6.63186807 5.02466617,5.50423448 5.02466617,3.95319823 L5.02424456,3.8071564 C5.01574789,2.44971246 4.86197943,1.26156709 3.08911119,1.26156709 Z"></path></clipPath><clipPath id="i58"><path d="M3.31377382,0 C5.00738443,0 6.402885,0.462286569 6.402885,2.42376416 L6.402885,5.81530581 C6.402885,6.32079674 6.38128283,6.76148113 6.33807848,7.22808813 C5.47831187,7.71197688 4.33339653,7.90207603 2.89901204,7.90207603 C0.816562258,7.90207603 0,7.08551377 0,5.50423448 C0,4.16057912 0.583258756,3.31809425 2.06948847,3.09343162 C2.91629378,2.96381857 3.84518735,2.92925508 4.7956831,2.89037117 C4.7956831,1.82322367 4.3290761,1.2874897 3.15823815,1.2874897 C2.23798545,1.2874897 1.27020796,1.38253927 0.483888745,1.48190928 L0.349955253,0.28082829 C1.17947882,0.142574362 2.18614022,0 3.31377382,0 Z M4.7956831,3.9618391 C4.11737477,3.98776171 3.33105556,4.00072302 2.70459245,4.14761782 C1.90531193,4.33339653 1.62016321,4.57966134 1.62016321,5.47831187 C1.62016321,6.44176892 2.15589718,6.67507242 3.14095641,6.67507242 C3.6421269,6.67507242 4.26426957,6.63618851 4.74815831,6.41152588 C4.7827218,6.10045454 4.7956831,5.72457667 4.7956831,5.37894186 Z"></path></clipPath><clipPath id="i59"><path d="M7.65581122,0 C10.0622936,0 10.4165693,1.30909187 10.4165693,2.86444855 L10.4165693,7.79838558 L8.77480394,7.79838558 L8.77480394,3.0415864 C8.77480394,1.88803019 8.49829609,1.300451 7.25401074,1.300451 C6.89973506,1.300451 6.33375804,1.39982101 5.90171452,1.63744495 C5.99676409,2.01332282 6.02700714,2.4280846 6.02700714,2.86444855 L6.02700714,7.79838558 L4.38524175,7.79838558 L4.38524175,3.0415864 C4.38524175,1.88803019 4.1087339,1.300451 2.86444855,1.300451 C2.47560938,1.300451 1.97011846,1.40846188 1.68496974,1.55535668 C1.65040626,1.86642802 1.63744495,2.24230588 1.63744495,2.5879407 L1.63744495,7.79838558 L0,7.79838558 L0,2.08677021 C0,1.58127929 0.0216021761,1.1405949 0.0648065284,0.673987895 C0.881368786,0.272187419 2.06948847,0 3.26624903,0 C4.15193825,0 4.76111962,0.181458279 5.1758814,0.483888745 C5.89307365,0.194419585 6.7830833,0 7.65581122,0 Z"></path></clipPath><clipPath id="i60"><path d="M46.4486585,0 L47.0134014,0.00375856429 C65.6798479,0.251939296 87.2330804,12.8022162 88.9903409,41.0502902 L89.0366522,41.895731 C90.3547948,69.7316072 70.9254908,91.202001 47.2389093,87.8557103 L46.7071111,87.7771257 C38.133706,86.4534562 35.0428771,83.1730831 32.0795982,79.2904217 L31.7170211,78.8120757 L31.3535341,78.3282619 C29.0439564,75.2479598 26.5481833,71.8719272 21.3686075,68.8318694 L21.0442925,68.6427233 C18.3413548,67.0760774 15.6330516,65.7447714 13.1018864,64.3522098 L12.4979013,64.0166671 C5.29313484,59.9723965 -0.321276487,55.2232415 0.0142935421,42.6841685 L0.0312909443,42.1763162 C0.456971914,31.6177771 5.19354569,27.723631 10.5658741,23.656238 L11.079329,23.2681247 C13.9984665,21.0633684 17.0687908,18.74493 19.7126201,15.2380254 C23.5555008,10.1412162 27.6545944,0 46.4486585,0 Z"></path></clipPath><clipPath id="i61"><path d="M32.7925415,0.00281430658 L33.2958193,0.0151899073 C33.3799588,0.0180308271 33.4642271,0.0212704584 33.5486229,0.0249231282 L34.0565129,0.0519102282 C34.1414118,0.0572723613 34.2264349,0.0630761876 34.3115808,0.0693360341 L34.8239158,0.112481975 C35.252068,0.153188158 35.6832102,0.20601121 36.1171488,0.272742036 L36.639205,0.359609376 C43.1813754,1.53176321 50.3353052,5.99434744 57.4475291,19.7916638 C60.7946363,26.2849741 62.2922873,33.1386542 62.7939773,39.4165744 L62.8603846,40.3310756 C62.9496282,41.6963363 62.9928869,43.0316533 62.9991885,44.3271248 L62.9980134,45.1847608 C62.9969381,45.3266801 62.9954313,45.4680803 62.9935053,45.6089478 L62.9770195,46.4476522 C62.9734666,46.5863347 62.9695195,46.7244574 62.9651903,46.8620067 L62.934731,47.6803127 L62.8956991,48.4842047 L62.8731542,48.8805417 L62.822378,49.6615904 L62.7645151,50.4265953 L62.7001602,51.1749043 L62.6299075,51.9058656 L62.5543515,52.618827 L62.4740867,53.3131368 L62.3461605,54.3182033 L62.256724,54.9630314 L62.1178266,55.8908193 L61.9750215,56.7693062 L61.8786377,57.3264881 L61.7820032,57.8601285 C54.719568,67.0362062 45.9524214,70.3395942 38.2500805,71.0084523 L37.5311901,71.0635383 C36.3385204,71.1433577 35.1739599,71.1602399 34.0480735,71.1281698 L33.3772671,71.1030869 C33.2662677,71.0979495 33.1556761,71.0923417 33.045503,71.0862761 L32.3895701,71.0444863 L31.7441868,70.9922996 C31.5308736,70.9732371 31.3194032,70.9525406 31.1098601,70.930309 L30.4870972,70.8591074 L29.8764052,70.7792878 L29.2782912,70.691443 L28.6932624,70.596166 C28.5968762,70.5797001 28.5010563,70.5629492 28.4058134,70.5459258 L27.8413631,70.4406122 L27.2912657,70.3293487 L26.7560283,70.2127282 C29.2721389,65.3520382 30.3168769,60.8725181 30.594946,57.0667743 L30.6352363,56.421016 C30.6462506,56.2079997 30.6548931,55.997238 30.661295,55.7887857 L30.6739112,55.1704111 L30.6738737,54.5662198 C30.6728568,54.4667214 30.6713456,54.3678276 30.6693564,54.2695452 L30.6518178,53.687243 C30.6403124,53.3998151 30.6248015,53.1180131 30.6057289,52.8420212 L30.5629663,52.2978387 L30.5382698,52.03166 L30.4827396,51.5113321 L30.4196839,51.0073168 L30.3498916,50.5199416 L30.2741516,50.0495342 L30.193253,49.596422 L30.1079845,49.1609327 L29.9736143,48.5414582 L29.8338499,47.9634779 L29.7389918,47.6017559 L29.6437085,47.2592948 L29.5017125,46.7824336 L29.4088181,46.4895576 L29.2308271,45.9653551 L29.0684923,45.5254026 L28.8972058,45.0979309 L28.7253116,44.7090814 L28.6998867,44.6563429 L18.5861879,28.4116038 C18.0393887,29.7621534 16.8220927,30.799026 15.2850868,31.03963 C12.7486338,31.4365348 11.8012477,32.7671195 11.4477182,33.6777265 L11.3846355,33.8538471 L11.3356197,34.0163618 L11.2989016,34.1628641 L11.2630122,34.34733 L11.2416883,34.5147805 L11.2378514,34.5709618 C11.1483846,36.8848139 9.25532775,38.6992888 6.97377269,38.6992888 L6.80393741,38.6959331 C4.44747286,38.6035011 2.61112887,36.6066025 2.70332516,34.23601 L2.71065994,34.0837336 L2.73465009,33.7668591 L2.77151645,33.4346478 C2.78601111,33.3215003 2.80274157,33.206015 2.82179757,33.0884106 L2.88603199,32.7294583 C3.59993781,29.0807297 6.48761919,23.7213691 13.9725027,22.5502181 C14.2890555,22.5010629 14.6029784,22.4881991 14.9100445,22.5085617 L13.3351693,19.9789954 C11.5734817,20.3408325 9.98744982,21.8593793 9.05563715,23.0004357 L8.81808628,23.301121 L8.61513335,23.5761717 C8.5534884,23.6628144 8.49796932,23.744032 8.44893567,23.8186719 L8.38029421,23.9255543 C7.52829687,25.3291342 6.04815652,26.0992888 4.52877735,26.0992888 C3.72084329,26.0992888 2.90261708,25.8818829 2.16190365,25.425363 C0.0868553852,24.1477122 -0.59886878,21.4453743 0.563447934,19.3203906 L0.694345078,19.0959798 L0.864345083,18.8285176 L1.05745867,18.5399944 L1.30616339,18.186009 L1.50256204,17.9180523 L1.72323515,17.6276035 L1.96800965,17.3173036 C2.01080423,17.2640794 2.05459582,17.2101381 2.09938082,17.1555348 L2.37998285,16.8204098 L2.68425356,16.4720359 C2.89495178,16.2359572 3.12131374,15.9928065 3.36310863,15.7461051 L3.73734684,15.3738299 C4.95890504,14.1893129 6.5260656,12.9644046 8.41409549,12.076479 L8.1,11.5722932 L9.53479174,8.4740972 L10.2941948,8.01351812 L11.1036879,7.53765557 L12.1588145,6.93489579 L12.982958,6.47656268 L13.8926661,5.98283861 L14.8784965,5.46212672 L15.6621443,5.05893704 L16.2034466,4.78608686 L17.3260285,4.23537628 L18.1982978,3.82209534 L18.7920419,3.54842609 L19.3941939,3.27746341 L20.0035736,3.01025767 L20.6190007,2.74785928 L21.2392948,2.49131862 L21.8632757,2.24168609 L22.489763,2.00001208 L23.1175766,1.76734697 L23.7455361,1.54474115 L24.3724612,1.33324503 C24.5811326,1.26471464 24.789435,1.19821094 24.9971716,1.13390898 L25.618487,0.947783408 L26.2352272,0.775918694 C27.6680318,0.39235567 29.0538328,0.133834537 30.3251567,0.0604026412 L30.811852,0.0352484866 L31.3020124,0.0162248686 L31.7955638,0.00401949448 L32.0435878,0 L32.5420859,0 C32.6254381,0 32.7089238,0.00151092324 32.7925415,0.00281430658 Z"></path></clipPath><clipPath id="i62"><path d="M32.9497394,9.71278014 L33.1139832,10.0570273 L33.4283857,10.7349016 L33.7244592,11.3981571 C33.7723075,11.5074509 33.8194146,11.6161127 33.8657918,11.7241309 L34.135387,12.3644268 L34.3880066,12.9887285 C34.4287254,13.0914154 34.4687593,13.1934129 34.5081198,13.2947096 L34.7362912,13.8939884 C34.8097145,14.0908836 34.8805342,14.2848839 34.9488403,14.4758975 L35.1463087,15.0398868 C35.1779934,15.1323611 35.2090724,15.2240658 35.2395568,15.3149895 L35.4154189,15.8510673 L35.5775537,16.3678498 L35.7265023,16.8647866 L35.9263856,17.5717779 L36.0996452,18.2310217 L36.2012631,18.6430743 L36.3342102,19.2186126 L36.4106447,19.5731421 L36.4779533,19.9036995 L36.587358,20.4906974 L36.6824232,21.0798014 L36.7623856,21.7091905 L36.7729192,21.8131586 L36.8076546,22.0225313 L36.8581361,22.4187258 L36.8912709,22.7701556 L36.9190206,23.1919973 L36.9363908,23.6797854 L36.9396025,24.0862176 L36.9320593,24.5253489 L36.9200151,24.8353389 L36.9016303,25.1584664 L36.8762805,25.4941732 L36.8433415,25.8419011 L36.8021889,26.2010919 L36.7521984,26.5711873 C36.7430955,26.6337476 36.7335983,26.696739 36.7236939,26.7601499 L36.6592761,27.1455559 L36.5844598,27.5404711 L36.4986205,27.9443373 L36.4011341,28.3565964 C36.3838811,28.4259746 36.3661167,28.4956793 36.3478281,28.5656988 L36.2317003,28.9895006 C36.2112624,29.0607328 36.1902741,29.1322567 36.1687225,29.2040604 L36.0325487,29.6381489 L35.8822306,30.0783976 C35.6720994,30.6692544 35.422585,31.2750497 35.1270284,31.8898294 L34.896624,32.3525057 C33.3415284,35.3696421 30.6526445,38.5649235 26.0584584,41.2485329 C27.4805076,37.3165421 27.9799513,33.7474623 27.994546,30.6984576 L27.99113,30.0956375 C27.9895264,29.9963387 27.9874166,29.8976295 27.9848167,29.7995156 L27.9634659,29.2180224 C27.9589705,29.122313 27.9540174,29.0272106 27.948623,28.932721 L27.9110884,28.3731834 C27.903993,28.2811682 27.8964886,28.1897775 27.8885914,28.099017 L27.8366241,27.5620636 C27.8272205,27.4738473 27.8174566,27.386273 27.8073485,27.2993464 L27.7426995,26.7856058 L27.6705689,26.2876897 L27.5917349,25.8058775 C27.5780805,25.726933 27.5641792,25.6486711 27.5500472,25.5710977 L27.4626172,25.1139652 L27.3704293,24.6736352 L27.2742618,24.2503869 L27.1748929,23.8444998 L27.0731009,23.4562534 L26.9696639,23.0859269 L26.8653603,22.7337999 L26.7089822,22.2403444 L26.6059166,21.9349383 L26.406135,21.3819374 L26.2200078,20.9078811 L26.0931184,20.6054908 L25.8552852,20.0827912 L25.7120934,19.8 L18.9,8.37431208 L19.8835145,7.83676753 C20.0511106,7.74630894 20.2204137,7.655762 20.3912264,7.56564511 L20.7348062,7.38613829 L21.2795015,7.1098343 L21.8318466,6.84211897 C21.8935935,6.81298061 21.9554573,6.78406664 22.0174295,6.75539881 L22.3904989,6.58651981 L22.7657746,6.42459355 C22.8284823,6.39824331 22.8912654,6.37222631 22.9541155,6.34656433 L23.3319549,6.19702693 L23.5213539,6.12578005 L23.9008618,5.99098317 C27.2564839,4.84791165 30.6840918,5.00792376 32.9497394,9.71278014 Z M7.24881282,13.5 L15.8374357,14.3377005 L15.8327647,14.5589613 L15.8341471,14.8275415 L15.8425452,15.0813047 L15.8600629,15.3752786 C15.9517446,16.626025 16.3229892,18.7415589 17.7021145,20.5186672 L17.8798073,20.738956 C19.4184796,22.5741103 19.1908345,25.3192713 17.3715123,26.8713811 C16.4462254,27.6602595 15.2874721,27.9887271 14.1697746,27.8796499 C13.0894563,27.7742807 12.0471298,27.2601038 11.2909683,26.3584401 C9.06235685,23.7002628 8.02774048,20.773555 7.56135451,18.3782229 L7.4780137,17.9214603 L7.40785562,17.4792571 L7.34987203,17.0529022 L7.30305467,16.6436843 L7.2663953,16.2528923 L7.23888567,15.8818149 L7.21951753,15.5317412 L7.20352508,15.0488315 L7.20017959,14.6204294 L7.20607824,14.2508848 L7.22244141,13.8572328 L7.24881282,13.5 Z M14.1738897,0 L16.2,1.96357573 C15.9770513,3.92585086 14.6281475,5.58242112 12.7782881,5.98890468 L12.5851619,6.02645669 C9.95384938,6.4721524 9.01586087,7.99481509 8.68185238,8.9905884 L8.62100788,9.18856633 L8.5752555,9.36835163 L8.54245129,9.52678775 L8.52184525,9.65110913 L8.49771795,9.88691061 C8.40736231,12.416415 6.49549829,14.4 4.1912764,14.4 L4.01975383,14.3963316 C2.04969466,14.3126262 0.443508347,12.8009264 0,10.8133395 L0.189898022,10.9137348 L0.454498945,11.0370348 L0.611609341,11.1021901 L0.783551077,11.166971 L0.969042692,11.2293438 L1.16680273,11.2872749 C1.20071391,11.296447 1.23508288,11.3053493 1.26988294,11.3139394 L1.48364286,11.3613952 C1.52006051,11.3685672 1.55685585,11.3753423 1.5940022,11.3816781 L1.82087872,11.4140831 C3.01262919,11.550772 4.49038015,11.1839027 5.45879788,9.05135556 L5.55089902,8.83942566 C6.48812334,6.58648328 8.74315632,4.31218225 10.7120762,2.63474884 L11.2181626,2.21110354 L11.7049408,1.81697627 L12.1660832,1.45480598 L12.5952622,1.12703164 L12.9861501,0.836092209 L13.4868445,0.474083758 L14.1738897,0 Z"></path></clipPath><clipPath id="i63"><path d="M36,0 L36,6.00112729 C36,9.14854392 33.4350177,11.7 30.2702297,11.7 L5.72946333,11.7 C2.56498235,11.7 0,9.14854392 0,6.00112729 L0,0 L36,0 Z"></path></clipPath><clipPath id="i64"><path d="M28.79198,0 C31.6496331,0 33.9741835,1.43506693 33.9741835,4.30533753 L33.9741835,61.3943517 C33.9741835,64.2646223 31.6496331,66.6 28.79198,66.6 L5.18189415,66.6 C2.32455044,66.6 0,64.2646223 0,61.3943517 L0,4.30533753 C0,1.43506693 2.32455044,0 5.18189415,0 L28.79198,0 Z"></path></clipPath><clipPath id="i65"><path d="M15.456569,0.336974483 C16.224578,0.889717462 16.4236547,1.93859532 15.9310811,2.73012085 L15.8628998,2.83184192 L8.06623288,13.6568489 C7.51056054,14.4283525 6.45443666,14.6249232 5.66214461,14.1249049 L5.5603612,14.0557248 L0.733347065,10.1401777 C-0.0640185794,9.55784094 -0.238157852,8.43961215 0.344396112,7.6425438 C0.901621644,6.88013059 1.9493358,6.68771568 2.73720584,7.18205959 L2.84296159,7.25373786 L6.21596534,10.1070326 L12.960771,0.743153858 C13.5377614,-0.0579480994 14.6551682,-0.2398008 15.456569,0.336974483 Z"></path></clipPath><clipPath id="i66"><path d="M30.2702786,0 C33.4350395,0 36,2.62039167 36,5.85284563 L36,63.4472171 C36,66.679671 33.4350395,69.3000627 30.2702786,69.3000627 L5.72972143,69.3000627 C2.56526744,69.3000627 0,66.679671 0,63.4472171 L0,5.85284563 C0,2.62039167 2.56526744,0 5.72972143,0 Z M30.2702786,1.20186206 L5.72972143,1.20186206 C3.21909293,1.20186206 1.17688589,3.28826701 1.17688589,5.85284563 L1.17688589,63.4472171 C1.17688589,66.0117957 3.21909293,68.0982006 5.72972143,68.0982006 L30.2702786,68.0982006 C32.7809071,68.0982006 34.8234211,66.0117957 34.8234211,63.4472171 L34.8234211,5.85284563 C34.8234211,3.28826701 32.7809071,1.20186206 30.2702786,1.20186206 Z"></path></clipPath><clipPath id="i67"><path d="M19.8,0 C17.7636694,0 17.4880157,1.63560161 17.4880157,3.15018336 C17.4880157,6.3 15.5458258,6.3 13.9242064,6.3 L5.8757936,6.3 C4.25386659,6.3 2.31167669,6.3 2.31167669,3.15018336 C2.31167669,1.63560161 2.03602293,0 0,0 Z"></path></clipPath><clipPath id="i68"><path d="M10.3498939,0 C10.5984916,0 10.8,0.201460886 10.8,0.45 C10.8,0.698539114 10.5984916,0.9 10.3498939,0.9 C10.1015084,0.9 9.9,0.698539114 9.9,0.45 C9.9,0.201460886 10.1015084,0 10.3498939,0 Z M7.57695275,0 C7.8656702,0 8.1,0.201522281 8.1,0.44987545 C8.1,0.698477719 7.8656702,0.9 7.57695275,0.9 L0.52246866,0.9 C0.234040501,0.9 0,0.698477719 0,0.44987545 C0,0.201522281 0.234040501,0 0.52246866,0 L7.57695275,0 Z"></path></clipPath><clipPath id="i69"><path d="M7.67432771,0.258870494 C32.0332595,6.79196926 37.2954103,26.9491239 37.5595643,27.789402 C38.5010688,30.78559 36.5742984,34.5255892 33.5804472,35.4683634 C33.0128174,35.6467004 32.4378939,35.732061 31.8731181,35.732061 C29.4665577,35.732061 21.4896141,40.4224502 20.7174472,38.0104585 C20.4948348,37.3348724 22.3864058,23.4613986 3.92257972,11.8285607 C1.2664525,10.1549856 -0.622581622,7.05915739 0.190809772,4.02520765 C1.13326561,0.506701761 4.64274029,-0.554117609 7.67432771,0.258870494 Z"></path></clipPath><clipPath id="i70"><path d="M0.507159481,0.0757523843 L0.783848367,0.325581244 L0.992172252,0.518905444 L1.47175466,0.975372228 C1.72127671,1.21678939 1.98487483,1.47774475 2.26020819,1.75716977 C3.57082435,3.08726268 4.88132402,4.56288623 6.10504782,6.14480699 C8.79310426,9.61968614 10.6788842,13.1026204 11.4044631,16.4407873 C11.4403252,16.6057778 11.3356459,16.768601 11.1706554,16.8044631 C11.0056649,16.8403252 10.8428418,16.7356459 10.8069797,16.5706554 C10.1039431,13.336199 8.25873647,9.92820141 5.6214257,6.51892174 C4.41373652,4.95772909 3.11915086,3.50002473 1.8246817,2.18631878 C1.55294714,1.91054604 1.29292311,1.65312664 1.04695793,1.41514511 L0.467221156,0.865493798 L0.104283303,0.535690399 C-0.0227250731,0.424439214 -0.0354988003,0.231291678 0.0757523843,0.104283303 C0.187003569,-0.0227250731 0.380151105,-0.0354988003 0.507159481,0.0757523843 Z"></path></clipPath><clipPath id="i71"><path d="M274,0 C290.568542,-3.04359188e-15 304,13.4314575 304,30 C304,46.5685425 290.568542,60 274,60 L30,60 C13.4314575,60 2.02906125e-15,46.5685425 0,30 C-2.02906125e-15,13.4314575 13.4314575,3.04359188e-15 30,0 L274,0 Z"></path></clipPath><clipPath id="i72"><path d="M304,0 L304,48 L0,48 L0,0 L304,0 Z"></path></clipPath><clipPath id="i73"><path d="M15,10 C15.5522848,10 16,10.4477153 16,11 C16,11.5522848 15.5522848,12 15,12 L1,12 C0.447715252,12 0,11.5522848 0,11 C0,10.4477153 0.447715252,10 1,10 L15,10 Z M15,5.00000002 C15.5522848,5.00000002 16,5.44771527 16,6.00000002 C16,6.55228478 15.5522848,7.00000002 15,7.00000002 L1,7.00000002 C0.447715252,7.00000002 0,6.55228478 0,6.00000002 C0,5.44771527 0.447715252,5.00000002 1,5.00000002 L15,5.00000002 Z M15,0 C15.5522848,0 16,0.447715252 16,1 C16,1.55228476 15.5522848,2 15,2 L1,2 C0.447715252,2 0,1.55228476 0,1 C0,0.447715252 0.447715252,0 1,0 L15,0 Z"></path></clipPath><clipPath id="i74"><path d="M43.7636111,0 C45.2376066,0 46.2796894,0.208402507 47.6140579,0.640627437 C49.6716942,1.30695474 49.9216265,2.42559958 49.7852575,3.09613231 C49.6460959,3.78255223 49.1606595,5.43201602 49.1606595,5.43201602 C47.8663173,4.27131685 45.611807,3.94469499 44.3584221,3.94469499 C39.5561847,3.94469499 37.4594528,8.78608148 37.4594528,12.0289366 C37.4594528,15.173665 39.2787924,17.1843287 42.3999209,17.1843287 C43.6849546,17.1843287 45.0891366,16.9679826 46.9829439,15.5736483 L46.2405938,18.9230411 C46.2405938,18.9230411 46.0344113,20.0342096 44.8042976,20.4659673 C43.8050338,20.8421198 42.7508501,21.0131407 41.153052,21.0131407 C36.7022092,21.0131407 32.3588791,18.8132326 32.3588791,12.2948134 C32.3588791,6.1974046 36.2507486,0 43.7636111,0 Z M58.836344,0.420402994 C64.2608523,0.441897423 66.7476088,2.50115717 66.7476088,6.09072681 C66.7476088,9.37984171 64.1384459,14.2193591 56.6358227,14.2193591 C55.8674089,14.2193591 55.2065078,14.1319796 54.729449,14.1002052 C54.729449,14.1002052 54.4387946,15.4176738 54.1391558,16.7707936 L54.0492763,17.1765172 C53.9447597,17.6481184 53.8425929,18.1083845 53.7548526,18.5023577 C53.2968761,20.5513375 51.9550608,20.8307651 51.243894,20.8307651 L48.4639208,20.8307651 L52.8719447,0.908233078 C54.6950076,0.485353552 56.6139478,0.401712187 58.836344,0.420402994 Z M23.223458,0.317416643 C27.9070124,0.317416643 31.0104548,1.97575857 31.0104548,5.0793672 C31.0104548,7.98532054 28.1839393,9.5646938 26.0443885,9.92262277 C27.7399255,10.0483185 29.8315377,11.3468623 29.8315377,14.3215044 C29.8315377,17.31437 27.299635,21.2628031 18.5426961,20.7768421 C17.5164377,20.7193679 16.8857892,20.6352593 15.9600623,20.4095678 C12.6616075,19.6039939 13.8219078,15.7420058 13.8219078,15.7420058 L17.178075,0.797303134 C19.0248746,0.498717479 21.0960082,0.317416643 23.223458,0.317416643 Z M21.0341069,11.6085336 L19.5093802,11.6085336 L18.4035345,16.562065 C18.4035345,16.562065 18.2438943,17.3129682 18.9424947,17.3751151 C19.2957509,17.3863296 19.6713475,17.3863296 20.0660265,17.3863296 C22.5848972,17.3863296 24.8892079,16.4676764 24.9408699,14.2112286 C24.988343,12.2113122 23.1950672,11.6085336 21.0341069,11.6085336 Z M59.2189219,3.83381177 C58.3290326,3.83381177 57.6611502,3.87586609 57.2743834,3.93287305 L56.048924,9.48778113 C56.048924,9.48778113 55.6537796,10.6685729 57.0644775,10.6685729 C57.2385459,10.6760492 57.4275077,10.6811892 57.6355519,10.6811892 C60.78926,10.6568912 62.408933,8.59202416 62.408933,6.45426302 C62.408933,4.35107987 60.9614666,3.83381177 59.2189219,3.83381177 Z M4.84645259,1.88978085 C6.70349146,2.72853085 6.89245331,6.57836999 5.7284297,9.42591455 C4.04918251,7.59795355 2.27778152,6.49285954 0.96994211,5.86297932 L0.865185511,5.81055744 C0.670384053,5.71278115 0.249583232,5.50014401 0,5.36346748 C0.350256873,4.5731059 0.780384115,3.94579999 0.992317701,3.6582814 L1.07355481,3.55035096 C1.1053415,3.50909273 1.12306637,3.48737765 1.12306637,3.48737765 C1.21335848,3.36915829 3.14626135,1.08887974 4.84645259,1.88978085 Z M73.8348418,1.88978085 C75.6918807,2.72853085 75.8808425,6.57836999 74.7168189,9.42591455 C73.0375717,7.59795355 71.2661707,6.49285954 69.9583313,5.86297932 L69.9456019,5.85663115 L69.8535747,5.81055744 C69.7669963,5.76710131 69.635776,5.70095662 69.4947862,5.62887587 L69.2803332,5.51839675 C69.1738022,5.46302524 69.0715836,5.40902632 68.9883892,5.36346748 C69.3386461,4.5731059 69.7687733,3.94579999 69.9807069,3.6582814 L70.061944,3.55035096 C70.0937307,3.50909273 70.1114556,3.48737765 70.1114556,3.48737765 C70.2017477,3.36915829 72.1346506,1.08887974 73.8348418,1.88978085 Z M23.2830322,3.67708935 C22.4745919,3.67708935 21.6256599,3.73175996 21.2686802,3.78783238 L20.4220753,7.63813879 C20.4220753,7.63813879 20.2117039,8.46240341 20.9289212,8.46240341 L21.9165494,8.46240341 C24.4572951,8.46240341 26.2170605,7.47459422 26.2612757,5.73448001 C26.2971133,4.29902597 25.0516406,3.67708935 23.2830322,3.67708935 Z"></path></clipPath><clipPath id="i75"><path d="M7.269,0.085 L7.36181618,0.134910969 C8.13178078,0.550052013 9.53172803,1.4021221 10.8088495,2.54475348 C12.2423532,3.76479596 13.48131,5.36472911 13.4547808,5.34416922 C13.6060434,5.55023538 15.4016464,7.79406685 13.7479975,10.447227 C11.937501,13.3503767 6.99842913,16.6595843 5.59890134,17.1558252 C2.87710601,18.2992354 1.03449526,16.1787632 0.877182192,15.9563426 C0.369405397,15.299828 0.246068228,15.1610487 0.000324737984,14.6820968 C-0.0476138596,14.7615327 5.22516645,12.2990188 7.11431953,9.11317061 C9.0713637,6.49580741 9.31954605,1.47107169 7.38189825,0.155789696 L7.269,0.085 Z M76.256,0.085 L76.3502054,0.134910969 C77.12017,0.550052013 78.5201172,1.4021221 79.7972387,2.54475348 C81.2307424,3.76479596 82.4701646,5.36472911 82.44317,5.34416922 C82.5944326,5.55023538 84.3900356,7.79406685 82.7363867,10.447227 C80.9263556,13.3503767 75.9868183,16.6595843 74.5872905,17.1558252 C71.8654952,18.2992354 70.0228845,16.1787632 69.8655714,15.9563426 C69.3577946,15.299828 69.2344574,15.1610487 68.9887139,14.6820968 C68.9407753,14.7615327 74.2140211,12.2990188 76.1027087,9.11317061 C78.0597529,6.49580741 78.3079352,1.47107169 76.3702874,0.155789696 L76.256,0.085 Z"></path></clipPath></defs><g transform="translate(16.0 13.0)"><path d="M280,3 C290.217268,3 299.467268,7.14136606 306.162951,13.8370491 C312.858634,20.5327321 317,29.7827321 317,40 L317,580 C317,590.217268 312.858634,599.467268 306.162951,606.162951 C299.467268,612.858634 290.217268,617 280,617 L40,617 C29.7827321,617 20.5327321,612.858634 13.8370491,606.162951 C7.14136606,599.467268 3,590.217268 3,580 L3,40 C3,29.7827321 7.14136606,20.5327321 13.8370491,13.8370491 C20.5327321,7.14136606 29.7827321,3 40,3 Z" stroke="none" fill="#000000" filter="url(#i0)"></path><path d="M280,-2 C291.59798,-2 302.09798,2.70101013 309.698485,10.3015152 C317.29899,17.9020203 322,28.4020203 322,40 L322,580 C322,591.59798 317.29899,602.09798 309.698485,609.698485 C302.09798,617.29899 291.59798,622 280,622 L40,622 C28.4020203,622 17.9020203,617.29899 10.3015152,609.698485 C2.70101013,602.09798 -2,591.59798 -2,580 L-2,40 C-2,28.4020203 2.70101013,17.9020203 10.3015152,10.3015152 C17.9020203,2.70101013 28.4020203,-2 40,-2 Z" stroke="none" fill="#000000" filter="url(#i3)"></path><path d="M280,-1 C291.321837,-1 301.571837,3.58908131 308.991378,11.008622 C316.410919,18.4281626 321,28.6781626 321,40 L321,580 C321,591.321837 316.410919,601.571837 308.991378,608.991378 C301.571837,616.410919 291.321837,621 280,621 L40,621 C28.6781626,621 18.4281626,616.410919 11.008622,608.991378 C3.58908131,601.571837 -1,591.321837 -1,580 L-1,40 C-1,28.6781626 3.58908131,18.4281626 11.008622,11.008622 C18.4281626,3.58908131 28.6781626,-1 40,-1 Z" stroke="none" fill="#000000" filter="url(#i6)"></path><g clip-path="url(#i9)"><polygon points="0,0 320,0 320,620 0,620 0,0" stroke="none" fill="#FFFFFF"></polygon></g><g clip-path="url(#i9)"><polygon points="0,0 320,0 320,620 0,620 0,0" stroke="none" fill="#FFFFFF"></polygon><path d="M40,0 L280,0 C302.09139,-4.05812251e-15 320,17.90861 320,40 L320,580 C320,602.09139 302.09139,620 280,620 L40,620 C17.90861,620 2.705415e-15,602.09139 0,580 L0,40 C-2.705415e-15,17.90861 17.90861,4.05812251e-15 40,0 Z" stroke="#F2F3F8" stroke-width="16" fill="none" stroke-miterlimit="5"></path></g><g transform="translate(8.0 8.0)"><g clip-path="url(#i10)"><polygon points="0,0 304,0 304,604 0,604 0,0" stroke="none" fill="#FFFFFF"></polygon><g transform="translate(-8.0 -8.0)"><g transform="translate(8.0 8.0)"><g clip-path="url(#i10)"><polygon points="0,0 304,0 304,604 0,604 0,0" stroke="none" fill="#FFFFFF"></polygon></g></g><g transform="translate(30.0 400.0)"><g clip-path="url(#i11)"><polygon points="0,0 259,0 259,0.904255319 0,0.904255319 0,0" stroke="none" fill="#E9EEF4"></polygon></g><g transform="translate(0.0 84.09574468085106)"><g clip-path="url(#i12)"><polygon points="0,0 259,0 259,0.904255319 0,0.904255319 0,0" stroke="none" fill="#E9EEF4"></polygon></g></g><g transform="translate(189.6527777777778 41.59574468085106)"><g transform="translate(2.0017155851628186 1.9999999999998739)"><g clip-path="url(#i13)"><polygon points="0,0 19.9965688,0 19.9965688,20.0016134 0,20.0016134 0,0" stroke="none" fill="#FF7700"></polygon></g></g></g><g transform="translate(153.6805555555557 41.59574468085106)"><g transform="translate(2.0017155851628186 1.9999999999998739)"><g clip-path="url(#i13)"><polygon points="0,0 19.9965688,0 19.9965688,20.0016134 0,20.0016134 0,0" stroke="none" fill="#FF7700"></polygon></g></g></g><g transform="translate(117.70833333333348 41.59574468085106)"><g transform="translate(2.0017155851628186 1.9999999999998739)"><g clip-path="url(#i13)"><polygon points="0,0 19.9965688,0 19.9965688,20.0016134 0,20.0016134 0,0" stroke="none" fill="#FF7700"></polygon></g></g></g><g transform="translate(81.73611111111131 41.59574468085106)"><g transform="translate(2.0017155851628186 1.9999999999998739)"><g clip-path="url(#i13)"><polygon points="0,0 19.9965688,0 19.9965688,20.0016134 0,20.0016134 0,0" stroke="none" fill="#FF7700"></polygon></g></g></g><g transform="translate(45.76388888888869 41.59574468085106)"><g transform="translate(2.0017155851628186 1.9999999999998739)"><g clip-path="url(#i13)"><polygon points="0,0 19.9965688,0 19.9965688,20.0016134 0,20.0016134 0,0" stroke="none" fill="#FF7700"></polygon></g></g></g><g transform="translate(68.32760117688372 22.30837112905823)"><g transform="translate(0.0 0.5254729343578219)"><g clip-path="url(#i14)"><polygon points="0,0 5.54203829,0 5.54203829,8.9897456 0,8.9897456 0,0" stroke="none" fill="#202E44"></polygon></g></g><g transform="translate(6.426642483246724 2.6009020060300827)"><g clip-path="url(#i15)"><polygon points="0,0 5.47399143,0 5.47399143,6.91431652 0,6.91431652 0,0" stroke="none" fill="#202E44"></polygon></g></g><g transform="translate(13.74545457887325 0.09072913974523544)"><g clip-path="url(#i16)"><polygon points="0,0 1.459227,0 1.459227,9.63241034 0,9.63241034 0,0" stroke="none" fill="#202E44"></polygon></g></g><g transform="translate(16.55805583064466 0.0)"><g clip-path="url(#i17)"><polygon points="0,0 1.10765158,0 1.10765158,9.42448939 0,9.42448939 0,0" stroke="none" fill="#202E44"></polygon></g></g><g transform="translate(18.85652529609615 0.0)"><g clip-path="url(#i18)"><polygon points="0,0 6.12421693,0 6.12421693,9.42448939 0,9.42448939 0,0" stroke="none" fill="#202E44"></polygon></g></g><g transform="translate(26.61386135550447 2.6009020060300827)"><g clip-path="url(#i19)"><polygon points="0,0 4.44950823,0 4.44950823,6.91431652 0,6.91431652 0,0" stroke="none" fill="#202E44"></polygon></g></g><g transform="translate(32.08406822582083 2.6009020060300827)"><g clip-path="url(#i15)"><polygon points="0,0 5.47399143,0 5.47399143,6.91431652 0,6.91431652 0,0" stroke="none" fill="#202E44"></polygon></g></g><g transform="translate(42.45364499971265 0.790099591948092)"><g clip-path="url(#i20)"><polygon points="0,0 3.73501625,0 3.73501625,8.72511894 0,8.72511894 0,0" stroke="none" fill="#202E44"></polygon></g></g><g transform="translate(47.51179127658952 2.691631145775318)"><g clip-path="url(#i21)"><polygon points="0,0 5.57984209,0 5.57984209,6.82358739 0,6.82358739 0,0" stroke="none" fill="#202E44"></polygon></g></g><g transform="translate(58.46354631564645 2.6009020060300827)"><g clip-path="url(#i22)"><polygon points="0,0 5.84068837,0 5.84068837,6.91431652 0,6.91431652 0,0" stroke="none" fill="#202E44"></polygon></g></g><g transform="translate(65.5026100215232 2.6916311457753177)"><g clip-path="url(#i23)"><polygon points="0,0 5.83690799,0 5.83690799,6.73285825 0,6.73285825 0,0" stroke="none" fill="#202E44"></polygon></g></g><g transform="translate(72.82142226753513 2.6009020060300827)"><g clip-path="url(#i24)"><polygon points="0,0 5.598744,0 5.598744,9.3035172 0,9.3035172 0,0" stroke="none" fill="#202E44"></polygon></g></g><g transform="translate(79.8793878998049 2.6009020060300827)"><g clip-path="url(#i22)"><polygon points="0,0 5.84068837,0 5.84068837,6.91431652 0,6.91431652 0,0" stroke="none" fill="#202E44"></polygon></g></g><g transform="translate(87.40234035098956 2.6009020060300827)"><g clip-path="url(#i25)"><polygon points="0,0 3.19064141,0 3.19064141,6.82358739 0,6.82358739 0,0" stroke="none" fill="#202E44"></polygon></g></g><g transform="translate(91.70063008807028 0.0)"><g clip-path="url(#i17)"><polygon points="0,0 1.10765158,0 1.10765158,9.42448939 0,9.42448939 0,0" stroke="none" fill="#202E44"></polygon></g></g><g transform="translate(94.43006296731164 2.6009020060300827)"><g clip-path="url(#i22)"><polygon points="0,0 5.84068837,0 5.84068837,6.91431652 0,6.91431652 0,0" stroke="none" fill="#202E44"></polygon></g></g><g transform="translate(101.956795799319 2.6009020060300827)"><g clip-path="url(#i26)"><polygon points="0,0 5.60252438,0 5.60252438,6.82358739 0,6.82358739 0,0" stroke="none" fill="#202E44"></polygon></g></g><g transform="translate(109.3247524446133 2.6009020060300827)"><g clip-path="url(#i19)"><polygon points="0,0 4.44950823,0 4.44950823,6.91431652 0,6.91431652 0,0" stroke="none" fill="#202E44"></polygon></g></g><g transform="translate(115.0747074958113 0.0)"><g clip-path="url(#i17)"><polygon points="0,0 1.10765158,0 1.10765158,9.42448939 0,9.42448939 0,0" stroke="none" fill="#202E44"></polygon></g></g><g transform="translate(117.6113409530935 2.6009020060300827)"><g clip-path="url(#i15)"><polygon points="0,0 5.47399143,0 5.47399143,6.91431652 0,6.91431652 0,0" stroke="none" fill="#202E44"></polygon></g></g></g></g><g transform="translate(61.98424907929737 337.6662397487089)"><g transform="translate(0.0 0.4347437946125865)"><g clip-path="url(#i27)"><polygon points="0,0 8.94060065,0 8.94060065,8.89901646 0,8.89901646 0,0" stroke="none" fill="#606C7F"></polygon></g></g><g transform="translate(10.39981975084993 2.5101728662848473)"><g clip-path="url(#i28)"><polygon points="0,0 5.47399143,0 5.47399143,6.91431652 0,6.91431652 0,0" stroke="none" fill="#606C7F"></polygon></g></g><g transform="translate(17.832043271158 2.5101728662848473)"><g clip-path="url(#i25)"><polygon points="0,0 3.19064141,0 3.19064141,6.82358739 0,6.82358739 0,0" stroke="none" fill="#606C7F"></polygon></g></g><g transform="translate(21.60107969305818 0.6993704522028565)"><g clip-path="url(#i20)"><polygon points="0,0 3.73501625,0 3.73501625,8.72511894 0,8.72511894 0,0" stroke="none" fill="#606C7F"></polygon></g></g><g transform="translate(26.47398730962232 2.5101728662848473)"><g clip-path="url(#i29)"><polygon points="0,0 5.84068837,0 5.84068837,6.91431652 0,6.91431652 0,0" stroke="none" fill="#606C7F"></polygon></g></g><g transform="translate(33.6680466292305 2.5101728662848473)"><g clip-path="url(#i30)"><polygon points="0,0 4.71413489,0 4.71413489,6.91431652 0,6.91431652 0,0" stroke="none" fill="#606C7F"></polygon></g></g><g transform="translate(43.42898288715014 0.6993704522028565)"><g clip-path="url(#i31)"><polygon points="0,0 6.11665617,0 6.11665617,8.72511894 0,8.72511894 0,0" stroke="none" fill="#606C7F"></polygon></g></g><g transform="translate(50.95193493452234 0.6993704522028565)"><g clip-path="url(#i32)"><polygon points="0,0 5.598744,0 5.598744,8.6343898 0,8.6343898 0,0" stroke="none" fill="#606C7F"></polygon></g></g><g transform="translate(61.65040502100965 0.4347437946125865)"><g clip-path="url(#i33)"><polygon points="0,0 6.81602662,0 6.81602662,8.9897456 0,8.9897456 0,0" stroke="none" fill="#606C7F"></polygon></g></g><g transform="translate(70.11089100834624 2.5101728662848473)"><g clip-path="url(#i19)"><polygon points="0,0 4.44950823,0 4.44950823,6.91431652 0,6.91431652 0,0" stroke="none" fill="#606C7F"></polygon></g></g><g transform="translate(75.33159274436366 0.6993704522028565)"><g clip-path="url(#i20)"><polygon points="0,0 3.73501625,0 3.73501625,8.72511894 0,8.72511894 0,0" stroke="none" fill="#606C7F"></polygon></g></g><g transform="translate(80.38973902124053 2.6009020060300827)"><g clip-path="url(#i21)"><polygon points="0,0 5.57984209,0 5.57984209,6.82358739 0,6.82358739 0,0" stroke="none" fill="#606C7F"></polygon></g></g><g transform="translate(87.96939701210158 0.0)"><g clip-path="url(#i34)"><polygon points="0,0 5.598744,0 5.598744,9.42448939 0,9.42448939 0,0" stroke="none" fill="#606C7F"></polygon></g></g><g transform="translate(95.2352835951906 2.5101728662848473)"><g clip-path="url(#i25)"><polygon points="0,0 3.19064141,0 3.19064141,6.82358739 0,6.82358739 0,0" stroke="none" fill="#606C7F"></polygon></g></g><g transform="translate(99.4466245733488 2.5101728662848473)"><g clip-path="url(#i22)"><polygon points="0,0 5.84068837,0 5.84068837,6.91431652 0,6.91431652 0,0" stroke="none" fill="#606C7F"></polygon></g></g><g transform="translate(110.118631604189 0.6993704522028565)"><g clip-path="url(#i32)"><polygon points="0,0 5.598744,0 5.598744,8.6343898 0,8.6343898 0,0" stroke="none" fill="#606C7F"></polygon></g></g><g transform="translate(117.2370836972309 0.6993704522028565)"><g clip-path="url(#i31)"><polygon points="0,0 6.11665617,0 6.11665617,8.72511894 0,8.72511894 0,0" stroke="none" fill="#606C7F"></polygon></g></g><g transform="translate(124.7600357446031 0.6993704522028565)"><g clip-path="url(#i32)"><polygon points="0,0 5.598744,0 5.598744,8.6343898 0,8.6343898 0,0" stroke="none" fill="#606C7F"></polygon></g></g><g transform="translate(131.5420339444231 0.6993704522028565)"><g clip-path="url(#i32)"><polygon points="0,0 5.598744,0 5.598744,8.6343898 0,8.6343898 0,0" stroke="none" fill="#606C7F"></polygon></g></g><g transform="translate(142.2783078391376 5.48623303277418)"><g clip-path="url(#i35)"><polygon points="0,0.101169823 3.23600598,0.101169823 3.23600598,0.898830177 0,0.898830177 0,0.101169823" stroke="none" fill="#606C7F"></polygon></g></g><g transform="translate(150.6253823405245 0.790099591948092)"><g clip-path="url(#i36)"><polygon points="0,0 5.60630476,0 5.60630476,8.6343898 0,8.6343898 0,0" stroke="none" fill="#606C7F"></polygon></g></g><g transform="translate(157.8534654022328 3.3267351239919662)"><g clip-path="url(#i37)"><polygon points="0,0 1.1038712,0 1.1038712,6.09775427 0,6.09775427 0,0" stroke="none" fill="#606C7F"></polygon></g></g><g transform="translate(160.1481543281216 0.790099591948092)"><g clip-path="url(#i38)"><polygon points="0,0 3.10369266,0 3.10369266,8.54366066 0,8.54366066 0,0" stroke="none" fill="#606C7F"></polygon></g></g><g transform="translate(165.1420341532917 0.6993704522028565)"><g clip-path="url(#i39)"><polygon points="0,0 6.15445998,0 6.15445998,8.72511894 0,8.72511894 0,0" stroke="none" fill="#606C7F"></polygon></g></g><g transform="translate(176.5096310382887 2.5101728662848473)"><g clip-path="url(#i24)"><polygon points="0,0 5.598744,0 5.598744,9.3035172 0,9.3035172 0,0" stroke="none" fill="#606C7F"></polygon></g></g><g transform="translate(183.7868587582761 2.5101728662848473)"><g clip-path="url(#i40)"><polygon points="0,0 9.33754063,0 9.33754063,6.82358739 0,6.82358739 0,0" stroke="none" fill="#606C7F"></polygon></g></g><g transform="translate(194.9805580140319 8.086234579794109)"><g clip-path="url(#i41)"><polygon points="0,0 1.10765158,0 1.10765158,1.33825481 0,1.33825481 0,0" stroke="none" fill="#606C7F"></polygon></g></g></g><g transform="translate(106.68469944377128 298.1582204699516)"><g transform="translate(0.0 0.5011704862117767)"><g clip-path="url(#i42)"><polygon points="0,0 12.4428535,0 12.4428535,20.5479899 0,20.5479899 0,0" stroke="none" fill="#002A8D"></polygon></g></g><g transform="translate(14.59441907910968 0.0)"><g clip-path="url(#i43)"><polygon points="0,0 10.1530228,0 10.1530228,23.1575328 0,23.1575328 0,0" stroke="none" fill="#002A8D"></polygon></g></g><g transform="translate(34.71035058951702 1.3134123086929321)"><g clip-path="url(#i44)"><polygon points="0,0 13.1168413,0 13.1168413,19.5283672 0,19.5283672 0,0" stroke="none" fill="#002A8D"></polygon></g></g><g transform="translate(49.36525614372113 17.39407221972942)"><g clip-path="url(#i45)"><polygon points="0,0 4.38956219,0 4.38956219,7.2237677 0,7.2237677 0,0" stroke="none" fill="#002A8D"></polygon></g></g><g transform="translate(57.05562605906654 1.1060314178466797)"><g clip-path="url(#i46)"><polygon points="0,0 13.9809284,0 13.9809284,19.943129 0,19.943129 0,0" stroke="none" fill="#002A8D"></polygon></g></g><g transform="translate(75.0199824947099 1.1060314178466797)"><g clip-path="url(#i46)"><polygon points="0,0 13.9809284,0 13.9809284,19.943129 0,19.943129 0,0" stroke="none" fill="#002A8D"></polygon></g></g><g transform="translate(92.98433893035372 1.1060314178466797)"><g clip-path="url(#i46)"><polygon points="0,0 13.9809284,0 13.9809284,19.943129 0,19.943129 0,0" stroke="none" fill="#002A8D"></polygon></g></g></g><g transform="translate(87.23411412746196 255.8291549816728)"><g transform="translate(0.0 3.0675090104341507)"><g clip-path="url(#i47)"><polygon points="0,0 1.99172064,0 1.99172064,10.1703045 0,10.1703045 0,0" stroke="none" fill="#202E44"></polygon></g></g><g transform="translate(4.069847083364039 0.7042309418320656)"><g clip-path="url(#i48)"><polygon points="0,0 5.92763713,0 5.92763713,10.0925367 0,10.0925367 0,0" stroke="none" fill="#202E44"></polygon></g></g><g transform="translate(10.96093602040582 0.0)"><g clip-path="url(#i49)"><polygon points="0,0 1.99172064,0 1.99172064,10.770845 0,10.770845 0,0" stroke="none" fill="#202E44"></polygon></g></g><g transform="translate(14.546894501686438 2.9724594354629517)"><g clip-path="url(#i50)"><polygon points="0,0 5.65544971,0 5.65544971,7.90207603 0,7.90207603 0,0" stroke="none" fill="#202E44"></polygon></g></g><g transform="translate(21.18307782723423 0.9029709622263908)"><g clip-path="url(#i51)"><polygon points="0,0 4.68335178,0 4.68335178,9.9715645 0,9.9715645 0,0" stroke="none" fill="#202E44"></polygon></g></g><g transform="translate(27.02862271587946 2.9724594354629517)"><g clip-path="url(#i52)"><polygon points="0,0 6.85221027,0 6.85221027,7.90207603 0,7.90207603 0,0" stroke="none" fill="#202E44"></polygon></g></g><g transform="translate(35.67380741256557 0.7042309418320656)"><g clip-path="url(#i53)"><polygon points="0,0 1.99172064,0 1.99172064,10.1703045 0,10.1703045 0,0" stroke="none" fill="#202E44"></polygon></g></g><g transform="translate(42.72475195327524 0.7042309418320656)"><g clip-path="url(#i54)"><polygon points="0,0 6.87813288,0 6.87813288,10.0666141 0,10.0666141 0,0" stroke="none" fill="#202E44"></polygon></g></g><g transform="translate(50.63114295835612 2.9724594354629517)"><g clip-path="url(#i55)"><polygon points="0,0 6.78740374,0 6.78740374,7.90207603 0,7.90207603 0,0" stroke="none" fill="#202E44"></polygon></g></g><g transform="translate(62.56849659824684 0.10369044542312622)"><g clip-path="url(#i56)"><polygon points="0,0 6.67939286,0 6.67939286,10.770845 0,10.770845 0,0" stroke="none" fill="#202E44"></polygon></g></g><g transform="translate(71.05814565862647 2.9724594354629517)"><g clip-path="url(#i55)"><polygon points="0,0 6.78740374,0 6.78740374,7.90207603 0,7.90207603 0,0" stroke="none" fill="#202E44"></polygon></g></g><g transform="translate(79.62988304240571 2.9724594354629525)"><g clip-path="url(#i57)"><polygon points="0,0 6.67939286,0 6.67939286,10.6325911 0,10.6325911 0,0" stroke="none" fill="#202E44"></polygon></g></g><g transform="translate(87.71341119472709 2.9724594354629517)"><g clip-path="url(#i52)"><polygon points="0,0 6.85221027,0 6.85221027,7.90207603 0,7.90207603 0,0" stroke="none" fill="#202E44"></polygon></g></g><g transform="translate(96.06048586082215 2.9724594354629517)"><g clip-path="url(#i50)"><polygon points="0,0 5.65544971,0 5.65544971,7.90207603 0,7.90207603 0,0" stroke="none" fill="#202E44"></polygon></g></g><g transform="translate(103.2496848952933 0.0)"><g clip-path="url(#i49)"><polygon points="0,0 1.99172064,0 1.99172064,10.770845 0,10.770845 0,0" stroke="none" fill="#202E44"></polygon></g></g><g transform="translate(106.4381633357852 0.9029709622263908)"><g clip-path="url(#i51)"><polygon points="0,0 4.68335178,0 4.68335178,9.9715645 0,9.9715645 0,0" stroke="none" fill="#202E44"></polygon></g></g><g transform="translate(112.171376908555 2.9724594354629517)"><g clip-path="url(#i58)"><polygon points="0,0 6.402885,0 6.402885,7.90207603 0,7.90207603 0,0" stroke="none" fill="#202E44"></polygon></g></g><g transform="translate(120.6048605401556 2.972459435462952)"><g clip-path="url(#i59)"><polygon points="0,0 10.4165693,0 10.4165693,7.79838558 0,7.79838558 0,0" stroke="none" fill="#202E44"></polygon></g></g><g transform="translate(132.8403238859964 2.9724594354629517)"><g clip-path="url(#i52)"><polygon points="0,0 6.85221027,0 6.85221027,7.90207603 0,7.90207603 0,0" stroke="none" fill="#202E44"></polygon></g></g><g transform="translate(141.1873985520911 2.9724594354629517)"><g clip-path="url(#i50)"><polygon points="0,0 5.65544971,0 5.65544971,7.90207603 0,7.90207603 0,0" stroke="none" fill="#202E44"></polygon></g></g></g><g transform="translate(106.0 127.0)"><g transform="translate(9.899999999999999 13.5)"><g clip-path="url(#i60)"><polygon points="2.72351586e-16,0 89.1,0 89.1,88.2 2.72351586e-16,88.2 2.72351586e-16,0" stroke="none" fill="#DCEDFF"></polygon></g></g><g transform="translate(26.999999999999996 30.600711241850796)"><g clip-path="url(#i61)"><polygon points="0,0 62.9991885,0 62.9991885,71.1434674 0,71.1434674 0,0" stroke="none" fill="#FFC8E9"></polygon></g></g><g transform="translate(29.700000000000003 54.9)"><g clip-path="url(#i62)"><polygon points="0,0 36.9396025,0 36.9396025,41.2485329 0,41.2485329 0,0" stroke="none" fill="#FF9FD1"></polygon></g></g><g transform="translate(34.2 62.99999999999999)"><g clip-path="url(#i63)"><polygon points="0,0 36,0 36,11.7 0,11.7 0,0" stroke="none" fill="#003BE5"></polygon></g></g><g transform="translate(35.10000000000001 4.4999999999999645)"><g clip-path="url(#i64)"><polygon points="0,0 33.9741835,0 33.9741835,66.6 0,66.6 0,0" stroke="none" fill="#FFFFFF"></polygon></g></g><g transform="translate(45.521977803853126 25.552511400801855) rotate(4.0)"><g clip-path="url(#i65)"><polygon points="-4.54636329e-13,-1.07691633e-14 16.2,-1.07691633e-14 16.2,14.4 -4.54636329e-13,14.4 -4.54636329e-13,-1.07691633e-14" stroke="none" fill="#FF7700"></polygon></g></g><g transform="translate(34.2 3.5999372887000405)"><g clip-path="url(#i66)"><polygon points="0,0 36,0 36,69.3000627 0,69.3000627 0,0" stroke="none" fill="#003BE5"></polygon></g></g><g transform="translate(42.300000000000004 4.5)"><g clip-path="url(#i67)"><polygon points="0,0 19.8,0 19.8,6.3 0,6.3 0,0" stroke="none" fill="#003BE5"></polygon></g></g><g transform="translate(46.799999999999955 6.300000000000011)"><g clip-path="url(#i68)"><polygon points="0,0 10.8,0 10.8,0.9 0,0.9 0,0" stroke="none" fill="#26B7FF"></polygon></g></g><g transform="translate(45.89999999999999 43.2)"><g clip-path="url(#i69)"><polygon points="-1.77635684e-15,0 37.8,0 37.8,38.7 -1.77635684e-15,38.7 -1.77635684e-15,0" stroke="none" fill="#FFC8E9"></polygon></g></g><g transform="translate(70.79427860844663 52.79427860844663)"><g clip-path="url(#i70)"><polygon points="1.38777878e-17,-1.38777878e-17 11.4115028,-1.38777878e-17 11.4115028,16.8115028 1.38777878e-17,16.8115028 1.38777878e-17,-1.38777878e-17" stroke="none" fill="#003BE5"></polygon></g></g></g><g transform="translate(8.0 8.0)"><g clip-path="url(#i71)"><polygon points="0,0 304,0 304,60 0,60 0,0" stroke="none" fill="#002A8D"></polygon></g><g transform="translate(0.0 12.000000000000227)"><g clip-path="url(#i72)"><polygon points="0,0 304,0 304,48 0,48 0,0" stroke="none" fill="#002A8D"></polygon></g><g transform="translate(264.0 12.0)"><g transform="translate(3.999999966667019 5.999999974999822)"><g clip-path="url(#i73)"><polygon points="0,0 16,0 16,12 0,12 0,0" stroke="none" fill="#FFFFFF"></polygon></g></g></g><g transform="translate(16.0 13.0)"><g transform="translate(2.4989214121352177 0.460814206128088)"><g clip-path="url(#i74)"><polygon points="0,0 75.4445423,0 75.4445423,21.0131407 0,21.0131407 0,0" stroke="none" fill="#FFFFFF"></polygon></g></g><g transform="translate(0.24101452567076365 2.350688509749311)"><g clip-path="url(#i75)"><polygon points="0,0 83.4316126,0 83.4316126,17.4921667 0,17.4921667 0,0" stroke="none" fill="#FF7700"></polygon></g></g></g></g></g></g></g></g></g></svg>